SplineFontDB: 3.2
FontName: OpenSatlujUni-Bold
FullName: OpenSatlujUni Bold
FamilyName: OpenSatlujUni
Weight: Bold
Copyright: (c) Summit Information Technologies Limited
Version: 2.6.0
ItalicAngle: 0
UnderlinePosition: -143
UnderlineWidth: 20
Ascent: 800
Descent: 200
InvalidEm: 0
sfntRevision: 0x00010000
LayerCount: 2
Layer: 0 1 "Back" 1
Layer: 1 1 "Fore" 0
XUID: [1021 229 1847980196 25837]
StyleMap: 0x0020
FSType: 0
OS2Version: 0
OS2_WeightWidthSlopeOnly: 0
OS2_UseTypoMetrics: 0
CreationTime: 1563887434
ModificationTime: 1745165567
PfmFamily: 33
TTFWeight: 700
TTFWidth: 5
LineGap: 0
VLineGap: 0
Panose: 2 11 8 2 4 5 5 2 2 4
OS2TypoAscent: 1285
OS2TypoAOffset: 0
OS2TypoDescent: -360
OS2TypoDOffset: 0
OS2TypoLinegap: 0
OS2WinAscent: 1285
OS2WinAOffset: 0
OS2WinDescent: 360
OS2WinDOffset: 0
HheadAscent: 1285
HheadAOffset: 0
HheadDescent: -360
HheadDOffset: 0
OS2SubXSize: 700
OS2SubYSize: 650
OS2SubXOff: 0
OS2SubYOff: 143
OS2SupXSize: 700
OS2SupYSize: 650
OS2SupXOff: 0
OS2SupYOff: 453
OS2StrikeYSize: 50
OS2StrikeYPos: 259
OS2Vendor: 'GBNW'
OS2CodePages: 00000001.00000000
OS2UnicodeRanges: 00020000.00000000.00000000.00000000
Lookup: 4 0 1 "Ligatures in Gurmukhi lookup 6" { "Ligatures in Gurmukhi lookup 6 subtable"  } ['liga' ('DFLT' <'dflt' > 'guru' <'dflt' > ) 'rlig' ('DFLT' <'dflt' > 'guru' <'dflt' > ) ]
Lookup: 4 0 0 "'nukt' Nukta Forms in Gurmukhi lookup 7" { "'nukt' Nukta Forms in Gurmukhi lookup 7 subtable"  } ['nukt' ('DFLT' <'dflt' > 'guru' <'dflt' > ) ]
Lookup: 4 0 0 "'blwf' Below Base Forms in Gurmukhi lookup 1" { "'blwf' Below Base Forms in Gurmukhi lookup 1 subtable"  } ['blwf' ('DFLT' <'dflt' > 'guru' <'dflt' > ) ]
Lookup: 4 0 0 "'pstf' Post Base Forms in Gurmukhi lookup 1" { "'pstf' Post Base Forms in Gurmukhi lookup 1 subtable"  } ['pstf' ('DFLT' <'dflt' > 'guru' <'dflt' > ) ]

StartChar: uni0A02
Encoding: 2562 2562 1
Width: 100
Flags: MW
LayerCount: 2
Fore
SplineSet
-80 771 m 128,-1,1
 -60 791 -60 791 -31.5 791 c 128,-1,2
 -3 791 -3 791 17.5 771 c 128,-1,3
 38 751 38 751 38 722.5 c 128,-1,4
 38 694 38 694 17.5 673.5 c 128,-1,5
 -3 653 -3 653 -31.5 653 c 128,-1,6
 -60 653 -60 653 -80 673.5 c 128,-1,7
 -100 694 -100 694 -100 722.5 c 128,-1,0
 -100 751 -100 751 -80 771 c 128,-1,1
-47 503 m 1,8,-1
 -47 599 l 1,9,-1
 148 599 l 1,10,-1
 148 503 l 1,11,-1
 -47 503 l 1,8,-1
EndSplineSet
Validated: 1
EndChar

StartChar: uni0A03
Encoding: 2563 2563 2
Width: 450
Flags: MW
LayerCount: 2
Fore
SplineSet
261 188 m 0,0,1
 245 204 245 204 222 205 c 0,2,3
 222 205 222 205 221 204 c 0,4,5
 198 204 198 204 181 188 c 128,-1,6
 164 172 164 172 164 148 c 128,-1,7
 164 124 164 124 181 107 c 128,-1,8
 198 90 198 90 221 90 c 128,-1,9
 244 90 244 90 261 107 c 128,-1,10
 278 124 278 124 278 148 c 128,-1,11
 278 172 278 172 261 188 c 0,0,1
221 21 m 128,-1,13
 168 21 168 21 131 58.5 c 128,-1,14
 94 96 94 96 94 148 c 128,-1,15
 94 200 94 200 131.5 237 c 128,-1,16
 169 274 169 274 221 274 c 128,-1,17
 273 274 273 274 310.5 237 c 128,-1,18
 348 200 348 200 348 148 c 128,-1,19
 348 96 348 96 311 58.5 c 128,-1,12
 274 21 274 21 221 21 c 128,-1,13
261 518 m 0,20,21
 245 534 245 534 222 535 c 0,22,23
 222 535 222 535 221 534 c 0,24,25
 198 534 198 534 181 518 c 128,-1,26
 164 502 164 502 164 478 c 128,-1,27
 164 454 164 454 181 437 c 128,-1,28
 198 420 198 420 221 420 c 128,-1,29
 244 420 244 420 261 437 c 128,-1,30
 278 454 278 454 278 478 c 128,-1,31
 278 502 278 502 261 518 c 0,20,21
221 351 m 128,-1,33
 168 351 168 351 131 388.5 c 128,-1,34
 94 426 94 426 94 478 c 128,-1,35
 94 530 94 530 131.5 567 c 128,-1,36
 169 604 169 604 221 604 c 128,-1,37
 273 604 273 604 310.5 567 c 128,-1,38
 348 530 348 530 348 478 c 128,-1,39
 348 426 348 426 311 388.5 c 128,-1,32
 274 351 274 351 221 351 c 128,-1,33
EndSplineSet
Validated: 1
EndChar

StartChar: uni0A05
Encoding: 2565 2565 3
Width: 744
Flags: MW
LayerCount: 2
Fore
SplineSet
128 202 m 128,-1,1
 92 157 92 157 61.5 157 c 128,-1,2
 31 157 31 157 16.5 181.5 c 128,-1,3
 2 206 2 206 2 242 c 0,4,5
 2 312 2 312 89 396 c 1,6,7
 66 503 66 503 19 503 c 2,8,-1
 -6 503 l 1,9,-1
 -6 599 l 1,10,-1
 76 599 l 2,11,12
 104 599 104 599 135.5 560.5 c 128,-1,13
 167 522 167 522 176 468 c 1,14,15
 201 488 201 488 259 518 c 128,-1,16
 317 548 317 548 351 558 c 1,17,18
 387 530 387 530 407 336 c 1,19,-1
 536 412 l 1,20,-1
 536 599 l 1,21,-1
 775 599 l 1,22,-1
 775 503 l 1,23,-1
 643 503 l 1,24,-1
 643 0 l 1,25,-1
 536 0 l 1,26,-1
 536 296 l 1,27,28
 404 222 404 222 404 215 c 0,29,30
 404 169 404 169 384 120 c 0,31,32
 352 45 352 45 286 45 c 0,33,34
 224 45 224 45 224 135 c 0,35,36
 224 208 224 208 309 260 c 1,37,-1
 309 269 l 2,38,39
 309 306 309 306 300.5 358 c 128,-1,40
 292 410 292 410 279 410 c 128,-1,41
 266 410 266 410 223 379.5 c 128,-1,42
 180 349 180 349 173 336 c 1,43,0
 164 247 164 247 128 202 c 128,-1,1
EndSplineSet
Validated: 1
EndChar

StartChar: uni0A19
Encoding: 2585 2585 5
Width: 528
Flags: MW
LayerCount: 2
Fore
SplineSet
342 219 m 0,0,1
 342 262 342 262 314.5 289 c 128,-1,2
 287 316 287 316 244 316 c 2,3,-1
 20 316 l 1,4,-1
 20 503 l 1,5,-1
 -5 503 l 1,6,-1
 -5 599 l 1,7,-1
 580 599 l 1,8,-1
 580 503 l 1,9,-1
 132 503 l 1,10,-1
 132 430 l 1,11,-1
 268 430 l 2,12,13
 344 430 344 430 398 372 c 128,-1,14
 452 314 452 314 452 228 c 128,-1,15
 452 142 452 142 392 84 c 1,16,17
 403 73 403 73 420 0 c 1,18,-1
 318 0 l 1,19,20
 318 3 318 3 316 15 c 128,-1,21
 314 27 314 27 314 29 c 1,22,23
 254 0 254 0 188 0 c 128,-1,24
 122 0 122 0 71.5 37 c 128,-1,25
 21 74 21 74 21 134 c 128,-1,26
 21 194 21 194 67 226 c 0,27,28
 112 261 112 261 176 261 c 0,29,30
 262 261 262 261 332 179 c 1,31,32
 342 205 342 205 342 219 c 0,0,1
265 115 m 1,33,34
 226 162 226 162 183 162 c 0,35,36
 126 162 126 162 126 133 c 0,37,38
 126 96 126 96 183 96 c 0,39,40
 215 96 215 96 239 106 c 128,-1,41
 263 116 263 116 265 115 c 1,33,34
EndSplineSet
Validated: 1
EndChar

StartChar: uni0A3E
Encoding: 2622 2622 6
Width: 250
Flags: MW
LayerCount: 2
Fore
SplineSet
-2 503 m 1,0,-1
 -2 599 l 1,1,-1
 291 599 l 1,2,-1
 291 503 l 1,3,-1
 153 503 l 1,4,-1
 153 232 l 1,5,-1
 46 231 l 1,6,-1
 46 503 l 1,7,-1
 -2 503 l 1,0,-1
EndSplineSet
Validated: 1
EndChar

StartChar: uni0A72
Encoding: 2674 2674 7
Width: 534
Flags: MW
LayerCount: 2
Fore
SplineSet
274 7 m 2,0,-1
 268 7 l 1,1,2
 196 8 196 8 114 80 c 128,-1,3
 32 152 32 152 31 176 c 0,4,5
 32 200 32 200 64 252 c 128,-1,6
 96 304 96 304 141 330 c 1,7,8
 47 400 47 400 20 504 c 1,9,-1
 -5 503 l 1,10,-1
 -5 599 l 1,11,-1
 564 599 l 1,12,-1
 564 503 l 1,13,-1
 452 503 l 1,14,-1
 452 270 l 1,15,-1
 302 270 l 2,16,17
 200 270 200 270 168 187 c 1,18,19
 212 92 212 92 307 92 c 0,20,21
 346 92 346 92 386 119 c 128,-1,22
 426 146 426 146 430 146 c 0,23,24
 454 146 454 146 454 116 c 0,25,26
 454 93 454 93 390 50 c 128,-1,27
 326 7 326 7 274 7 c 2,0,-1
144 503 m 1,28,29
 154 443 154 443 249 378 c 1,30,-1
 342 378 l 1,31,-1
 342 503 l 1,32,-1
 144 503 l 1,28,29
EndSplineSet
Validated: 1
EndChar

StartChar: uni0A73
Encoding: 2675 2675 8
Width: 670
Flags: MW
LayerCount: 2
Fore
SplineSet
21 599 m 1,0,1
 38 722 38 722 112.5 799 c 128,-1,2
 187 876 187 876 309 876 c 0,3,4
 547 876 547 876 584 599 c 1,5,-1
 700 599 l 1,6,-1
 700 503 l 1,7,-1
 590 503 l 1,8,9
 587 327 587 327 469 269 c 1,10,11
 522 204 522 204 522 151 c 0,12,13
 522 80 522 80 471.5 39 c 128,-1,14
 421 -2 421 -2 343 -2 c 0,15,16
 204 -2 204 -2 112 126 c 0,17,18
 14 266 14 266 14 503 c 1,19,-1
 -6 503 l 1,20,-1
 -6 599 l 1,21,-1
 21 599 l 1,0,1
123 503 m 1,22,23
 122 491 122 491 122 479 c 128,-1,24
 122 467 122 467 123 457 c 2,25,-1
 124 423 l 1,26,27
 124 387 124 387 137 334 c 1,28,-1
 352 334 l 2,29,30
 487 334 487 334 487 503 c 1,31,-1
 123 503 l 1,22,23
413 153 m 0,32,33
 413 155 413 155 413 157 c 0,34,35
 413 189 413 189 375 212.5 c 128,-1,36
 337 236 337 236 298 236 c 2,37,-1
 168 236 l 1,38,39
 174 201 174 201 217 155 c 0,40,41
 274 94 274 94 343.5 94 c 128,-1,42
 413 94 413 94 413 153 c 0,32,33
133 599 m 1,43,-1
 482 599 l 1,44,45
 463 780 463 780 307 780 c 0,46,47
 166 780 166 780 133 599 c 1,43,-1
EndSplineSet
Validated: 1
EndChar

StartChar: uni0A74
Encoding: 2676 2676 9
Width: 1287
Flags: MW
LayerCount: 2
Fore
SplineSet
70 320 m 0,0,1
 3 365 3 365 3 438.5 c 128,-1,2
 3 512 3 512 63 553.5 c 128,-1,3
 123 595 123 595 209.5 595 c 128,-1,4
 296 595 296 595 363 544 c 0,5,6
 430 495 430 495 430 410 c 0,7,8
 430 383 430 383 418.5 277.5 c 128,-1,9
 407 172 407 172 407 133 c 128,-1,10
 407 94 407 94 425 75 c 0,11,12
 429 71 429 71 452.5 58.5 c 128,-1,13
 476 46 476 46 476 25 c 128,-1,14
 476 4 476 4 461 -1.5 c 128,-1,15
 446 -7 446 -7 414 -7 c 2,16,-1
 409 -7 l 2,17,18
 375 -7 375 -7 340 38 c 0,19,20
 307 83 307 83 307 148 c 0,21,22
 307 241 307 241 325 313 c 1,23,24
 268 275 268 275 220 275 c 0,25,26
 138 275 138 275 70 320 c 0,0,1
718 503 m 1,27,-1
 718 457 l 1,28,-1
 719 423 l 1,29,30
 719 387 719 387 732 334 c 1,31,-1
 947 334 l 2,32,33
 1082 334 1082 334 1082 503 c 1,34,-1
 718 503 l 1,27,-1
1008 157 m 0,35,36
 1008 197 1008 197 976 216.5 c 128,-1,37
 944 236 944 236 893 236 c 2,38,-1
 763 236 l 1,39,40
 769 201 769 201 812 155 c 0,41,42
 869 94 869 94 938.5 94 c 128,-1,43
 1008 94 1008 94 1008 157 c 0,35,36
137 484.5 m 128,-1,45
 103 467 103 467 103 435 c 128,-1,46
 103 403 103 403 137.5 385.5 c 128,-1,47
 172 368 172 368 212 368 c 128,-1,48
 252 368 252 368 286 386 c 128,-1,49
 320 404 320 404 335 430 c 1,50,51
 310 502 310 502 213 502 c 0,52,44
 171 502 171 502 137 484.5 c 128,-1,45
616 599 m 1,53,54
 636 733 636 733 716 805.5 c 128,-1,55
 796 878 796 878 937 878 c 0,56,57
 1061 878 1061 878 1148 753 c 1,58,59
 1291 994 1291 994 1409 1103 c 0,60,61
 1605 1285 1605 1285 1856 1285 c 0,62,63
 2020 1285 2020 1285 2110 1105 c 0,64,65
 2148 1030 2148 1030 2167 925 c 1,66,-1
 2070 925 l 1,67,68
 2057 1000 2057 1000 2031 1056 c 0,69,70
 1968 1187 1968 1187 1850 1187 c 0,71,72
 1632 1187 1632 1187 1432 977 c 0,73,74
 1312 851 1312 851 1219 674 c 1,75,-1
 1086 674 l 1,76,77
 1058 780 1058 780 920 780 c 0,78,79
 831 780 831 780 787.5 734 c 128,-1,80
 744 688 744 688 728 599 c 1,81,-1
 1283 599 l 1,82,-1
 1283 503 l 1,83,-1
 1185 503 l 1,84,85
 1182 323 1182 323 1064 265 c 1,86,87
 1117 200 1117 200 1117 149 c 0,88,89
 1117 78 1117 78 1066.5 38 c 128,-1,90
 1016 -2 1016 -2 938 -2 c 0,91,92
 799 -2 799 -2 707 126 c 0,93,94
 609 266 609 266 609 503 c 1,95,-1
 519 503 l 1,96,-1
 519 599 l 1,97,-1
 616 599 l 1,53,54
EndSplineSet
Validated: 1
EndChar

StartChar: uni0A75
Encoding: 2677 2677 10
Width: 10
Flags: MW
AnchorPoint: "yakash" -176 -30 mark 0
LayerCount: 2
Fore
SplineSet
-121 -175 m 1,0,1
 -75 -226 -75 -226 -34 -226 c 0,2,3
 -8 -226 -8 -226 -3 -214 c 1,4,-1
 -3 -108 l 1,5,-1
 117 -108 l 1,6,-1
 117 -167 l 1,7,-1
 73 -167 l 1,8,-1
 73 -263 l 1,9,10
 35 -292 35 -292 -17 -292 c 0,11,12
 -139 -292 -139 -292 -221 -163 c 1,13,14
 -166 -138 -166 -138 -166 -78 c 0,15,16
 -166 -54 -166 -54 -176 -30 c 1,17,-1
 -101 -30 l 1,18,19
 -89 -50 -89 -50 -89 -86 c 2,20,-1
 -89 -91 l 2,21,22
 -89 -117 -89 -117 -98.5 -142.5 c 128,-1,23
 -108 -168 -108 -168 -121 -175 c 1,0,1
EndSplineSet
Validated: 1
Substitution2: "'hist' Historical Forms in Gurmukhi lookup 8-1" _uni0A75
EndChar

StartChar: uni0A76
Encoding: 2678 2678 11
Width: 300
Flags: MW
LayerCount: 2
Fore
SplineSet
70 331 m 1,0,-1
 152 413 l 1,1,-1
 233 332 l 1,2,-1
 151 250 l 1,3,-1
 70 331 l 1,0,-1
EndSplineSet
Validated: 1
EndChar

StartChar: uni0A3F
Encoding: 2623 2623 13
Width: 250
Flags: MW
LayerCount: 2
Fore
SplineSet
-2 503 m 1,0,-1
 -2 599 l 1,1,-1
 33 599 l 1,2,-1
 33 679 l 2,3,4
 33 753 33 753 84 795 c 128,-1,5
 135 837 135 837 187 837 c 0,6,7
 311 837 311 837 368 729 c 1,8,-1
 288 678 l 1,9,10
 267 727 267 727 203 727 c 128,-1,11
 139 727 139 727 139 629 c 2,12,-1
 139 599 l 1,13,-1
 309 599 l 1,14,-1
 309 503 l 1,15,-1
 138 503 l 1,16,-1
 138 0 l 1,17,-1
 31 0 l 1,18,-1
 31 503 l 1,19,-1
 -2 503 l 1,0,-1
EndSplineSet
Validated: 1
EndChar

StartChar: uni0A40
Encoding: 2624 2624 15
Width: 250
Flags: MW
LayerCount: 2
Fore
SplineSet
164 503 m 1,0,-1
 164 -2 l 1,1,-1
 57 -3 l 1,2,-1
 57 503 l 1,3,-1
 -2 503 l 1,4,-1
 -2 599 l 1,5,-1
 56 599 l 1,6,-1
 56 665 l 2,7,8
 56 735 56 735 -8 735 c 0,9,10
 -61 735 -61 735 -85 670 c 1,11,-1
 -173 727 l 1,12,13
 -116 835 -116 835 8 835 c 0,14,15
 60 835 60 835 111 793 c 128,-1,16
 162 751 162 751 162 677 c 2,17,-1
 162 599 l 1,18,-1
 301 599 l 1,19,-1
 301 503 l 1,20,-1
 164 503 l 1,0,-1
EndSplineSet
Validated: 1
EndChar

StartChar: uni0A41
Encoding: 2625 2625 17
Width: 10
Flags: MW
LayerCount: 2
Fore
SplineSet
-513 -27 m 1,0,1
 -418 -57 -418 -57 -320 -57 c 128,-1,2
 -222 -57 -222 -57 -126 -27 c 1,3,-1
 -126 -107 l 1,4,5
 -212 -138 -212 -138 -314 -138 c 128,-1,6
 -416 -138 -416 -138 -513 -111 c 1,7,-1
 -513 -27 l 1,0,1
EndSplineSet
Validated: 1
EndChar

StartChar: uni0A42
Encoding: 2626 2626 19
Width: 10
Flags: MW
LayerCount: 2
Fore
SplineSet
-513 -27 m 1,0,1
 -418 -57 -418 -57 -320 -57 c 128,-1,2
 -222 -57 -222 -57 -126 -27 c 1,3,-1
 -126 -107 l 1,4,5
 -212 -138 -212 -138 -314 -138 c 128,-1,6
 -416 -138 -416 -138 -513 -111 c 1,7,-1
 -513 -27 l 1,0,1
-513 -153 m 1,8,9
 -418 -183 -418 -183 -320 -183 c 128,-1,10
 -222 -183 -222 -183 -126 -153 c 1,11,-1
 -126 -233 l 1,12,13
 -212 -264 -212 -264 -314 -264 c 128,-1,14
 -416 -264 -416 -264 -513 -237 c 1,15,-1
 -513 -153 l 1,8,9
EndSplineSet
Validated: 1
EndChar

StartChar: uni0A13
Encoding: 2579 2579 23
Width: 678
Flags: MW
LayerCount: 2
Fore
SplineSet
424 157 m 0,0,1
 424 197 424 197 392 216.5 c 128,-1,2
 360 236 360 236 309 236 c 2,3,-1
 179 236 l 1,4,5
 185 201 185 201 228 155 c 0,6,7
 284 94 284 94 354 94 c 128,-1,8
 424 94 424 94 424 157 c 0,0,1
134 503 m 1,9,-1
 134 457 l 1,10,-1
 135 423 l 1,11,12
 135 387 135 387 148 334 c 1,13,-1
 363 334 l 2,14,15
 498 334 498 334 498 503 c 1,16,-1
 134 503 l 1,9,-1
32 599 m 1,17,18
 49 722 49 722 123.5 799 c 128,-1,19
 198 876 198 876 320 876 c 2,20,-1
 551 876 l 1,21,-1
 551 779 l 1,22,23
 493 780 493 780 320 780 c 0,24,25
 177 780 177 780 144 599 c 1,26,-1
 709 599 l 1,27,-1
 709 503 l 1,28,-1
 601 503 l 1,29,30
 598 323 598 323 480 265 c 1,31,32
 533 200 533 200 533 149 c 0,33,34
 533 78 533 78 482.5 38 c 128,-1,35
 432 -2 432 -2 354 -2 c 0,36,37
 215 -2 215 -2 123 126 c 0,38,39
 25 266 25 266 25 503 c 1,40,-1
 -4 503 l 1,41,-1
 -4 599 l 1,42,-1
 32 599 l 1,17,18
EndSplineSet
Validated: 1
EndChar

StartChar: uni0A47
Encoding: 2631 2631 24
Width: 10
Flags: MW
LayerCount: 2
Fore
SplineSet
-527 806 m 0,0,1
 -527 840 -527 840 -502.5 850 c 128,-1,2
 -478 860 -478 860 -424 860 c 0,3,4
 -275 860 -275 860 -134 640 c 1,5,-1
 -170 640 l 1,6,7
 -262 756 -262 756 -362 756 c 1,8,-1
 -434 754 l 1,9,10
 -527 754 -527 754 -527 806 c 0,0,1
EndSplineSet
Validated: 1
EndChar

StartChar: uni0A48
Encoding: 2632 2632 25
Width: 10
Flags: MW
LayerCount: 2
Fore
SplineSet
-533 891 m 0,0,1
 -532 925 -532 925 -512.5 935 c 128,-1,2
 -493 945 -493 945 -447 945 c 0,3,4
 -335 945 -335 945 -216 792 c 0,5,6
 -166 728 -166 728 -120 639 c 1,7,-1
 -195 639 l 1,8,9
 -265 700 -265 700 -327 700 c 0,10,11
 -362 700 -362 700 -392 690 c 128,-1,12
 -422 680 -422 680 -433 680 c 2,13,-1
 -446 680 l 2,14,15
 -470 680 -470 680 -493 693 c 128,-1,16
 -516 706 -516 706 -516 723 c 0,17,18
 -516 774 -516 774 -436 774 c 0,19,20
 -340 774 -340 774 -234 713 c 1,21,-1
 -205 713 l 1,22,23
 -301 841 -301 841 -427 841 c 0,24,25
 -533 841 -533 841 -533 891 c 0,0,1
EndSplineSet
Validated: 1
EndChar

StartChar: uni0A4C
Encoding: 2636 2636 26
Width: 10
Flags: MW
LayerCount: 2
Fore
SplineSet
-160.5 771 m 128,-1,1
 -178 788 -178 788 -200 788 c 128,-1,2
 -222 788 -222 788 -239.5 771 c 128,-1,3
 -257 754 -257 754 -257 731 c 128,-1,4
 -257 708 -257 708 -244 694 c 0,5,6
 -232 678 -232 678 -232 677 c 0,7,8
 -232 653 -232 653 -257 653 c 0,9,10
 -271 653 -271 653 -293.5 684 c 128,-1,11
 -316 715 -316 715 -316 741 c 128,-1,12
 -316 767 -316 767 -312 782 c 1,13,14
 -328 770 -328 770 -360.5 770 c 128,-1,15
 -393 770 -393 770 -432 798 c 0,16,17
 -470 828 -470 828 -470 857 c 0,18,19
 -470 875 -470 875 -451 875 c 1,20,21
 -443 871 -443 871 -432.5 866 c 128,-1,22
 -422 861 -422 861 -412 856 c 0,23,24
 -375 836 -375 836 -335 836 c 128,-1,25
 -295 836 -295 836 -275 841 c 1,26,27
 -238 868 -238 868 -196.5 868 c 128,-1,28
 -155 868 -155 868 -119.5 835.5 c 128,-1,29
 -84 803 -84 803 -84 749 c 0,30,31
 -84 721 -84 721 -102 689.5 c 128,-1,32
 -120 658 -120 658 -142 658 c 128,-1,33
 -164 658 -164 658 -164 677 c 0,34,35
 -164 681 -164 681 -154 698 c 0,36,37
 -143 713 -143 713 -143 733.5 c 128,-1,0
 -143 754 -143 754 -160.5 771 c 128,-1,1
EndSplineSet
Validated: 1
EndChar

StartChar: uni0A15
Encoding: 2581 2581 27
Width: 630
Flags: MW
LayerCount: 2
Fore
SplineSet
385 345 m 1,0,1
 393 360 393 360 404 407.5 c 128,-1,2
 415 455 415 455 415 476.5 c 128,-1,3
 415 498 415 498 414 503 c 1,4,-1
 -1 503 l 1,5,-1
 -1 599 l 1,6,-1
 659 599 l 1,7,-1
 659 503 l 1,8,-1
 529 503 l 1,9,-1
 529 483 l 2,10,11
 529 345 529 345 464 232 c 1,12,13
 534 99 534 99 534 2 c 0,14,15
 534 1 534 1 534 -1 c 1,16,-1
 420 0 l 1,17,18
 407 107 407 107 387 139 c 1,19,20
 340 101 340 101 306 84 c 128,-1,21
 272 67 272 67 220 67 c 0,22,23
 136 67 136 67 74 113 c 0,24,25
 0 169 0 169 0 262 c 0,26,27
 0 328 0 328 54 382 c 0,28,29
 106 438 106 438 200.5 438 c 128,-1,30
 295 438 295 438 385 345 c 1,0,1
139 316 m 128,-1,32
 111 292 111 292 111 255 c 128,-1,33
 111 218 111 218 142.5 192 c 128,-1,34
 174 166 174 166 219 166 c 128,-1,35
 264 166 264 166 286 186 c 128,-1,36
 308 206 308 206 333 253 c 1,37,38
 278 340 278 340 203 340 c 0,39,31
 167 340 167 340 139 316 c 128,-1,32
EndSplineSet
Validated: 1
EndChar

StartChar: uni0A16
Encoding: 2582 2582 28
Width: 560
Flags: MW
LayerCount: 2
Fore
SplineSet
169 446 m 1,0,-1
 353 446 l 1,1,-1
 353 599 l 1,2,-1
 590 599 l 1,3,-1
 590 503 l 1,4,-1
 460 503 l 1,5,-1
 460 0 l 1,6,-1
 353 0 l 1,7,-1
 353 108 l 1,8,9
 306 80 306 80 227 80 c 0,10,11
 88 80 88 80 0 249 c 1,12,13
 66 326 66 326 66 433 c 0,14,15
 66 480 66 480 43 503 c 1,16,-1
 -5 503 l 1,17,-1
 -5 599 l 1,18,-1
 124 599 l 1,19,20
 169 501 169 501 169 452 c 2,21,-1
 169 446 l 1,0,-1
119 246 m 1,22,23
 150 182 150 182 225 182 c 0,24,25
 313 182 313 182 354 223 c 1,26,-1
 354 347 l 1,27,-1
 162 347 l 1,28,29
 152 298 152 298 119 246 c 1,22,23
EndSplineSet
Validated: 1
EndChar

StartChar: uni0A17
Encoding: 2583 2583 29
Width: 741
Flags: MW
LayerCount: 2
Fore
SplineSet
640 503 m 1,0,-1
 640 0 l 1,1,-1
 534 0 l 1,2,-1
 534 503 l 1,3,-1
 406 503 l 1,4,-1
 406 122 l 2,5,6
 406 1 406 1 252 1 c 0,7,8
 149 1 149 1 74 92 c 128,-1,9
 -1 183 -1 183 -1 305 c 0,10,11
 -1 306 -1 306 -1 308 c 0,12,13
 -1 351 -1 351 30 382 c 0,14,15
 62 414 62 414 89 415 c 1,16,-1
 300 415 l 1,17,-1
 300 503 l 1,18,-1
 -5 503 l 1,19,-1
 -5 599 l 1,20,-1
 772 599 l 1,21,-1
 772 503 l 1,22,-1
 640 503 l 1,0,-1
250 97 m 0,23,24
 271 97 271 97 284 108.5 c 128,-1,25
 297 120 297 120 299 138 c 1,26,-1
 299 311 l 1,27,-1
 158 311 l 2,28,29
 108 311 108 311 108 250 c 0,30,31
 108 206 108 206 156 152 c 128,-1,32
 204 98 204 98 250 97 c 0,23,24
EndSplineSet
Validated: 1
EndChar

StartChar: uni0A18
Encoding: 2584 2584 30
Width: 723
Flags: MW
LayerCount: 2
Fore
SplineSet
379 204 m 128,-1,1
 399 180 399 180 426.5 180 c 128,-1,2
 454 180 454 180 484.5 193.5 c 128,-1,3
 515 207 515 207 515 224 c 2,4,-1
 515 599 l 1,5,-1
 752 599 l 1,6,-1
 752 503 l 1,7,-1
 624 503 l 1,8,-1
 624 0 l 1,9,-1
 515 0 l 1,10,-1
 515 97 l 1,11,12
 474 73 474 73 431.5 73 c 128,-1,13
 389 73 389 73 359 95.5 c 128,-1,14
 329 118 329 118 319 137 c 1,15,-1
 280 104 l 1,16,17
 246 82 246 82 188 82 c 0,18,19
 61 82 61 82 -8 227 c 1,20,21
 52 324 52 324 52 433 c 0,22,23
 52 480 52 480 35 503 c 1,24,-1
 -5 503 l 1,25,-1
 -5 599 l 1,26,-1
 116 599 l 1,27,28
 163 513 163 513 163 428 c 0,29,30
 163 318 163 318 105 232 c 1,31,32
 141 184 141 184 187 184 c 0,33,34
 218 184 218 184 250 209.5 c 128,-1,35
 282 235 282 235 282 263 c 0,36,37
 282 266 282 266 265 341 c 128,-1,38
 248 416 248 416 248 438 c 0,39,40
 248 504 248 504 265.5 554.5 c 128,-1,41
 283 605 283 605 322 605 c 128,-1,42
 361 605 361 605 379.5 555.5 c 128,-1,43
 398 506 398 506 398 446.5 c 128,-1,44
 398 387 398 387 378.5 328.5 c 128,-1,45
 359 270 359 270 359 261 c 0,46,0
 359 228 359 228 379 204 c 128,-1,1
EndSplineSet
Validated: 1
EndChar

StartChar: uni0A1A
Encoding: 2586 2586 31
Width: 614
Flags: MW
LayerCount: 2
Fore
SplineSet
-7 259 m 1,0,-1
 -9 301 l 1,1,2
 -9 357 -9 357 21 396 c 128,-1,3
 51 435 51 435 97 443 c 0,4,5
 122 448 122 448 184 448 c 1,6,-1
 184 362 l 1,7,-1
 407 362 l 1,8,-1
 407 503 l 1,9,-1
 -2 503 l 1,10,-1
 -2 599 l 1,11,-1
 643 599 l 1,12,-1
 643 503 l 1,13,-1
 514 503 l 1,14,-1
 514 143 l 2,15,16
 514 -1 514 -1 354 -1 c 0,17,18
 352 -1 352 -1 351 -1 c 0,19,20
 277 -1 277 -1 216 46 c 0,21,22
 156 94 156 94 120 160 c 128,-1,23
 84 226 84 226 84 259 c 1,24,-1
 -7 259 l 1,0,-1
407 154 m 2,25,-1
 407 259 l 1,26,-1
 194 259 l 1,27,28
 194 216 194 216 241.5 158.5 c 128,-1,29
 289 101 289 101 356 101 c 0,30,31
 357 101 357 101 358 101 c 0,32,33
 407 101 407 101 407 154 c 2,25,-1
EndSplineSet
Validated: 1
EndChar

StartChar: uni0A1B
Encoding: 2587 2587 32
Width: 633
Flags: MW
AnchorPoint: "yakash" 285 -30 basechar 0
AnchorPoint: "pairin_rara" 285 -30 basechar 0
LayerCount: 2
Fore
SplineSet
-4 503 m 1,0,-1
 -4 599 l 1,1,-1
 662 599 l 1,2,-1
 662 503 l 1,3,-1
 533 503 l 1,4,-1
 533 351 l 1,5,-1
 173 351 l 2,6,7
 138 351 138 351 138 319 c 0,8,9
 138 290 138 290 184 290 c 2,10,-1
 413 290 l 2,11,12
 448 290 448 290 486 261 c 0,13,14
 533 223 533 223 533 165 c 0,15,16
 533 64 533 64 459 29 c 0,17,18
 398 0 398 0 263 0 c 128,-1,19
 128 0 128 0 73 28 c 0,20,21
 0 65 0 65 0 165 c 0,22,23
 0 209 0 209 27 231 c 0,24,25
 31 235 31 235 66 252 c 1,26,27
 47 270 47 270 36.5 287.5 c 128,-1,28
 26 305 26 305 26 339 c 0,29,30
 26 392 26 392 60 423 c 128,-1,31
 94 454 94 454 141 454 c 2,32,-1
 426 454 l 1,33,-1
 426 503 l 1,34,-1
 -4 503 l 1,0,-1
124.5 183.5 m 128,-1,36
 107 173 107 173 107 151.5 c 128,-1,37
 107 130 107 130 127.5 114.5 c 128,-1,38
 148 99 148 99 177 99 c 2,39,-1
 209 99 l 1,40,-1
 209 194 l 1,41,-1
 163 194 l 2,42,35
 142 194 142 194 124.5 183.5 c 128,-1,36
404 114.5 m 128,-1,44
 425 129 425 129 425 151 c 128,-1,45
 425 173 425 173 407.5 183.5 c 128,-1,46
 390 194 390 194 364 194 c 2,47,-1
 315 194 l 1,48,-1
 315 100 l 1,49,-1
 354 100 l 2,50,43
 383 100 383 100 404 114.5 c 128,-1,44
EndSplineSet
Validated: 1
EndChar

StartChar: uni0A1C
Encoding: 2588 2588 33
Width: 615
Flags: MW
LayerCount: 2
Fore
SplineSet
-4 503 m 1,0,-1
 -4 599 l 1,1,-1
 644 599 l 1,2,-1
 644 503 l 1,3,-1
 514 503 l 1,4,-1
 514 0 l 1,5,-1
 407 0 l 1,6,-1
 407 222 l 1,7,-1
 192 222 l 1,8,-1
 192 3 l 1,9,-1
 85 3 l 1,10,-1
 85 222 l 1,11,-1
 0 222 l 1,12,13
 -1 228 -1 228 -1 244 c 0,14,15
 -1 322 -1 322 42 364 c 0,16,17
 75 398 75 398 101 409 c 128,-1,18
 127 420 127 420 192 420 c 1,19,-1
 192 324 l 1,20,-1
 407 324 l 1,21,-1
 407 503 l 1,22,-1
 -4 503 l 1,0,-1
EndSplineSet
Validated: 1
EndChar

StartChar: uni0A1D
Encoding: 2589 2589 34
Width: 552
Flags: MW
LayerCount: 2
Fore
SplineSet
44 150 m 128,-1,1
 44 179 44 179 66.5 197.5 c 128,-1,2
 89 216 89 216 120 216 c 0,3,4
 173 216 173 216 196 166 c 1,5,-1
 236 168 l 1,6,7
 267 168 267 168 291.5 185.5 c 128,-1,8
 316 203 316 203 316 230 c 0,9,10
 316 286 316 286 246 286 c 2,11,-1
 54 286 l 1,12,-1
 2 386 l 1,13,-1
 100 386 l 1,14,-1
 24 503 l 1,15,-1
 -3 503 l 1,16,-1
 -3 599 l 1,17,-1
 581 599 l 1,18,-1
 581 503 l 1,19,-1
 452 503 l 1,20,21
 433 388 433 388 360 344 c 1,22,23
 416 305 416 305 416 226 c 0,24,25
 416 168 416 168 378.5 132.5 c 128,-1,26
 341 97 341 97 280 90 c 1,27,-1
 348 6 l 1,28,-1
 240 6 l 1,29,-1
 169 89 l 1,30,31
 148 74 148 74 124 74 c 0,32,33
 82 74 82 74 63 97.5 c 128,-1,0
 44 121 44 121 44 150 c 128,-1,1
152 503 m 1,34,35
 179 447 179 447 198 427 c 0,36,37
 224 396 224 396 262 396 c 128,-1,38
 300 396 300 396 316 428 c 0,39,40
 328 452 328 452 338 503 c 1,41,-1
 152 503 l 1,34,35
EndSplineSet
Validated: 1
EndChar

StartChar: uni0A1E
Encoding: 2590 2590 35
Width: 525
Flags: MW
LayerCount: 2
Fore
SplineSet
182 336 m 2,0,1
 154 336 154 336 143.5 328.5 c 128,-1,2
 133 321 133 321 133 297 c 0,3,4
 133 265 133 265 190 265 c 2,5,-1
 408 265 l 1,6,-1
 408 161 l 1,7,-1
 305 161 l 2,8,9
 270 161 270 161 270 135 c 0,10,11
 270 90 270 90 350 90 c 0,12,13
 377 90 377 90 401 101 c 1,14,-1
 401 11 l 1,15,16
 381 0 381 0 316 0 c 0,17,18
 182 0 182 0 149 152 c 1,19,-1
 141 152 l 2,20,21
 20 152 20 152 20 299 c 0,22,23
 20 412 20 412 98 432 c 1,24,-1
 24 503 l 1,25,-1
 -3 503 l 1,26,-1
 -3 599 l 1,27,-1
 555 599 l 1,28,-1
 555 503 l 1,29,-1
 445 503 l 1,30,-1
 445 336 l 1,31,-1
 182 336 l 2,0,1
157 503 m 1,32,-1
 214 441 l 1,33,-1
 338 441 l 1,34,-1
 338 503 l 1,35,-1
 157 503 l 1,32,-1
EndSplineSet
Validated: 1
EndChar

StartChar: uni0A1F
Encoding: 2591 2591 36
Width: 549
Flags: MW
AnchorPoint: "yakash" 201 -30 basechar 0
AnchorPoint: "pairin_rara" 201 -30 basechar 0
LayerCount: 2
Fore
SplineSet
404 154 m 0,0,1
 425 154 425 154 429.5 149 c 128,-1,2
 434 144 434 144 434 122 c 128,-1,3
 434 100 434 100 370 52 c 0,4,5
 304 7 304 7 248 7 c 128,-1,6
 192 7 192 7 137 48 c 0,7,8
 80 87 80 87 40 138 c 0,9,10
 -1 186 -1 186 -1 200 c 0,11,12
 0 214 0 214 56 272 c 128,-1,13
 112 330 112 330 182 373 c 128,-1,14
 252 416 252 416 312 416 c 2,15,-1
 322 416 l 1,16,-1
 322 503 l 1,17,-1
 -3 503 l 1,18,-1
 -3 599 l 1,19,-1
 579 599 l 1,20,-1
 579 503 l 1,21,-1
 448 503 l 1,22,-1
 448 329 l 1,23,24
 353 326 353 326 276 297 c 128,-1,25
 199 268 199 268 128 183 c 1,26,27
 214 96 214 96 271 96 c 0,28,29
 310 96 310 96 356 125 c 128,-1,30
 402 154 402 154 404 154 c 0,0,1
EndSplineSet
Validated: 1
EndChar

StartChar: uni0A20
Encoding: 2592 2592 37
Width: 621
Flags: MW
LayerCount: 2
Fore
SplineSet
519 195 m 0,0,1
 519 97 519 97 449 45.5 c 128,-1,2
 379 -6 379 -6 266 -6 c 0,3,4
 -1 -6 -1 -6 -1 195 c 0,5,6
 -1 261 -1 261 64 324 c 0,7,8
 131 385 131 385 202 386 c 1,9,-1
 202 503 l 1,10,-1
 -4 503 l 1,11,-1
 -4 599 l 1,12,-1
 647 599 l 1,13,-1
 647 503 l 1,14,-1
 316 503 l 1,15,-1
 316 386 l 1,16,17
 386 386 386 386 452 324 c 128,-1,18
 518 262 518 262 519 195 c 0,0,1
264 85 m 0,19,20
 267 85 267 85 269 85 c 0,21,22
 331 85 331 85 371 108 c 0,23,24
 413 132 413 132 413 184 c 128,-1,25
 413 236 413 236 365 266 c 0,26,27
 316 296 316 296 258 296 c 128,-1,28
 200 296 200 296 157 269 c 0,29,30
 105 238 105 238 105 179 c 0,31,32
 105 85 105 85 264 85 c 0,19,20
EndSplineSet
Validated: 1
EndChar

StartChar: uni0A21
Encoding: 2593 2593 38
Width: 591
Flags: MW
AnchorPoint: "yakash" 243 -30 basechar 0
LayerCount: 2
Fore
SplineSet
68 318.5 m 128,-1,1
 31 339 31 339 31 368 c 128,-1,2
 31 397 31 397 68.5 416 c 128,-1,3
 106 435 106 435 144.5 435 c 128,-1,4
 183 435 183 435 224 419 c 128,-1,5
 265 403 265 403 289 403 c 0,6,7
 317 403 317 403 344 440 c 0,8,9
 370 475 370 475 370 498 c 0,10,11
 370 501 370 501 370 503 c 1,12,-1
 1 503 l 1,13,-1
 1 599 l 1,14,-1
 622 599 l 1,15,-1
 622 503 l 1,16,-1
 488 503 l 1,17,18
 483 407 483 407 397 364 c 1,19,20
 416 363 416 363 446 320.5 c 128,-1,21
 476 278 476 278 476 228 c 0,22,23
 476 122 476 122 380 58 c 0,24,25
 298 3 298 3 204 3 c 128,-1,26
 110 3 110 3 55 45 c 0,27,28
 1 87 1 87 1 143.5 c 128,-1,29
 1 200 1 200 51.5 234 c 128,-1,30
 102 268 102 268 180.5 268 c 128,-1,31
 259 268 259 268 351 188 c 1,32,33
 363 198 363 198 363 233 c 128,-1,34
 363 268 363 268 336.5 292 c 128,-1,35
 310 316 310 316 287 316 c 0,36,37
 247 316 247 316 219.5 307 c 128,-1,38
 192 298 192 298 148.5 298 c 128,-1,0
 105 298 105 298 68 318.5 c 128,-1,1
113 138 m 0,39,40
 113 122 113 122 134.5 111.5 c 128,-1,41
 156 101 156 101 178 101 c 0,42,43
 228 101 228 101 269 127 c 1,44,45
 225 172 225 172 169.5 172 c 128,-1,46
 114 172 114 172 113 138 c 0,39,40
EndSplineSet
Validated: 1048577
EndChar

StartChar: uni0A22
Encoding: 2594 2594 39
Width: 640
Flags: MW
LayerCount: 2
Fore
SplineSet
408 0 m 0,0,1
 269 0 269 0 185.5 79.5 c 128,-1,2
 102 159 102 159 73 293 c 1,3,-1
 -2 293 l 1,4,5
 -3 302 -3 302 -3 318 c 0,6,7
 -1 398 -1 398 41 432 c 0,8,9
 84 466 84 466 155 466 c 0,10,11
 172 466 172 466 185 465 c 1,12,-1
 185 398 l 1,13,-1
 417 398 l 1,14,-1
 417 503 l 1,15,-1
 -1 503 l 1,16,-1
 -1 599 l 1,17,-1
 669 599 l 1,18,-1
 669 503 l 1,19,-1
 524 503 l 1,20,-1
 524 295 l 1,21,-1
 187 295 l 1,22,23
 190 250 190 250 214 206 c 128,-1,24
 238 162 238 162 255 157 c 1,25,26
 333 242 333 242 432 242 c 0,27,28
 485 242 485 242 519 209 c 128,-1,29
 553 176 553 176 553 122 c 128,-1,30
 553 68 553 68 511.5 34 c 128,-1,31
 470 0 470 0 408 0 c 0,0,1
410 81 m 0,32,33
 432 81 432 81 449 92 c 128,-1,34
 466 103 466 103 466 121 c 0,35,36
 466 153 466 153 411 153 c 0,37,38
 385 153 385 153 355 129 c 1,39,-1
 323 99 l 1,40,41
 348 81 348 81 410 81 c 0,32,33
EndSplineSet
Validated: 1
EndChar

StartChar: uni0A23
Encoding: 2595 2595 40
Width: 678
Flags: MW
LayerCount: 2
Fore
SplineSet
414 314 m 1,0,-1
 417 265 l 2,1,2
 417 264 417 264 417 262 c 0,3,4
 417 233 417 233 396 233 c 0,5,6
 374 234 374 234 330 266 c 128,-1,7
 286 298 286 298 249.5 298 c 128,-1,8
 213 298 213 298 175 266 c 0,9,10
 138 233 138 233 138 216 c 0,11,12
 138 180 138 180 220 137 c 0,13,14
 304 95 304 95 358 95 c 128,-1,15
 412 95 412 95 482 126 c 1,16,-1
 549 157 l 1,17,18
 570 157 570 157 570 139 c 0,19,20
 570 95 570 95 484 50 c 0,21,22
 396 6 396 6 318 6 c 0,23,24
 214 6 214 6 107.5 81 c 128,-1,25
 1 156 1 156 1 214 c 0,26,27
 2 272 2 272 86 350 c 128,-1,28
 170 428 170 428 244 428 c 0,29,30
 282 428 282 428 295 416 c 128,-1,31
 308 404 308 404 321 403 c 0,32,33
 325 403 325 403 325 419 c 2,34,-1
 325 440 l 1,35,36
 273 478 273 478 245 503 c 1,37,-1
 -4 503 l 1,38,-1
 -4 599 l 1,39,-1
 707 599 l 1,40,-1
 707 503 l 1,41,-1
 414 503 l 1,42,43
 496 436 496 436 574 409 c 1,44,-1
 552 312 l 1,45,46
 496 335 496 335 430 371 c 1,47,48
 414 338 414 338 414 314 c 1,0,-1
EndSplineSet
Validated: 1
EndChar

StartChar: uni0A24
Encoding: 2596 2596 41
Width: 645
Flags: MW
AnchorPoint: "yakash" 297 -30 basechar 0
AnchorPoint: "pairin_rara" 297 -30 basechar 0
LayerCount: 2
Fore
SplineSet
394 239.5 m 128,-1,1
 367 259 367 259 340.5 259 c 128,-1,2
 314 259 314 259 269 250.5 c 128,-1,3
 224 242 224 242 201 242 c 0,4,5
 54 242 54 242 54 321 c 0,6,7
 54 390 54 390 196 390 c 0,8,9
 241 390 241 390 285 371 c 128,-1,10
 329 352 329 352 348 352 c 0,11,12
 381 352 381 352 404.5 391.5 c 128,-1,13
 428 431 428 431 428 462 c 128,-1,14
 428 493 428 493 418 503 c 1,15,-1
 -4 503 l 1,16,-1
 -4 599 l 1,17,-1
 674 599 l 1,18,-1
 674 503 l 1,19,-1
 544 503 l 1,20,21
 546 485 546 485 546 476 c 0,22,23
 546 415 546 415 512 366 c 0,24,25
 476 317 476 317 452 304 c 1,26,27
 470 302 470 302 500 266 c 0,28,29
 532 231 532 231 532 195 c 0,30,31
 532 89 532 89 477 42 c 128,-1,32
 422 -5 422 -5 315.5 -5 c 128,-1,33
 209 -5 209 -5 140 28 c 0,34,35
 71 64 71 64 36.5 106 c 128,-1,36
 2 148 2 148 2 167 c 128,-1,37
 2 186 2 186 5.5 190 c 128,-1,38
 9 194 9 194 23 194 c 128,-1,39
 37 194 37 194 71 163 c 0,40,41
 153 87 153 87 281 87 c 0,42,43
 421 87 421 87 421 193 c 0,44,0
 421 220 421 220 394 239.5 c 128,-1,1
EndSplineSet
Validated: 1
EndChar

StartChar: uni0A25
Encoding: 2597 2597 42
Width: 560
Flags: MW
LayerCount: 2
Fore
SplineSet
596 599 m 1,0,-1
 596 503 l 1,1,-1
 460 503 l 1,2,-1
 460 0 l 1,3,-1
 353 0 l 1,4,-1
 353 107 l 1,5,6
 305 80 305 80 227 80 c 0,7,8
 91 80 91 80 0 249 c 1,9,10
 66 326 66 326 66 433 c 0,11,12
 66 480 66 480 43 503 c 1,13,-1
 -3 503 l 1,14,-1
 -3 599 l 1,15,-1
 596 599 l 1,0,-1
169 405 m 1,16,-1
 354 405 l 1,17,-1
 354 503 l 1,18,-1
 162 503 l 1,19,20
 169 482 169 482 169 447 c 2,21,-1
 169 405 l 1,16,-1
151 312 m 1,22,23
 146 292 146 292 119 246 c 1,24,25
 150 182 150 182 229 182 c 128,-1,26
 308 182 308 182 354 224 c 1,27,-1
 354 312 l 1,28,-1
 151 312 l 1,22,23
EndSplineSet
Validated: 1
EndChar

StartChar: uni0A26
Encoding: 2598 2598 43
Width: 635
Flags: MW
AnchorPoint: "yakash" 287 -30 basechar 0
AnchorPoint: "pairin_rara" 287 -30 basechar 0
LayerCount: 2
Fore
SplineSet
139 443 m 1,0,-1
 194 439 l 1,1,-1
 194 338 l 1,2,-1
 428 338 l 1,3,-1
 428 503 l 1,4,-1
 -4 503 l 1,5,-1
 -4 599 l 1,6,-1
 665 599 l 1,7,-1
 665 503 l 1,8,-1
 535 503 l 1,9,-1
 535 235 l 1,10,-1
 189 235 l 1,11,12
 201 171 201 171 219 141 c 0,13,14
 262 71 262 71 358 71 c 0,15,16
 412 71 412 71 462 92 c 0,17,18
 507 111 507 111 507 113 c 0,19,20
 507 113 507 113 507 113 c 1,21,22
 525 113 525 113 525 100 c 0,23,24
 525 80 525 80 476 46 c 0,25,26
 411 -1 411 -1 329 -1 c 128,-1,27
 247 -1 247 -1 180 39 c 128,-1,28
 113 79 113 79 93 135 c 0,29,30
 82 169 82 169 76 233 c 1,31,-1
 18 233 l 1,32,33
 11 234 11 234 3 258 c 128,-1,34
 -5 282 -5 282 -5 314 c 128,-1,35
 -5 346 -5 346 13 372 c 0,36,37
 61 443 61 443 139 443 c 1,0,-1
EndSplineSet
Validated: 1
EndChar

StartChar: uni0A27
Encoding: 2599 2599 44
Width: 560
Flags: MW
LayerCount: 2
Fore
SplineSet
590 599 m 1,0,-1
 590 503 l 1,1,-1
 460 503 l 1,2,-1
 460 0 l 1,3,-1
 353 0 l 1,4,-1
 353 107 l 1,5,6
 305 80 305 80 227 80 c 0,7,8
 91 80 91 80 0 249 c 1,9,10
 66 326 66 326 66 433 c 0,11,12
 66 480 66 480 43 503 c 1,13,-1
 -3 503 l 1,14,-1
 -3 599 l 1,15,-1
 590 599 l 1,0,-1
119 246 m 1,16,17
 150 182 150 182 229 182 c 128,-1,18
 308 182 308 182 354 224 c 1,19,-1
 354 503 l 1,20,-1
 162 503 l 1,21,22
 169 475 169 475 169 424 c 0,23,24
 169 323 169 323 119 246 c 1,16,17
EndSplineSet
Validated: 1
EndChar

StartChar: uni0A28
Encoding: 2600 2600 45
Width: 618
Flags: MW
AnchorPoint: "yakash" 270 -30 basechar 0
LayerCount: 2
Fore
SplineSet
-4 503 m 1,0,-1
 -4 599 l 1,1,-1
 662 599 l 1,2,-1
 662 503 l 1,3,-1
 316 503 l 1,4,-1
 316 386 l 1,5,6
 386 386 386 386 452 324 c 128,-1,7
 518 262 518 262 519 195 c 0,8,9
 519 94 519 94 443 39 c 0,10,11
 390 0 390 0 342 0 c 1,12,-1
 342 93 l 1,13,14
 413 104 413 104 413 179 c 0,15,16
 413 235 413 235 353 269 c 0,17,18
 306 296 306 296 260 296 c 128,-1,19
 214 296 214 296 166 269 c 0,20,21
 105 235 105 235 105 179 c 0,22,23
 105 103 105 103 178 91 c 1,24,-1
 178 0 l 1,25,26
 126 0 126 0 74 39 c 0,27,28
 -1 93 -1 93 -1 195 c 0,29,30
 0 262 0 262 66 324 c 128,-1,31
 132 386 132 386 202 386 c 1,32,-1
 202 503 l 1,33,-1
 -4 503 l 1,0,-1
EndSplineSet
Validated: 1048577
EndChar

StartChar: uni0A2A
Encoding: 2602 2602 46
Width: 556
Flags: MW
LayerCount: 2
Fore
SplineSet
119 246 m 1,0,1
 154 178 154 178 204.5 178 c 128,-1,2
 255 178 255 178 295 190 c 128,-1,3
 335 202 335 202 350 224 c 1,4,-1
 350 599 l 1,5,-1
 587 599 l 1,6,-1
 587 503 l 1,7,-1
 457 503 l 1,8,-1
 457 0 l 1,9,-1
 350 0 l 1,10,-1
 350 112 l 1,11,12
 305 76 305 76 227 76 c 0,13,14
 89 76 89 76 0 249 c 1,15,16
 66 326 66 326 66 433 c 0,17,18
 66 480 66 480 43 503 c 1,19,-1
 -4 503 l 1,20,-1
 -4 599 l 1,21,-1
 124 599 l 1,22,23
 171 513 171 513 171 415 c 128,-1,24
 171 317 171 317 119 246 c 1,0,1
EndSplineSet
Validated: 1
EndChar

StartChar: uni0A2B
Encoding: 2603 2603 47
Width: 525
Flags: MW
LayerCount: 2
Fore
SplineSet
426 134 m 128,-1,1
 426 75 426 75 383 37.5 c 128,-1,2
 340 0 340 0 277 0 c 0,3,4
 165 0 165 0 82.5 91.5 c 128,-1,5
 0 183 0 183 0 301 c 0,6,7
 0 366 0 366 37.5 412.5 c 128,-1,8
 75 459 75 459 141 459 c 2,9,-1
 319 459 l 1,10,-1
 319 503 l 1,11,-1
 -4 503 l 1,12,-1
 -4 599 l 1,13,-1
 555 599 l 1,14,-1
 555 503 l 1,15,-1
 425 503 l 1,16,-1
 425 350 l 1,17,-1
 187 350 l 2,18,19
 101 350 101 350 101 277 c 0,20,21
 101 262 101 262 109 238.5 c 128,-1,22
 117 215 117 215 125 208 c 1,23,24
 220 272 220 272 282.5 272 c 128,-1,25
 345 272 345 272 385.5 232.5 c 128,-1,0
 426 193 426 193 426 134 c 128,-1,1
177 138 m 1,26,27
 181 129 181 129 217 110.5 c 128,-1,28
 253 92 253 92 272.5 92 c 128,-1,29
 292 92 292 92 309.5 106 c 128,-1,30
 327 120 327 120 327 136 c 0,31,32
 327 179 327 179 272 179 c 0,33,34
 256 179 256 179 222 163.5 c 128,-1,35
 188 148 188 148 177 138 c 1,26,27
EndSplineSet
Validated: 1
EndChar

StartChar: uni0A2C
Encoding: 2604 2604 48
Width: 532
Flags: MW
LayerCount: 2
Fore
SplineSet
145 330 m 1,0,1
 93 368 93 368 72.5 397 c 128,-1,2
 52 426 52 426 27 503 c 1,3,-1
 -4 503 l 1,4,-1
 -4 599 l 1,5,-1
 562 599 l 1,6,-1
 562 503 l 1,7,-1
 452 503 l 1,8,-1
 452 0 l 1,9,-1
 345 0 l 1,10,-1
 345 85 l 1,11,12
 307 62 307 62 242 62 c 128,-1,13
 177 62 177 62 110 118 c 0,14,15
 44 176 44 176 28 213 c 1,16,17
 88 302 88 302 145 330 c 1,0,1
200.5 178 m 128,-1,19
 226 160 226 160 252.5 160 c 128,-1,20
 279 160 279 160 307.5 168 c 128,-1,21
 336 176 336 176 346 186 c 1,22,-1
 346 274 l 1,23,-1
 272 274 l 2,24,25
 207 274 207 274 168 220 c 1,26,18
 175 196 175 196 200.5 178 c 128,-1,19
346 503 m 1,27,-1
 146 503 l 1,28,29
 151 471 151 471 174 438 c 0,30,31
 214 380 214 380 291 380 c 2,32,-1
 345 380 l 1,33,-1
 346 503 l 1,27,-1
EndSplineSet
Validated: 1
EndChar

StartChar: uni0A2D
Encoding: 2605 2605 49
Width: 536
Flags: MW
AnchorPoint: "yakash" 188 -30 basechar 0
AnchorPoint: "pairin_rara" 188 -30 basechar 0
LayerCount: 2
Fore
SplineSet
0 109 m 0,0,1
 0 125 0 125 5 130.5 c 128,-1,2
 10 136 10 136 26 136 c 128,-1,3
 42 136 42 136 98 108 c 128,-1,4
 154 80 154 80 206 80 c 128,-1,5
 258 80 258 80 294 110 c 128,-1,6
 330 140 330 140 331 208 c 0,7,8
 331 226 331 226 315 246 c 1,9,10
 238 190 238 190 166 190 c 0,11,12
 121 190 121 190 79 210 c 0,13,14
 10 244 10 244 10 326 c 0,15,16
 10 382 10 382 54 416 c 128,-1,17
 98 450 98 450 155.5 450 c 128,-1,18
 213 450 213 450 262 424 c 1,19,-1
 308 394 l 1,20,21
 323 428 323 428 323 466 c 0,22,23
 323 503 323 503 320 503 c 0,24,25
 320 503 320 503 0 503 c 1,26,-1
 0 599 l 1,27,-1
 566 599 l 1,28,-1
 566 503 l 1,29,-1
 434 503 l 1,30,31
 435 494 435 494 435 478 c 0,32,33
 435 393 435 393 385 325 c 1,34,-1
 409 277 l 1,35,36
 424 241 424 241 424 200 c 0,37,38
 424 125 424 125 368 64 c 0,39,40
 311 4 311 4 225 4 c 128,-1,41
 139 4 139 4 69 36 c 0,42,43
 0 69 0 69 0 109 c 0,0,1
102 319 m 0,44,45
 102 303 102 303 112 295 c 128,-1,46
 122 287 122 287 135 285.5 c 128,-1,47
 148 284 148 284 178 284 c 128,-1,48
 208 284 208 284 256 319 c 1,49,50
 204 351 204 351 172 351 c 0,51,52
 102 351 102 351 102 319 c 0,44,45
EndSplineSet
Validated: 1
EndChar

StartChar: uni0A2E
Encoding: 2606 2606 50
Width: 549
Flags: MW
LayerCount: 2
Fore
SplineSet
149 448 m 0,0,1
 157 419 157 419 165 343 c 1,2,-1
 335 343 l 1,3,-1
 335 599 l 1,4,-1
 578 599 l 1,5,-1
 578 503 l 1,6,-1
 447 503 l 1,7,-1
 447 0 l 1,8,-1
 335 0 l 1,9,-1
 335 242 l 1,10,-1
 166 242 l 1,11,-1
 166 224 l 2,12,13
 166 152 166 152 144 92 c 128,-1,14
 122 32 122 32 75 31 c 1,15,-1
 73 31 l 2,16,17
 -1 31 -1 31 -1 99 c 0,18,19
 -1 100 -1 100 30 176 c 0,20,21
 62 247 62 247 62 336 c 128,-1,22
 62 425 62 425 31 503 c 1,23,-1
 -3 503 l 1,24,-1
 -3 599 l 1,25,-1
 99 599 l 1,26,27
 110 570 110 570 149 448 c 0,0,1
EndSplineSet
Validated: 1
EndChar

StartChar: uni0A2F
Encoding: 2607 2607 51
Width: 654
Flags: MW
LayerCount: 2
Fore
SplineSet
29 301 m 1,0,1
 56 354 56 354 56 403 c 128,-1,2
 56 452 56 452 43 503 c 1,3,-1
 -4 503 l 1,4,-1
 -4 599 l 1,5,-1
 684 599 l 1,6,-1
 684 503 l 1,7,-1
 554 503 l 1,8,-1
 554 -1 l 1,9,-1
 447 -1 l 1,10,-1
 447 257 l 1,11,-1
 365 257 l 1,12,-1
 365 173 l 1,13,14
 365 172 365 172 365 170 c 0,15,16
 365 132 365 132 340 112 c 0,17,18
 314 91 314 91 287 91 c 0,19,20
 202 91 202 91 168 103 c 0,21,22
 77 135 77 135 -1 249 c 1,23,-1
 29 301 l 1,0,1
146 503 m 1,24,25
 161 466 161 466 161 386 c 128,-1,26
 161 306 161 306 113 254 c 1,27,28
 133 222 133 222 167 205 c 128,-1,29
 201 188 201 188 224 188 c 0,30,31
 270 188 270 188 270 203 c 2,32,-1
 270 364 l 1,33,-1
 447 364 l 1,34,-1
 447 503 l 1,35,-1
 146 503 l 1,24,25
EndSplineSet
Validated: 1
EndChar

StartChar: uni0A30
Encoding: 2608 2608 52
Width: 534
Flags: MW
LayerCount: 2
Fore
SplineSet
280 1 m 0,0,1
 278 1 278 1 276 1 c 0,2,3
 177 1 177 1 88.5 88.5 c 128,-1,4
 0 176 0 176 -1 284 c 0,5,6
 -1 332 -1 332 28 358 c 128,-1,7
 57 384 57 384 87 384 c 2,8,-1
 328 384 l 1,9,-1
 328 503 l 1,10,-1
 -3 503 l 1,11,-1
 -3 599 l 1,12,-1
 564 599 l 1,13,-1
 564 503 l 1,14,-1
 434 503 l 1,15,-1
 434 127 l 2,16,17
 434 57 434 57 397 29 c 128,-1,18
 360 1 360 1 280 1 c 0,0,1
154 280 m 2,19,20
 124 280 124 280 124 249 c 0,21,22
 124 190 124 190 175 148 c 128,-1,23
 226 106 226 106 306 106 c 0,24,25
 328 106 328 106 328 133 c 2,26,-1
 328 280 l 1,27,-1
 154 280 l 2,19,20
EndSplineSet
Validated: 1
EndChar

StartChar: uni0A32
Encoding: 2610 2610 53
Width: 670
Flags: MW
AnchorPoint: "yakash" 322 -30 basechar 0
LayerCount: 2
Fore
SplineSet
215 1 m 1,0,1
 117 1 117 1 59.5 59 c 128,-1,2
 2 117 2 117 2 215 c 0,3,4
 2 278 2 278 50 328 c 0,5,6
 101 379 101 379 147 380 c 1,7,8
 107 430 107 430 101 503 c 1,9,-1
 -4 503 l 1,10,-1
 -4 599 l 1,11,-1
 716 599 l 5,12,-1
 716 503 l 1,13,-1
 487 503 l 1,14,15
 471 418 471 418 441 380 c 1,16,17
 487 379 487 379 538 328 c 0,18,19
 586 278 586 278 586 215 c 0,20,21
 586 107 586 107 516 49 c 0,22,23
 458 1 458 1 375 1 c 1,24,-1
 375 94 l 1,25,26
 399 94 399 94 425 110 c 0,27,28
 470 136 470 136 470 193 c 0,29,30
 470 286 470 286 400 286 c 0,31,32
 366 286 366 286 347 259 c 0,33,34
 345 256 345 256 323 209 c 0,35,36
 312 182 312 182 294 182 c 128,-1,37
 276 182 276 182 264 209 c 0,38,39
 258 222 258 222 252.5 234.5 c 128,-1,40
 247 247 247 247 244 252.5 c 128,-1,41
 241 258 241 258 241 259 c 0,42,43
 222 286 222 286 188 286 c 0,44,45
 118 286 118 286 118 193 c 0,46,47
 118 136 118 136 165 110 c 0,48,49
 191 94 191 94 215 94 c 1,50,-1
 215 1 l 1,0,1
292 361 m 0,51,52
 343 361 343 361 364 503 c 1,53,-1
 329 504 l 1,54,-1
 302 504 l 2,55,56
 255 504 255 504 224 503 c 1,57,58
 228 449 228 449 250 405 c 128,-1,59
 272 361 272 361 292 361 c 0,51,52
EndSplineSet
Validated: 1048577
EndChar

StartChar: uni0A33
Encoding: 2611 2611 54
Width: 805
Flags: MW
AnchorPoint: "yakash" 457 -30 basechar 0
LayerCount: 2
Fore
SplineSet
0 68 m 128,-1,1
 0 96 0 96 20 117 c 128,-1,2
 40 138 40 138 68 138 c 128,-1,3
 96 138 96 138 117 118 c 128,-1,4
 138 98 138 98 138 70 c 128,-1,5
 138 42 138 42 118 21 c 128,-1,6
 98 0 98 0 70 0 c 128,-1,7
 42 0 42 0 21 20 c 128,-1,0
 0 40 0 40 0 68 c 128,-1,1
350 1 m 1,8,9
 252 1 252 1 194.5 59 c 128,-1,10
 137 117 137 117 137 215 c 0,11,12
 137 280 137 280 185 328 c 0,13,14
 236 379 236 379 282 380 c 1,15,16
 242 430 242 430 236 503 c 1,17,-1
 -4 503 l 1,18,-1
 -4 599 l 1,19,-1
 851 599 l 1,20,-1
 851 503 l 1,21,-1
 622 503 l 1,22,23
 606 418 606 418 576 380 c 1,24,25
 624 379 624 379 673 328 c 0,26,27
 721 278 721 278 721 215 c 0,28,29
 721 107 721 107 651 49 c 0,30,31
 593 1 593 1 510 1 c 1,32,-1
 510 94 l 1,33,34
 534 94 534 94 560 110 c 0,35,36
 605 136 605 136 605 193 c 0,37,38
 605 286 605 286 535 286 c 0,39,40
 499 286 499 286 482 259 c 0,41,42
 473 245 473 245 458 209 c 0,43,44
 447 182 447 182 429 182 c 128,-1,45
 411 182 411 182 399 209 c 0,46,47
 393 222 393 222 387.5 234.5 c 128,-1,48
 382 247 382 247 379 252.5 c 128,-1,49
 376 258 376 258 376 259 c 0,50,51
 357 286 357 286 323 286 c 0,52,53
 253 286 253 286 253 193 c 0,54,55
 253 139 253 139 300 110 c 0,56,57
 326 94 326 94 350 94 c 1,58,-1
 350 1 l 1,8,9
427 361 m 0,59,60
 478 361 478 361 499 503 c 1,61,-1
 464 504 l 1,62,-1
 437 504 l 2,63,64
 390 504 390 504 359 503 c 1,65,66
 363 449 363 449 385 405 c 128,-1,67
 407 361 407 361 427 361 c 0,59,60
EndSplineSet
Validated: 1048577
LCarets2: 1 0
Ligature2: "'nukt' Nukta Forms in Gurmukhi lookup 7 subtable" uni0A32 uni0A3C
EndChar

StartChar: uni0A35
Encoding: 2613 2613 55
Width: 634
Flags: MW
LayerCount: 2
Fore
SplineSet
45 193 m 128,-1,1
 0 232 0 232 0 310 c 128,-1,2
 0 388 0 388 44 419.5 c 128,-1,3
 88 451 88 451 176 451 c 2,4,-1
 427 451 l 1,5,-1
 427 503 l 1,6,-1
 0 503 l 1,7,-1
 0 599 l 1,8,-1
 664 599 l 1,9,-1
 664 503 l 1,10,-1
 534 503 l 1,11,-1
 534 344 l 1,12,-1
 178 344 l 2,13,14
 99 344 99 344 99 304 c 0,15,16
 99 286 99 286 112.5 277 c 128,-1,17
 126 268 126 268 141 266.5 c 128,-1,18
 156 265 156 265 186 265 c 2,19,-1
 515 265 l 1,20,-1
 515 161 l 1,21,-1
 295 161 l 2,22,23
 279 161 279 161 279 148 c 0,24,25
 279 126 279 126 324.5 107.5 c 128,-1,26
 370 89 370 89 403.5 89 c 128,-1,27
 437 89 437 89 474.5 98.5 c 128,-1,28
 512 108 512 108 527 123 c 1,29,-1
 504 21 l 1,30,31
 452 0 452 0 405 0 c 0,32,33
 316 0 316 0 241.5 49.5 c 128,-1,34
 167 99 167 99 156 154 c 1,35,-1
 150 154 l 2,36,0
 90 154 90 154 45 193 c 128,-1,1
EndSplineSet
Validated: 1
EndChar

StartChar: uni0A36
Encoding: 2614 2614 56
Width: 571
Flags: MW
LayerCount: 2
Fore
SplineSet
601 599 m 1,0,-1
 601 503 l 1,1,-1
 491 503 l 1,2,-1
 491 0 l 1,3,-1
 379 0 l 1,4,-1
 379 242 l 1,5,-1
 186 242 l 1,6,-1
 186 224 l 2,7,8
 186 152 186 152 164 91.5 c 128,-1,9
 142 31 142 31 95 31 c 2,10,-1
 93 31 l 2,11,12
 19 31 19 31 19 99 c 0,13,14
 19 100 19 100 50 176 c 0,15,16
 82 247 82 247 82 321 c 0,17,18
 82 423 82 423 23 503 c 1,19,-1
 -3 503 l 1,20,-1
 -3 599 l 1,21,-1
 601 599 l 1,0,-1
222.5 35.5 m 128,-1,23
 202 55 202 55 202 83.5 c 128,-1,24
 202 112 202 112 221.5 133 c 128,-1,25
 241 154 241 154 269.5 154 c 128,-1,26
 298 154 298 154 319 134.5 c 128,-1,27
 340 115 340 115 340 86.5 c 128,-1,28
 340 58 340 58 320 37 c 128,-1,29
 300 16 300 16 271.5 16 c 128,-1,22
 243 16 243 16 222.5 35.5 c 128,-1,23
379 503 m 1,30,-1
 136 503 l 1,31,32
 144 492 144 492 163 448 c 0,33,34
 174 419 174 419 185 343 c 1,35,-1
 379 343 l 1,36,-1
 379 503 l 1,30,-1
EndSplineSet
Validated: 1
Ligature2: "'nukt' Nukta Forms in Gurmukhi lookup 7 subtable" uni0A38 uni0A3C
EndChar

StartChar: uni0A38
Encoding: 2616 2616 57
Width: 549
Flags: MW
LayerCount: 2
Fore
SplineSet
578 599 m 1,0,-1
 578 503 l 1,1,-1
 467 503 l 1,2,-1
 467 0 l 1,3,-1
 355 0 l 1,4,-1
 355 242 l 1,5,-1
 186 242 l 1,6,-1
 186 224 l 2,7,8
 186 152 186 152 164 92 c 128,-1,9
 142 32 142 32 95 31 c 1,10,-1
 93 31 l 2,11,12
 19 31 19 31 19 99 c 0,13,14
 19 100 19 100 50 176 c 0,15,16
 82 247 82 247 82 321 c 0,17,18
 82 423 82 423 23 503 c 1,19,-1
 -5 503 l 1,20,-1
 -5 599 l 1,21,-1
 578 599 l 1,0,-1
355 503 m 1,22,-1
 136 503 l 1,23,24
 144 492 144 492 163 448 c 0,25,26
 174 419 174 419 185 343 c 1,27,-1
 355 343 l 1,28,-1
 355 503 l 1,22,-1
EndSplineSet
Validated: 1
EndChar

StartChar: uni0A39
Encoding: 2617 2617 58
Width: 537
Flags: MW
LayerCount: 2
Fore
SplineSet
280 1 m 0,0,1
 278 1 278 1 276 1 c 0,2,3
 177 1 177 1 88.5 88.5 c 128,-1,4
 0 176 0 176 -1 284 c 0,5,6
 -1 366 -1 366 91 366 c 2,7,-1
 211 366 l 1,8,-1
 211 262 l 1,9,-1
 145 262 l 2,10,11
 124 262 124 262 124 249 c 0,12,13
 124 190 124 190 175 148 c 128,-1,14
 226 106 226 106 306 106 c 0,15,16
 328 106 328 106 328 133 c 2,17,-1
 328 503 l 1,18,-1
 -5 503 l 1,19,-1
 -5 599 l 1,20,-1
 567 599 l 1,21,-1
 567 503 l 1,22,-1
 434 503 l 1,23,-1
 434 127 l 2,24,25
 434 57 434 57 397 29 c 128,-1,26
 360 1 360 1 280 1 c 0,0,1
EndSplineSet
Validated: 1
EndChar

StartChar: uni0A3C
Encoding: 2620 2620 59
Width: 0
Flags: MW
LayerCount: 2
Fore
SplineSet
-407 -171 m 128,-1,1
 -428 -151 -428 -151 -428 -123 c 128,-1,2
 -428 -95 -428 -95 -408.5 -75 c 128,-1,3
 -389 -55 -389 -55 -360 -53 c 1,4,-1
 -357 -53 l 2,5,6
 -330 -53 -330 -53 -309 -73 c 128,-1,7
 -288 -93 -288 -93 -288 -121.5 c 128,-1,8
 -288 -150 -288 -150 -307.5 -169.5 c 128,-1,9
 -327 -189 -327 -189 -356 -191 c 1,10,-1
 -359 -191 l 2,11,0
 -386 -191 -386 -191 -407 -171 c 128,-1,1
EndSplineSet
Validated: 1
EndChar

StartChar: uni0A4B
Encoding: 2635 2635 60
Width: 10
Flags: MW
LayerCount: 2
Fore
SplineSet
-429 773 m 1,0,-1
 -236 786 l 1,1,2
 -199 786 -199 786 -169 763 c 128,-1,3
 -139 740 -139 740 -139 707 c 1,4,-1
 -142 663 l 1,5,-1
 -185 663 l 1,6,7
 -185 702 -185 702 -241 702 c 1,8,-1
 -318 696 l 2,9,10
 -396 690 -396 690 -419.5 690 c 128,-1,11
 -443 690 -443 690 -444 689 c 0,12,13
 -489 689 -489 689 -508.5 717.5 c 128,-1,14
 -528 746 -528 746 -528 785 c 0,15,16
 -528 795 -528 795 -526 813 c 1,17,-1
 -487 813 l 1,18,19
 -484 773 -484 773 -429 773 c 1,0,-1
EndSplineSet
Validated: 1
EndChar

StartChar: uni0A4D
Encoding: 2637 2637 61
Width: 10
Flags: MW
LayerCount: 2
Fore
SplineSet
-86 -123 m 1,0,-1
 -153 -131 l 1,1,2
 -248 -131 -248 -131 -248 -79 c 0,3,4
 -248 -44 -248 -44 -217 -32 c 0,5,6
 -199 -25 -199 -25 -156 -25 c 0,7,8
 0 -25 0 -25 125 -216 c 1,9,-1
 95 -216 l 1,10,11
 3 -123 3 -123 -86 -123 c 1,0,-1
EndSplineSet
Validated: 1
EndChar

StartChar: uni0A51
Encoding: 2641 2641 62
Width: 10
Flags: MW
LayerCount: 2
Fore
SplineSet
0 -162 m 0,0,1
 0 -195 0 -195 -22.5 -205.5 c 128,-1,2
 -45 -216 -45 -216 -92 -216 c 0,3,4
 -248 -216 -248 -216 -373 -25 c 1,5,-1
 -343 -25 l 1,6,7
 -252 -118 -252 -118 -162 -118 c 1,8,-1
 -95 -110 l 1,9,10
 0 -110 0 -110 0 -162 c 0,0,1
EndSplineSet
Validated: 1
EndChar

StartChar: uni0A59
Encoding: 2649 2649 63
Width: 642
Flags: MW
LayerCount: 2
Fore
SplineSet
251 446 m 1,0,-1
 435 446 l 1,1,-1
 435 599 l 1,2,-1
 672 599 l 1,3,-1
 672 503 l 1,4,-1
 542 503 l 1,5,-1
 542 0 l 1,6,-1
 435 0 l 1,7,-1
 435 108 l 1,8,9
 388 80 388 80 309 80 c 0,10,11
 170 80 170 80 82 249 c 1,12,13
 148 326 148 326 148 433 c 0,14,15
 148 480 148 480 125 503 c 1,16,-1
 0 503 l 1,17,-1
 0 599 l 1,18,-1
 206 599 l 1,19,20
 251 501 251 501 251 452 c 2,21,-1
 251 446 l 1,0,-1
0 68 m 132,-1,23
 0 96 0 96 20 117 c 132,-1,24
 40 138 40 138 68 138 c 132,-1,25
 96 138 96 138 117 118 c 132,-1,26
 138 98 138 98 138 70 c 132,-1,27
 138 42 138 42 118 21 c 132,-1,28
 98 0 98 0 70 0 c 132,-1,29
 42 0 42 0 21 20 c 132,-1,22
 0 40 0 40 0 68 c 132,-1,23
201 246 m 1,30,31
 232 182 232 182 307 182 c 0,32,33
 395 182 395 182 436 223 c 1,34,-1
 436 347 l 1,35,-1
 244 347 l 1,36,37
 234 298 234 298 201 246 c 1,30,31
EndSplineSet
Validated: 1
LCarets2: 1 0
Ligature2: "'nukt' Nukta Forms in Gurmukhi lookup 7 subtable" uni0A16 uni0A3C
EndChar

StartChar: uni0A5A
Encoding: 2650 2650 64
Width: 876
Flags: MW
LayerCount: 2
Fore
SplineSet
775 503 m 1,0,-1
 775 0 l 1,1,-1
 669 0 l 1,2,-1
 669 503 l 1,3,-1
 541 503 l 1,4,-1
 541 122 l 2,5,6
 541 1 541 1 387 1 c 0,7,8
 284 1 284 1 209 92.5 c 128,-1,9
 134 184 134 184 134 299 c 0,10,11
 134 349 134 349 166 382 c 0,12,13
 196 415 196 415 226 415 c 2,14,-1
 435 415 l 1,15,-1
 435 503 l 1,16,-1
 -4 503 l 1,17,-1
 -4 599 l 5,18,-1
 906 599 l 1,19,-1
 906 503 l 1,20,-1
 775 503 l 1,0,-1
17.5 44 m 128,-1,22
 -4 64 -4 64 -4 91.5 c 128,-1,23
 -4 119 -4 119 16 139.5 c 128,-1,24
 36 160 36 160 64 162 c 1,25,-1
 67 162 l 2,26,27
 94 162 94 162 114.5 142 c 128,-1,28
 135 122 135 122 135 94 c 128,-1,29
 135 66 135 66 114.5 45 c 128,-1,30
 94 24 94 24 66.5 24 c 128,-1,21
 39 24 39 24 17.5 44 c 128,-1,22
385 97 m 0,31,32
 406 97 406 97 420 108.5 c 128,-1,33
 434 120 434 120 434 138 c 2,34,-1
 434 311 l 1,35,-1
 293 311 l 2,36,37
 243 311 243 311 243 250 c 0,38,39
 243 207 243 207 290.5 152 c 128,-1,40
 338 97 338 97 385 97 c 0,31,32
EndSplineSet
Validated: 1
LCarets2: 1 0
Ligature2: "'nukt' Nukta Forms in Gurmukhi lookup 7 subtable" uni0A17 uni0A3C
EndChar

StartChar: uni0A5B
Encoding: 2651 2651 65
Width: 620
Flags: MW
LayerCount: 2
Fore
SplineSet
-4 503 m 1,0,-1
 -4 599 l 1,1,-1
 650 599 l 1,2,-1
 650 503 l 1,3,-1
 520 503 l 1,4,-1
 520 0 l 1,5,-1
 413 0 l 1,6,-1
 413 222 l 1,7,-1
 192 222 l 1,8,-1
 192 0 l 1,9,-1
 85 0 l 1,10,-1
 85 222 l 1,11,-1
 0 222 l 1,12,13
 -8 243 -8 243 -8 267 c 0,14,15
 -8 314 -8 314 22 352 c 0,16,17
 75 420 75 420 192 420 c 1,18,-1
 192 324 l 1,19,-1
 413 324 l 1,20,-1
 413 503 l 1,21,-1
 -4 503 l 1,0,-1
252.5 45.5 m 128,-1,23
 232 65 232 65 232 93.5 c 128,-1,24
 232 122 232 122 251.5 143 c 128,-1,25
 271 164 271 164 299.5 164 c 128,-1,26
 328 164 328 164 349 144.5 c 128,-1,27
 370 125 370 125 370 96.5 c 128,-1,28
 370 68 370 68 350 47 c 128,-1,29
 330 26 330 26 301.5 26 c 128,-1,22
 273 26 273 26 252.5 45.5 c 128,-1,23
EndSplineSet
Validated: 1
LCarets2: 1 0
Ligature2: "'nukt' Nukta Forms in Gurmukhi lookup 7 subtable" uni0A1C uni0A3C
EndChar

StartChar: uni0A5C
Encoding: 2652 2652 66
Width: 665
Flags: MW
LayerCount: 2
Fore
SplineSet
289 184 m 0,0,1
 444 184 444 184 444 247 c 0,2,3
 444 276 444 276 422.5 296 c 128,-1,4
 401 316 401 316 374 316 c 128,-1,5
 347 316 347 316 302 299 c 128,-1,6
 257 282 257 282 213.5 282 c 128,-1,7
 170 282 170 282 125 300 c 0,8,9
 67 324 67 324 67 366 c 0,10,11
 67 436 67 436 217 436 c 0,12,13
 236 436 236 436 282 420 c 0,14,15
 323 403 323 403 359.5 403 c 128,-1,16
 396 403 396 403 416 433 c 0,17,18
 435 463 435 463 436 481.5 c 128,-1,19
 437 500 437 500 436 503 c 1,20,-1
 -4 503 l 1,21,-1
 -4 599 l 1,22,-1
 695 599 l 1,23,-1
 695 503 l 1,24,-1
 565 503 l 1,25,26
 564 469 564 469 538 418.5 c 128,-1,27
 512 368 512 368 484 356 c 1,28,29
 561 311 561 311 561 234 c 0,30,31
 561 122 561 122 460 102 c 1,32,33
 486 76 486 76 521 38 c 0,34,35
 526 30 526 30 526 26 c 0,36,37
 526 4 526 4 488.5 4 c 128,-1,38
 451 4 451 4 437 17 c 0,39,40
 400 50 400 50 364 87 c 1,41,42
 356 86 356 86 338 86 c 0,43,44
 235 86 235 86 160 115 c 1,45,46
 186 89 186 89 202.5 70 c 128,-1,47
 219 51 219 51 219.5 34.5 c 128,-1,48
 220 18 220 18 210.5 13.5 c 128,-1,49
 201 9 201 9 179 9 c 2,50,-1
 168 9 l 1,51,52
 140 10 140 10 70 82 c 0,53,54
 2 155 2 155 2 195 c 0,55,56
 2 218 2 218 14.5 226.5 c 128,-1,57
 27 235 27 235 49.5 235 c 128,-1,58
 72 235 72 235 160 210 c 0,59,60
 238 184 238 184 289 184 c 0,0,1
EndSplineSet
Validated: 1
EndChar

StartChar: uni0A5E
Encoding: 2654 2654 67
Width: 648
Flags: MW
LayerCount: 2
Fore
SplineSet
548 134 m 128,-1,1
 548 75 548 75 505 37.5 c 128,-1,2
 462 0 462 0 399 0 c 0,3,4
 287 0 287 0 204.5 91.5 c 128,-1,5
 122 183 122 183 122 301 c 0,6,7
 122 366 122 366 159.5 412.5 c 128,-1,8
 197 459 197 459 263 459 c 2,9,-1
 441 459 l 1,10,-1
 441 503 l 1,11,-1
 -4 503 l 1,12,-1
 -4 599 l 1,13,-1
 677 599 l 1,14,-1
 677 503 l 1,15,-1
 547 503 l 1,16,-1
 547 350 l 1,17,-1
 309 350 l 2,18,19
 223 350 223 350 223 277 c 0,20,21
 223 262 223 262 231 238.5 c 128,-1,22
 239 215 239 215 247 208 c 1,23,24
 342 272 342 272 404.5 272 c 128,-1,25
 467 272 467 272 507.5 232.5 c 128,-1,0
 548 193 548 193 548 134 c 128,-1,1
23 44 m 128,-1,27
 2 64 2 64 2 92.5 c 128,-1,28
 2 121 2 121 22 140.5 c 128,-1,29
 42 160 42 160 70 162 c 1,30,-1
 72 162 l 2,31,32
 100 162 100 162 120 142 c 128,-1,33
 140 122 140 122 140 94 c 128,-1,34
 140 66 140 66 120 45 c 128,-1,35
 100 24 100 24 72 24 c 128,-1,26
 44 24 44 24 23 44 c 128,-1,27
299 138 m 1,36,37
 303 129 303 129 339 110.5 c 128,-1,38
 375 92 375 92 394.5 92 c 128,-1,39
 414 92 414 92 431.5 106 c 128,-1,40
 449 120 449 120 449 136 c 0,41,42
 449 179 449 179 394 179 c 0,43,44
 378 179 378 179 344 163.5 c 128,-1,45
 310 148 310 148 299 138 c 1,36,37
EndSplineSet
Validated: 1
LCarets2: 1 0
Ligature2: "'nukt' Nukta Forms in Gurmukhi lookup 7 subtable" uni0A2B uni0A3C
EndChar

StartChar: uni0964
Encoding: 2404 2404 68
Width: 300
Flags: MW
LayerCount: 2
Fore
SplineSet
252 624 m 1,0,-1
 252 0 l 1,1,-1
 145 0 l 1,2,-1
 145 624 l 1,3,-1
 252 624 l 1,0,-1
EndSplineSet
Validated: 1
EndChar

StartChar: uni0965
Encoding: 2405 2405 69
Width: 550
Flags: MW
LayerCount: 2
Fore
SplineSet
202 624 m 1,0,-1
 202 0 l 1,1,-1
 95 0 l 1,2,-1
 95 624 l 1,3,-1
 202 624 l 1,0,-1
449 624 m 1,4,-1
 449 0 l 1,5,-1
 342 0 l 1,6,-1
 342 624 l 1,7,-1
 449 624 l 1,4,-1
EndSplineSet
Validated: 1
EndChar

StartChar: uni0A66
Encoding: 2662 2662 70
Width: 600
Flags: MW
LayerCount: 2
Fore
SplineSet
306 530 m 128,-1,1
 402 530 402 530 472 462 c 0,2,3
 540 392 540 392 540 296 c 128,-1,4
 540 200 540 200 472 130 c 0,5,6
 402 62 402 62 306 62 c 128,-1,7
 210 62 210 62 140 130 c 0,8,9
 72 200 72 200 72 296 c 128,-1,10
 72 392 72 392 140 462 c 0,11,0
 210 530 210 530 306 530 c 128,-1,1
401.5 391.5 m 128,-1,13
 362 431 362 431 306.5 431 c 128,-1,14
 251 431 251 431 211 391 c 128,-1,15
 171 351 171 351 171 296.5 c 128,-1,16
 171 242 171 242 211.5 201.5 c 128,-1,17
 252 161 252 161 306.5 161 c 128,-1,18
 361 161 361 161 401 201 c 128,-1,19
 441 241 441 241 441 296.5 c 128,-1,12
 441 352 441 352 401.5 391.5 c 128,-1,13
EndSplineSet
Validated: 1
EndChar

StartChar: uni0A67
Encoding: 2663 2663 71
Width: 600
Flags: MW
LayerCount: 2
Fore
SplineSet
490 75 m 0,0,1
 494 71 494 71 517.5 58.5 c 128,-1,2
 541 46 541 46 541 28 c 128,-1,3
 541 10 541 10 532 2.5 c 128,-1,4
 523 -5 523 -5 511.5 -6.5 c 128,-1,5
 500 -8 500 -8 480 -8 c 2,6,-1
 474 -8 l 2,7,8
 440 -8 440 -8 406 37 c 128,-1,9
 372 82 372 82 372 158.5 c 128,-1,10
 372 235 372 235 390 307 c 1,11,12
 328 275 328 275 285 275 c 0,13,14
 203 275 203 275 135 320 c 0,15,16
 68 365 68 365 68 438 c 128,-1,17
 68 511 68 511 128 555 c 128,-1,18
 188 599 188 599 272 599 c 0,19,20
 273 598 273 598 274 598 c 0,21,22
 360 598 360 598 428 546 c 0,23,24
 495 493 495 493 495 410 c 0,25,26
 495 382 495 382 483.5 277 c 128,-1,27
 472 172 472 172 472 133.5 c 128,-1,28
 472 95 472 95 490 75 c 0,0,1
202.5 486.5 m 128,-1,30
 168 467 168 467 168 435 c 128,-1,31
 168 403 168 403 202.5 385.5 c 128,-1,32
 237 368 237 368 277 368 c 128,-1,33
 317 368 317 368 351.5 386 c 128,-1,34
 386 404 386 404 400 430 c 1,35,36
 373 506 373 506 278 506 c 0,37,29
 237 506 237 506 202.5 486.5 c 128,-1,30
EndSplineSet
Validated: 1
EndChar

StartChar: uni0A68
Encoding: 2664 2664 72
Width: 600
Flags: MW
LayerCount: 2
Fore
SplineSet
423 382 m 0,0,1
 423 498 423 498 298 498 c 0,2,3
 232 498 232 498 185 475 c 128,-1,4
 138 452 138 452 119 452 c 128,-1,5
 100 452 100 452 83.5 463 c 128,-1,6
 67 474 67 474 67 491 c 0,7,8
 67 548 67 548 164 576 c 0,9,10
 228 594 228 594 288 594 c 0,11,12
 378 594 378 594 454 539 c 0,13,14
 542 476 542 476 542 382 c 128,-1,15
 542 288 542 288 472 231 c 0,16,17
 423 189 423 189 383 186 c 1,18,19
 416 174 416 174 472 118 c 128,-1,20
 528 62 528 62 556 -2 c 1,21,-1
 434 -1 l 1,22,23
 323 172 323 172 286 172 c 0,24,25
 275 172 275 172 234.5 159.5 c 128,-1,26
 194 147 194 147 183 147 c 0,27,28
 69 147 69 147 69 213 c 0,29,30
 69 248 69 248 96 266 c 0,31,32
 124 284 124 284 162 284 c 128,-1,33
 200 284 200 284 237 266 c 0,34,35
 272 249 272 249 300 249 c 0,36,37
 301 249 301 249 303 249 c 2,38,-1
 306 249 l 2,39,40
 359 249 359 249 392 289 c 0,41,42
 423 331 423 331 423 382 c 0,0,1
EndSplineSet
Validated: 1
EndChar

StartChar: uni0A69
Encoding: 2665 2665 73
Width: 600
Flags: MW
LayerCount: 2
Fore
SplineSet
72 366 m 0,0,1
 72 389 72 389 91 401 c 128,-1,2
 110 413 110 413 132 415 c 128,-1,3
 154 417 154 417 195 417 c 1,4,-1
 341 406 l 1,5,6
 440 406 440 406 440 451 c 0,7,8
 440 484 440 484 404 496 c 0,9,10
 369 509 369 509 286 509 c 128,-1,11
 203 509 203 509 92 493 c 1,12,-1
 63 572 l 1,13,14
 91 585 91 585 145.5 594 c 128,-1,15
 200 603 200 603 254 603 c 0,16,17
 366 603 366 603 446 576 c 0,18,19
 536 545 536 545 536 453 c 0,20,21
 536 408 536 408 522 387 c 128,-1,22
 508 366 508 366 473 347 c 1,23,24
 538 311 538 311 538 243.5 c 128,-1,25
 538 176 538 176 481.5 138 c 128,-1,26
 425 100 425 100 341 96 c 1,27,28
 430 72 430 72 462 72 c 0,29,30
 537 72 537 72 537 40 c 0,31,32
 537 26 537 26 515.5 16 c 128,-1,33
 494 6 494 6 453 6 c 0,34,35
 343 6 343 6 240 75 c 1,36,37
 58 98 58 98 58 156 c 0,38,39
 58 204 58 204 140 204 c 0,40,41
 178 204 178 204 219 192.5 c 128,-1,42
 260 181 260 181 309 181 c 0,43,44
 435 181 435 181 435 240 c 0,45,46
 435 282 435 282 395 304.5 c 128,-1,47
 355 327 355 327 306 327 c 0,48,49
 287 327 287 327 244 321.5 c 128,-1,50
 201 316 201 316 178 316 c 0,51,52
 72 316 72 316 72 366 c 0,0,1
EndSplineSet
Validated: 1
EndChar

StartChar: uni0A6A
Encoding: 2666 2666 74
Width: 600
Flags: MW
LayerCount: 2
Fore
SplineSet
264 509 m 1,0,1
 223 509 223 509 191 488 c 128,-1,2
 159 467 159 467 159 432 c 0,3,4
 159 385 159 385 218 356 c 0,5,6
 262 336 262 336 300 336 c 128,-1,7
 338 336 338 336 386 356 c 0,8,9
 448 385 448 385 448 432 c 0,10,11
 448 468 448 468 412 488 c 128,-1,12
 376 508 376 508 342 509 c 1,13,-1
 342 597 l 1,14,15
 546 597 546 597 546 432 c 0,16,17
 546 378 546 378 516 342 c 128,-1,18
 486 306 486 306 452 292 c 1,19,20
 496 280 496 280 520 244 c 128,-1,21
 544 208 544 208 544 160 c 0,22,23
 544 79 544 79 475 39.5 c 128,-1,24
 406 0 406 0 302 0 c 128,-1,25
 198 0 198 0 130 40 c 128,-1,26
 62 80 62 80 62 160 c 0,27,28
 62 226 62 226 102 263 c 0,29,30
 127 288 127 288 153 292 c 1,31,32
 124 302 124 302 92 340 c 128,-1,33
 60 378 60 378 60 432 c 0,34,35
 60 597 60 597 264 597 c 1,36,-1
 264 509 l 1,0,1
297 92 m 2,37,38
 353 92 353 92 395 108.5 c 128,-1,39
 437 125 437 125 437 162 c 0,40,41
 437 162 437 162 437 163 c 0,42,43
 437 251 437 251 304 251 c 0,44,45
 170 251 170 251 170 160 c 0,46,47
 170 132 170 132 202 112 c 128,-1,48
 234 92 234 92 294 92 c 2,49,-1
 297 92 l 2,37,38
EndSplineSet
Validated: 1
EndChar

StartChar: uni0A6B
Encoding: 2667 2667 75
Width: 600
Flags: MW
LayerCount: 2
Fore
SplineSet
425 156 m 1,0,1
 371 138 371 138 330 138 c 0,2,3
 187 138 187 138 47 290 c 1,4,5
 120 364 120 364 120 420 c 128,-1,6
 120 476 120 476 50 547 c 1,7,-1
 138 612 l 1,8,9
 228 510 228 510 228 420 c 0,10,11
 228 350 228 350 185 300 c 1,12,13
 251 240 251 240 332 240 c 0,14,15
 380 240 380 240 425 261 c 1,16,-1
 425 599 l 1,17,-1
 530 599 l 1,18,-1
 530 -1 l 1,19,-1
 425 -1 l 1,20,-1
 425 156 l 1,0,1
EndSplineSet
Validated: 1
EndChar

StartChar: uni0A6C
Encoding: 2668 2668 76
Width: 600
Flags: MW
LayerCount: 2
Fore
SplineSet
168 158 m 0,0,1
 168 120 168 120 220 104 c 0,2,3
 270 88 270 88 332 88 c 0,4,5
 334 88 334 88 336 88 c 0,6,7
 400 88 400 88 513 125 c 1,8,-1
 531 41 l 1,9,10
 400 2 400 2 310 2 c 128,-1,11
 220 2 220 2 149 35 c 0,12,13
 60 76 60 76 60 158 c 0,14,15
 60 216 60 216 92 250 c 1,16,17
 112 263 112 263 129 275 c 1,18,19
 63 322 63 322 63 394 c 128,-1,20
 63 466 63 466 149 501 c 0,21,22
 212 527 212 527 289 527 c 2,23,-1
 306 527 l 1,24,25
 276 559 276 559 276 608 c 0,26,27
 276 718 276 718 480 743 c 1,28,-1
 522 656 l 1,29,30
 381 656 381 656 381 590 c 0,31,32
 381 534 381 534 399 527 c 1,33,34
 470 519 470 519 489 514 c 0,35,36
 540 498 540 498 540 461 c 0,37,38
 540 402 540 402 474 402 c 0,39,40
 434 402 434 402 386 421 c 128,-1,41
 338 440 338 440 315 440 c 0,42,43
 180 440 180 440 180 377 c 0,44,45
 180 305 180 305 282 305 c 0,46,47
 306 305 306 305 349 314 c 128,-1,48
 392 323 392 323 425 323 c 128,-1,49
 458 323 458 323 495 306 c 0,50,51
 531 288 531 288 531 258 c 0,52,53
 531 226 531 226 494 213 c 0,54,55
 458 200 458 200 426 200 c 128,-1,56
 394 200 394 200 353 212 c 128,-1,57
 312 224 312 224 288 224 c 0,58,59
 168 224 168 224 168 158 c 0,0,1
EndSplineSet
Validated: 1
EndChar

StartChar: uni0A6D
Encoding: 2669 2669 77
Width: 600
Flags: MW
LayerCount: 2
Fore
SplineSet
445 359 m 0,0,1
 445 436 445 436 424.5 469.5 c 128,-1,2
 404 503 404 503 342 503 c 0,3,4
 258 503 258 503 258 363 c 0,5,6
 258 344 258 344 259 334 c 1,7,-1
 160 334 l 1,8,-1
 160 342 l 2,9,10
 160 413 160 413 177 467 c 0,11,12
 220 600 220 600 352 600 c 0,13,14
 439 600 439 600 489.5 533.5 c 128,-1,15
 540 467 540 467 540 369 c 0,16,17
 540 4 540 4 59 4 c 1,18,-1
 59 102 l 1,19,20
 200 102 200 102 294 141 c 0,21,22
 445 204 445 204 445 359 c 0,0,1
EndSplineSet
Validated: 1
EndChar

StartChar: uni0A6E
Encoding: 2670 2670 78
Width: 600
Flags: MW
LayerCount: 2
Fore
SplineSet
398 14 m 2,0,1
 278 14 278 14 211.5 70.5 c 128,-1,2
 145 127 145 127 145 238 c 2,3,-1
 145 398 l 1,4,-1
 75 398 l 1,5,6
 45 422 45 422 45 468 c 128,-1,7
 45 514 45 514 84 556 c 128,-1,8
 123 598 123 598 167 599 c 1,9,-1
 242 599 l 1,10,-1
 242 503 l 1,11,-1
 534 503 l 1,12,-1
 534 399 l 1,13,-1
 242 399 l 1,14,-1
 242 264 l 2,15,16
 242 108 242 108 400 108 c 2,17,-1
 533 108 l 1,18,-1
 533 14 l 1,19,-1
 398 14 l 2,0,1
EndSplineSet
Validated: 1
EndChar

StartChar: uni0A6F
Encoding: 2671 2671 79
Width: 600
Flags: MW
LayerCount: 2
Fore
SplineSet
98 351 m 1,0,1
 56 382 56 382 56 433 c 128,-1,2
 56 484 56 484 91 521 c 128,-1,3
 126 558 126 558 176 558 c 2,4,-1
 252 558 l 1,5,-1
 252 453 l 1,6,-1
 388 453 l 1,7,8
 311 500 311 500 311 579 c 0,9,10
 311 688 311 688 426 725 c 0,11,12
 473 741 473 741 540 741 c 1,13,-1
 540 658 l 1,14,15
 401 655 401 655 401 570 c 0,16,17
 401 502 401 502 531 453 c 1,18,-1
 531 357 l 1,19,-1
 252 357 l 1,20,-1
 252 179 l 2,21,22
 252 133 252 133 305.5 93 c 128,-1,23
 359 53 359 53 435 51 c 1,24,-1
 531 51 l 1,25,-1
 531 -36 l 1,26,-1
 427 -36 l 2,27,28
 304 -36 304 -36 224 44 c 0,29,30
 156 112 156 112 156 192 c 2,31,-1
 156 351 l 1,32,-1
 98 351 l 1,0,1
EndSplineSet
Validated: 1
EndChar

StartChar: uni0A71
Encoding: 2673 2673 80
Width: 10
Flags: MW
LayerCount: 2
Fore
SplineSet
-247 828 m 0,0,1
 -237 828 -237 828 -232 813 c 2,2,-1
 -223 788 l 1,3,4
 -199 750 -199 750 -179 735 c 128,-1,5
 -159 720 -159 720 -128 720 c 0,6,7
 -56 720 -56 720 -28 822 c 0,8,9
 -24 834 -24 834 -11 834 c 0,10,11
 9 834 9 834 9 792.5 c 128,-1,12
 9 751 9 751 -23 708 c 0,13,14
 -65 653 -65 653 -127 653 c 128,-1,15
 -189 653 -189 653 -230.5 698.5 c 128,-1,16
 -272 744 -272 744 -272 786 c 128,-1,17
 -272 828 -272 828 -247 828 c 0,0,1
EndSplineSet
Validated: 1
EndChar

StartChar: uni0A70
Encoding: 2672 2672 81
Width: 10
Flags: MW
AnchorPoint: "yakash" -338 -30 basechar 0
AnchorPoint: "pairin_rara" -338 -30 basechar 0
LayerCount: 2
Fore
SplineSet
-187 776 m 128,-1,1
 -209 776 -209 776 -227 761 c 128,-1,2
 -245 746 -245 746 -245 728 c 128,-1,3
 -245 710 -245 710 -238 693 c 128,-1,4
 -231 676 -231 676 -231 668 c 0,5,6
 -231 653 -231 653 -252 653 c 0,7,8
 -258 653 -258 653 -278 677 c 0,9,10
 -300 706 -300 706 -300 748 c 128,-1,11
 -300 790 -300 790 -270 826 c 128,-1,12
 -240 862 -240 862 -190 862 c 2,13,-1
 -188 862 l 2,14,15
 -136 862 -136 862 -106 827 c 128,-1,16
 -76 792 -76 792 -76 739 c 0,17,18
 -76 713 -76 713 -96 684 c 0,19,20
 -114 653 -114 653 -141 653 c 0,21,22
 -151 652 -151 652 -151 658 c 0,23,24
 -152 664 -152 664 -142 686 c 128,-1,25
 -132 708 -132 708 -132 726 c 128,-1,26
 -132 744 -132 744 -148.5 760 c 128,-1,0
 -165 776 -165 776 -187 776 c 128,-1,1
EndSplineSet
Validated: 1
EndChar

StartChar: uni262C
Encoding: 9772 9772 82
Width: 855
Flags: MW
LayerCount: 2
Fore
SplineSet
499 350 m 1,0,1
 566 367 566 367 612.5 420.5 c 128,-1,2
 659 474 659 474 659 546.5 c 128,-1,3
 659 619 659 619 614 670.5 c 128,-1,4
 569 722 569 722 503 741 c 1,5,6
 464 610 464 610 463 533 c 1,7,-1
 463 526 l 2,8,9
 463 448 463 448 499 350 c 1,0,1
642 692 m 128,-1,11
 694 631 694 631 694 547.5 c 128,-1,12
 694 464 694 464 640.5 402 c 128,-1,13
 587 340 587 340 511 318 c 1,14,15
 518 300 518 300 530 273 c 1,16,17
 497 259 497 259 486 251.5 c 128,-1,18
 475 244 475 244 451 220 c 1,19,-1
 451 141 l 1,20,21
 704 279 704 279 749 409 c 0,22,23
 777 490 777 490 777 535 c 128,-1,24
 777 580 777 580 758 618 c 0,25,26
 738 654 738 654 691 714 c 1,27,28
 754 690 754 690 791 631 c 128,-1,29
 828 572 828 572 828 490 c 0,30,31
 828 370 828 370 763 275 c 0,32,33
 716 212 716 212 688 174 c 0,34,35
 641 113 641 113 636 70 c 1,36,-1
 545 154 l 1,37,38
 499 139 499 139 463 112 c 1,39,40
 497 99 497 99 540 72 c 128,-1,41
 583 45 583 45 583 13 c 0,42,43
 583 3 583 3 574 -6 c 128,-1,44
 565 -15 565 -15 554 -15 c 0,45,46
 529 -15 529 -15 529 10 c 0,47,48
 529 22 529 22 539 35 c 1,49,50
 522 49 522 49 519 52 c 0,51,52
 504 67 504 67 449 85 c 1,53,-1
 449 -7 l 1,54,55
 471 -26 471 -26 471 -42.5 c 128,-1,56
 471 -59 471 -59 458.5 -71 c 128,-1,57
 446 -83 446 -83 429.5 -83 c 128,-1,58
 413 -83 413 -83 402 -71 c 128,-1,59
 391 -59 391 -59 391 -42.5 c 128,-1,60
 391 -26 391 -26 413 -7 c 1,61,-1
 413 85 l 1,62,63
 395 79 395 79 361 64 c 1,64,-1
 323 35 l 1,65,66
 333 22 333 22 333 10 c 0,67,68
 333 -15 333 -15 310 -15 c 2,69,-1
 308 -15 l 2,70,71
 297 -15 297 -15 288 -6.5 c 128,-1,72
 279 2 279 2 279 13 c 0,73,74
 279 45 279 45 320 71 c 128,-1,75
 361 97 361 97 399 112 c 1,76,77
 362 142 362 142 317 154 c 1,78,-1
 226 70 l 1,79,80
 222 110 222 110 188 156 c 0,81,82
 153 200 153 200 99 275 c 0,83,84
 34 370 34 370 34 490 c 0,85,86
 34 573 34 573 71 631.5 c 128,-1,87
 108 690 108 690 171 714 c 1,88,89
 124 654 124 654 104 618 c 0,90,91
 85 580 85 580 85 535 c 128,-1,92
 85 490 85 490 113 409 c 0,93,94
 159 277 159 277 411 141 c 1,95,-1
 411 220 l 1,96,97
 396 235 396 235 367 257 c 0,98,99
 358 263 358 263 332 273 c 1,100,101
 340 291 340 291 350 318 c 1,102,103
 270 341 270 341 222 404 c 0,104,105
 171 467 171 467 171 548 c 128,-1,106
 171 629 171 629 222.5 691.5 c 128,-1,107
 274 754 274 754 347 775 c 1,108,109
 341 793 341 793 335 805 c 1,110,111
 399 851 399 851 418 884 c 2,112,-1
 433 909 l 1,113,114
 440 892 440 892 465 856 c 1,115,116
 500 824 500 824 527 805 c 1,117,118
 521 793 521 793 515 775 c 1,119,10
 590 753 590 753 642 692 c 128,-1,11
359 741 m 1,120,121
 295 724 295 724 250.5 671 c 128,-1,122
 206 618 206 618 206 546 c 128,-1,123
 206 474 206 474 251.5 421 c 128,-1,124
 297 368 297 368 363 350 c 1,125,126
 399 449 399 449 399 527 c 2,127,-1
 399 534 l 1,128,129
 398 610 398 610 359 741 c 1,120,121
EndSplineSet
Validated: 1
EndChar

StartChar: uni25CC
Encoding: 9676 9676 83
Width: 423
VWidth: 614
Flags: MW
LayerCount: 2
Fore
SplineSet
263 463 m 1,0,1
 247 469 247 469 230 472 c 1,2,-1
 230 508 l 1,3,4
 255 505 255 505 281 494 c 1,5,-1
 263 463 l 1,0,1
320 420 m 1,6,7
 305 437 305 437 296 444 c 1,8,-1
 314 475 l 1,9,10
 336 457 336 457 351 438 c 1,11,-1
 320 420 l 1,6,7
349 354 m 1,12,13
 346 370 346 370 340 386 c 1,14,-1
 371 405 l 1,15,16
 382 381 382 381 385 354 c 1,17,-1
 349 354 l 1,12,13
157 204 m 1,18,19
 175 196 175 196 191 195 c 1,20,-1
 191 160 l 1,21,22
 161 163 161 163 139 173 c 1,23,-1
 157 204 l 1,18,19
230 196 m 1,24,25
 248 199 248 199 263 205 c 1,26,-1
 281 173 l 1,27,28
 265 166 265 166 230 160 c 1,29,-1
 230 196 l 1,24,25
191 472 m 1,30,31
 169 468 169 468 158 464 c 1,32,-1
 140 495 l 1,33,34
 168 506 168 506 191 509 c 1,35,-1
 191 472 l 1,30,31
36 354 m 1,36,37
 39 383 39 383 49 405 c 1,38,-1
 80 387 l 1,39,40
 76 376 76 376 72 354 c 1,41,-1
 36 354 l 1,36,37
125 444 m 1,42,43
 109 432 109 432 100 420 c 1,44,-1
 69 438 l 1,45,46
 87 463 87 463 107 476 c 1,47,-1
 125 444 l 1,42,43
99 248 m 1,48,49
 111 233 111 233 124 223 c 1,50,-1
 106 192 l 1,51,52
 84 208 84 208 68 230 c 1,53,-1
 99 248 l 1,48,49
296 224 m 1,54,55
 312 236 312 236 321 248 c 1,56,-1
 352 230 l 1,57,58
 338 211 338 211 314 193 c 1,59,-1
 296 224 l 1,54,55
340 282 m 1,60,61
 346 297 346 297 349 315 c 1,62,-1
 385 315 l 1,63,64
 382 290 382 290 371 264 c 1,65,-1
 340 282 l 1,60,61
72 315 m 1,66,67
 76 291 76 291 80 281 c 1,68,-1
 49 263 l 1,69,70
 38 288 38 288 35 315 c 1,71,-1
 72 315 l 1,66,67
EndSplineSet
Validated: 1
EndChar

StartChar: .notdef
Encoding: 65536 -1 84
Width: 500
Flags: MW
LayerCount: 2
Fore
SplineSet
63 0 m 1,0,-1
 63 706 l 1,1,-1
 438 706 l 1,2,-1
 438 0 l 1,3,-1
 63 0 l 1,0,-1
125 63 m 1,4,-1
 375 63 l 1,5,-1
 375 644 l 1,6,-1
 125 644 l 1,7,-1
 125 63 l 1,4,-1
EndSplineSet
Validated: 1
EndChar

StartChar: uni0A4D_uni0A30
Encoding: 65537 -1 85
Width: 10
Flags: MW
AnchorPoint: "pairin_rara" -177 -30 mark 0
LayerCount: 2
Fore
SplineSet
-240 -136 m 128,-1,1
 -240 -107 -240 -107 -222.5 -87.5 c 128,-1,2
 -205 -68 -205 -68 -177 -65 c 1,3,-1
 -177 -30 l 1,4,-1
 -96 -30 l 1,5,-1
 -96 -77 l 1,6,7
 5 -105 5 -105 88 -209 c 0,8,9
 116 -246 116 -246 116 -260 c 0,10,11
 116 -264 116 -264 112 -264 c 128,-1,12
 108 -264 108 -264 62 -230 c 128,-1,13
 16 -196 16 -196 -14 -178 c 0,14,15
 -44 -158 -44 -158 -90 -157 c 1,16,17
 -112 -209 -112 -209 -163 -209 c 0,18,19
 -193 -209 -193 -209 -216.5 -187 c 128,-1,0
 -240 -165 -240 -165 -240 -136 c 128,-1,1
EndSplineSet
Validated: 1
LCarets2: 1 0
Ligature2: "'blwf' Below Base Forms in Gurmukhi lookup 1 subtable" uni0A30 uni0A4D
Ligature2: "'blwf' Below Base Forms in Gurmukhi lookup 1 subtable" uni0A4D uni0A30
EndChar

StartChar: uni0A4D_uni0A35
Encoding: 65538 -1 86
Width: 10
Flags: MW
LayerCount: 2
Fore
SplineSet
-341 -167 m 1,0,1
 -363 -165 -363 -165 -379.5 -148 c 128,-1,2
 -396 -131 -396 -131 -396 -107 c 0,3,4
 -396 -40 -396 -40 -323 -40 c 2,5,-1
 -181 -40 l 1,6,-1
 -181 -26 l 1,7,-1
 -141 -26 l 1,8,-1
 -141 -96 l 1,9,-1
 -320 -96 l 2,10,11
 -337 -96 -337 -96 -337 -110 c 0,12,13
 -337 -126 -337 -126 -321 -126 c 2,14,-1
 -127 -126 l 1,15,-1
 -127 -164 l 1,16,-1
 -262 -164 l 2,17,18
 -289 -164 -289 -164 -289 -178 c 128,-1,19
 -289 -192 -289 -192 -262 -192 c 2,20,-1
 -127 -192 l 1,21,-1
 -127 -240 l 1,22,-1
 -267 -240 l 2,23,24
 -298 -240 -298 -240 -320 -223 c 128,-1,25
 -342 -206 -342 -206 -343 -179 c 0,26,27
 -343 -175 -343 -175 -341 -167 c 1,0,1
EndSplineSet
Validated: 1
Ligature2: "'blwf' Below Base Forms in Gurmukhi lookup 1 subtable" uni0A35 uni0A4D
Ligature2: "'blwf' Below Base Forms in Gurmukhi lookup 1 subtable" uni0A4D uni0A35
EndChar

StartChar: uni0A4D_uni0A39
Encoding: 65539 -1 87
Width: 10
Flags: MW
LayerCount: 2
Fore
SplineSet
-123 -146 m 2,0,1
 -123 -190 -123 -190 -161 -214 c 0,2,3
 -194 -234 -194 -234 -240 -234 c 0,4,5
 -285 -234 -285 -234 -322 -207 c 0,6,7
 -363 -176 -363 -176 -363 -127 c 0,8,9
 -363 -83 -363 -83 -341.5 -55.5 c 128,-1,10
 -320 -28 -320 -28 -290 -28 c 2,11,-1
 -271 -28 l 1,12,-1
 -271 -96 l 1,13,14
 -295 -96 -295 -96 -295 -120 c 0,15,16
 -295 -168 -295 -168 -237 -168 c 0,17,18
 -199 -168 -199 -168 -199 -132 c 2,19,-1
 -199 -30 l 1,20,-1
 -123 -30 l 1,21,-1
 -123 -146 l 2,0,1
EndSplineSet
Validated: 1
LCarets2: 1 0
Ligature2: "'blwf' Below Base Forms in Gurmukhi lookup 1 subtable" uni0A39 uni0A4D
Ligature2: "'blwf' Below Base Forms in Gurmukhi lookup 1 subtable" uni0A4D uni0A39
EndChar

StartChar: uni0A4D_uni0A1A
Encoding: 65540 -1 88
Width: 10
Flags: MW
LayerCount: 2
Fore
SplineSet
-183 -213 m 1,0,-1
 -183 -172 l 1,1,-1
 -296 -172 l 1,2,3
 -296 -198 -296 -198 -280 -220 c 128,-1,4
 -264 -242 -264 -242 -224 -242 c 128,-1,5
 -184 -242 -184 -242 -183 -213 c 1,0,-1
-211 -308 m 0,6,7
 -294 -308 -294 -308 -338 -252 c 0,8,9
 -368 -213 -368 -213 -368 -172 c 1,10,-1
 -419 -172 l 1,11,12
 -419 -136 -419 -136 -420 -133 c 0,13,14
 -414 -88 -414 -88 -387.5 -75 c 128,-1,15
 -361 -62 -361 -62 -300 -62 c 1,16,-1
 -300 -109 l 1,17,-1
 -183 -109 l 1,18,-1
 -183 -30 l 1,19,-1
 -107 -30 l 1,20,-1
 -107 -218 l 2,21,22
 -107 -273 -107 -273 -153 -295 c 0,23,24
 -179 -308 -179 -308 -211 -308 c 0,6,7
EndSplineSet
Validated: 1
Ligature2: "'blwf' Below Base Forms in Gurmukhi lookup 1 subtable" uni0A1A uni0A4D
Ligature2: "'blwf' Below Base Forms in Gurmukhi lookup 1 subtable" uni0A4D uni0A1A
EndChar

StartChar: uni0A4D_uni0A24
Encoding: 65541 -1 89
Width: 10
Flags: MW
LayerCount: 2
Fore
SplineSet
-180 -176 m 1,0,-1
 -247 -184 l 1,1,2
 -311 -184 -311 -184 -311 -150 c 128,-1,3
 -311 -116 -311 -116 -247 -116 c 0,4,5
 -228 -116 -228 -116 -207 -124.5 c 128,-1,6
 -186 -133 -186 -133 -176 -133 c 128,-1,7
 -166 -133 -166 -133 -159.5 -120.5 c 128,-1,8
 -153 -108 -153 -108 -153 -92 c 0,9,10
 -153 -56 -153 -56 -180 -30 c 1,11,-1
 -105 -30 l 1,12,13
 -78 -58 -78 -58 -78 -93 c 128,-1,14
 -78 -128 -78 -128 -96 -145 c 1,15,16
 -112 -153 -112 -153 -121 -159 c 1,17,18
 -111 -159 -111 -159 -95 -176 c 0,19,20
 -78 -191 -78 -191 -78 -212 c 0,21,22
 -78 -262 -78 -262 -107.5 -280.5 c 128,-1,23
 -137 -299 -137 -299 -196 -299 c 128,-1,24
 -255 -299 -255 -299 -294 -270 c 0,25,26
 -336 -243 -336 -243 -336 -217 c 0,27,28
 -336 -205 -336 -205 -313 -205 c 0,29,30
 -306 -207 -306 -207 -295 -218 c 0,31,32
 -266 -248 -266 -248 -209.5 -248 c 128,-1,33
 -153 -248 -153 -248 -153 -205 c 0,34,35
 -153 -176 -153 -176 -180 -176 c 1,0,-1
EndSplineSet
Validated: 1
Ligature2: "'blwf' Below Base Forms in Gurmukhi lookup 1 subtable" uni0A24 uni0A4D
Ligature2: "'blwf' Below Base Forms in Gurmukhi lookup 1 subtable" uni0A4D uni0A24
EndChar

StartChar: uni0A4D_uni0A28
Encoding: 65542 -1 90
Width: 10
Flags: MW
LayerCount: 2
Fore
SplineSet
-174 -360 m 1,0,1
 -246 -360 -246 -360 -288 -323.5 c 128,-1,2
 -330 -287 -330 -287 -330 -219 c 0,3,4
 -330 -170 -330 -170 -282 -126 c 128,-1,5
 -234 -82 -234 -82 -182 -80 c 1,6,-1
 -182 -30 l 1,7,-1
 -99 -30 l 1,8,-1
 -99 -80 l 1,9,10
 -47 -82 -47 -82 0 -126 c 128,-1,11
 47 -170 47 -170 47 -219 c 0,12,13
 47 -287 47 -287 5.5 -323.5 c 128,-1,14
 -36 -360 -36 -360 -108 -360 c 1,15,-1
 -108 -295 l 1,16,17
 -28 -295 -28 -295 -28 -230 c 0,18,19
 -28 -190 -28 -190 -68 -168 c 128,-1,20
 -108 -146 -108 -146 -140 -145 c 0,21,22
 -172 -146 -172 -146 -212 -168 c 128,-1,23
 -252 -190 -252 -190 -252 -230 c 128,-1,24
 -252 -270 -252 -270 -218 -285 c 0,25,26
 -198 -295 -198 -295 -174 -295 c 1,27,-1
 -174 -360 l 1,0,1
EndSplineSet
Validated: 1
Ligature2: "'blwf' Below Base Forms in Gurmukhi lookup 1 subtable" uni0A28 uni0A4D
Ligature2: "'blwf' Below Base Forms in Gurmukhi lookup 1 subtable" uni0A4D uni0A28
EndChar

StartChar: uni0A4D_uni0A1F
Encoding: 65543 -1 91
Width: 10
Flags: MW
LayerCount: 2
Fore
SplineSet
-189 -68 m 2,0,-1
 -181 -68 l 1,1,-1
 -181 -30 l 1,2,-1
 -106 -30 l 1,3,-1
 -106 -134 l 1,4,-1
 -121 -134 l 2,5,6
 -216 -134 -216 -134 -288 -208 c 1,7,8
 -243 -253 -243 -253 -216 -253 c 1,9,-1
 -215 -252 l 1,10,11
 -188 -252 -188 -252 -160 -234 c 2,12,-1
 -132 -216 l 1,13,14
 -113 -216 -113 -216 -113 -237 c 128,-1,15
 -113 -258 -113 -258 -151 -286 c 128,-1,16
 -189 -314 -189 -314 -230 -314 c 2,17,-1
 -231 -314 l 2,18,19
 -272 -314 -272 -314 -324 -264 c 0,20,21
 -375 -213 -375 -213 -375 -196.5 c 128,-1,22
 -375 -180 -375 -180 -308 -124 c 128,-1,23
 -241 -68 -241 -68 -189 -68 c 2,0,-1
EndSplineSet
Validated: 1
Ligature2: "'blwf' Below Base Forms in Gurmukhi lookup 1 subtable" uni0A1F uni0A4D
Ligature2: "'blwf' Below Base Forms in Gurmukhi lookup 1 subtable" uni0A4D uni0A1F
EndChar

StartChar: uni0A4D_uni0A2F
Encoding: 65544 -1 92
Width: 615
Flags: MW
LayerCount: 2
Fore
SplineSet
-4 503 m 1,0,-1
 -4 599 l 5,1,-1
 644 599 l 1,2,-1
 644 503 l 1,3,-1
 505 503 l 1,4,-1
 505 0 l 1,5,-1
 398 0 l 1,6,-1
 398 288 l 1,7,-1
 321 302 l 1,8,-1
 262 54 l 1,9,-1
 0 166 l 1,10,-1
 48 258 l 1,11,-1
 190 196 l 1,12,-1
 242 416 l 1,13,-1
 398 388 l 1,14,-1
 398 503 l 1,15,-1
 -4 503 l 1,0,-1
EndSplineSet
Validated: 1
LCarets2: 1 0
Ligature2: "'pstf' Post Base Forms in Gurmukhi lookup 1 subtable" uni0A2F uni0A4D
Ligature2: "'pstf' Post Base Forms in Gurmukhi lookup 1 subtable" uni0A4D uni0A2F
EndChar

StartChar: uni0A15_uni0A4D_uni0A30
Encoding: 65545 -1 93
Width: 647
Flags: MW
LayerCount: 2
Fore
SplineSet
140 316 m 128,-1,1
 112 292 112 292 112 255 c 128,-1,2
 112 218 112 218 143.5 192 c 128,-1,3
 175 166 175 166 220 166 c 128,-1,4
 265 166 265 166 287 186 c 128,-1,5
 309 206 309 206 334 253 c 1,6,7
 278 340 278 340 204 340 c 0,8,0
 168 340 168 340 140 316 c 128,-1,1
81 -143.5 m 128,-1,10
 53 -121 53 -121 53 -85.5 c 128,-1,11
 53 -50 53 -50 82 -25.5 c 128,-1,12
 111 -1 111 -1 146 -1 c 0,13,14
 153 -1 153 -1 163 -3 c 1,15,-1
 163 74 l 1,16,17
 1 114 1 114 1 262 c 0,18,19
 1 327 1 327 54 382.5 c 128,-1,20
 107 438 107 438 201.5 438 c 128,-1,21
 296 438 296 438 386 345 c 1,22,23
 394 361 394 361 405 408 c 128,-1,24
 416 455 416 455 416 476.5 c 128,-1,25
 416 498 416 498 415 503 c 1,26,-1
 -4 503 l 1,27,-1
 -4 599 l 1,28,-1
 684 599 l 1,29,-1
 684 503 l 1,30,-1
 530 503 l 1,31,-1
 530 483 l 2,32,33
 530 345 530 345 465 232 c 1,34,35
 535 99 535 99 535 2 c 0,36,37
 535 0 535 0 535 -1 c 1,38,-1
 421 0 l 1,39,40
 408 107 408 107 388 139 c 1,41,42
 321 84 321 84 270 72 c 1,43,-1
 270 -42 l 1,44,45
 346 -86 346 -86 441 -192 c 1,46,-1
 396 -217 l 1,47,48
 284 -129 284 -129 229 -129 c 2,49,-1
 225 -129 l 1,50,51
 197 -166 197 -166 153 -166 c 128,-1,9
 109 -166 109 -166 81 -143.5 c 128,-1,10
EndSplineSet
Validated: 1
LCarets2: 2 0 0
Ligature2: "'blws' Below Base Substitutions in Gurmukhi lookup 5 subtable" uni0A15 uni0A4D_uni0A30
Ligature2: "'blws' Below Base Substitutions in Gurmukhi lookup 5 subtable" uni0A15 uni0A4D uni0A30
EndChar

StartChar: uni0A28_uni0A42_uni0A70
Encoding: 65546 -1 94
Width: 621
Flags: MW
LayerCount: 2
Fore
SplineSet
-4 503 m 1,0,-1
 -4 599 l 1,1,-1
 653 599 l 1,2,-1
 653 503 l 1,3,-1
 319 503 l 1,4,-1
 319 407 l 1,5,6
 388 406 388 406 456 344 c 0,7,8
 522 282 522 282 522 216 c 0,9,10
 522 101 522 101 437 52 c 0,11,12
 387 23 387 23 342 23 c 1,13,-1
 342 115 l 1,14,15
 360 115 360 115 380 128 c 0,16,17
 416 150 416 150 416 203 c 128,-1,18
 416 256 416 256 356 290 c 0,19,20
 310 317 310 317 263.5 317 c 128,-1,21
 217 317 217 317 169 290 c 0,22,23
 108 256 108 256 108 200 c 0,24,25
 108 155 108 155 141 131 c 0,26,27
 160 116 160 116 176 116 c 1,28,-1
 176 24 l 1,29,30
 135 24 135 24 86 53 c 0,31,32
 2 102 2 102 2 216 c 0,33,34
 2 282 2 282 68 344 c 0,35,36
 136 406 136 406 205 407 c 1,37,-1
 205 503 l 1,38,-1
 -4 503 l 1,0,-1
350.5 839.5 m 128,-1,40
 382 813 382 813 382 775 c 128,-1,41
 382 737 382 737 366.5 701.5 c 128,-1,42
 351 666 351 666 325 666 c 0,43,44
 309 666 309 666 309 685 c 0,45,46
 309 687 309 687 314.5 707.5 c 128,-1,47
 320 728 320 728 320 746 c 0,48,49
 320 789 320 789 270 789 c 128,-1,50
 220 789 220 789 220 753 c 0,51,52
 220 732 220 732 229 715.5 c 128,-1,53
 238 699 238 699 238 690 c 0,54,55
 238 669 238 669 217 669 c 1,56,-1
 216 670 l 1,57,58
 194 670 194 670 175 704 c 128,-1,59
 156 738 156 738 156 775 c 128,-1,60
 156 812 156 812 191.5 839 c 128,-1,61
 227 866 227 866 272 866 c 2,62,-1
 276 866 l 2,63,39
 319 866 319 866 350.5 839.5 c 128,-1,40
67 -126 m 1,64,65
 162 -156 162 -156 259 -156 c 128,-1,66
 356 -156 356 -156 454 -126 c 1,67,-1
 454 -206 l 1,68,69
 368 -237 368 -237 265.5 -237 c 128,-1,70
 163 -237 163 -237 67 -210 c 1,71,-1
 67 -126 l 1,64,65
67 0 m 1,72,73
 162 -30 162 -30 259 -30 c 128,-1,74
 356 -30 356 -30 454 0 c 1,75,-1
 454 -80 l 1,76,77
 368 -111 368 -111 265.5 -111 c 128,-1,78
 163 -111 163 -111 67 -84 c 1,79,-1
 67 0 l 1,72,73
EndSplineSet
Validated: 1
LCarets2: 2 0 0
Ligature2: "'abvs' Above Base Substitutions in Gurmukhi lookup 4 subtable" uni0A28 uni0A70 uni0A42
Ligature2: "'abvs' Above Base Substitutions in Gurmukhi lookup 4 subtable" uni0A28 uni0A42 uni0A70
EndChar

StartChar: _uni0A02
Encoding: 65547 -1 95
Width: 0
Flags: MW
LayerCount: 2
Fore
SplineSet
-208.5 673.5 m 128,-1,1
 -229 694 -229 694 -229 722.5 c 128,-1,2
 -229 751 -229 751 -209 771 c 128,-1,3
 -189 791 -189 791 -160.5 791 c 128,-1,4
 -132 791 -132 791 -111.5 770.5 c 128,-1,5
 -91 750 -91 750 -91 722.5 c 128,-1,6
 -91 695 -91 695 -112 674 c 128,-1,7
 -133 653 -133 653 -160.5 653 c 128,-1,0
 -188 653 -188 653 -208.5 673.5 c 128,-1,1
EndSplineSet
Validated: 1
EndChar

StartChar: uni0A09_uni0A02
Encoding: 65548 -1 96
Width: 824
Flags: MW
LayerCount: 2
Fore
SplineSet
661.5 674.5 m 128,-1,1
 641 695 641 695 641 723 c 128,-1,2
 641 751 641 751 661.5 771.5 c 128,-1,3
 682 792 682 792 710 792 c 128,-1,4
 738 792 738 792 758.5 772 c 128,-1,5
 779 752 779 752 779 723.5 c 128,-1,6
 779 695 779 695 759 674.5 c 128,-1,7
 739 654 739 654 710.5 654 c 128,-1,0
 682 654 682 654 661.5 674.5 c 128,-1,1
163 -27 m 1,8,9
 258 -57 258 -57 355 -57 c 128,-1,10
 452 -57 452 -57 550 -27 c 1,11,-1
 550 -107 l 1,12,13
 464 -138 464 -138 361.5 -138 c 128,-1,14
 259 -138 259 -138 163 -111 c 1,15,-1
 163 -27 l 1,8,9
153 599 m 1,16,-1
 502 599 l 1,17,18
 483 780 483 780 327 780 c 0,19,20
 186 780 186 780 153 599 c 1,16,-1
433 157 m 0,21,22
 433 189 433 189 395 212.5 c 128,-1,23
 357 236 357 236 318 236 c 2,24,-1
 188 236 l 1,25,26
 194 201 194 201 237 155 c 0,27,28
 294 94 294 94 363.5 94 c 128,-1,29
 433 94 433 94 433 157 c 0,21,22
143 503 m 1,30,31
 143 491 143 491 142.5 479 c 128,-1,32
 142 467 142 467 143 457 c 2,33,-1
 144 423 l 1,34,35
 144 387 144 387 157 334 c 1,36,-1
 372 334 l 2,37,38
 507 334 507 334 507 503 c 1,39,-1
 143 503 l 1,30,31
41 599 m 1,40,41
 58 722 58 722 132.5 799 c 128,-1,42
 207 876 207 876 329 876 c 0,43,44
 567 876 567 876 604 599 c 1,45,-1
 905 599 l 1,46,-1
 905 503 l 1,47,-1
 610 503 l 1,48,49
 607 327 607 327 489 269 c 1,50,51
 542 204 542 204 542 151 c 0,52,53
 542 80 542 80 491.5 39 c 128,-1,54
 441 -2 441 -2 363 -2 c 0,55,56
 224 -2 224 -2 132 126 c 0,57,58
 34 266 34 266 34 503 c 1,59,-1
 -6 503 l 1,60,-1
 -6 599 l 1,61,-1
 41 599 l 1,40,41
EndSplineSet
Validated: 1
Ligature2: "'abvs' Above Base Substitutions in Gurmukhi lookup 4 subtable" uni0A73 uni0A41 uni0A02
Ligature2: "'abvs' Above Base Substitutions in Gurmukhi lookup 4 subtable" uni0A09 uni0A02
EndChar

StartChar: exclam
Encoding: 33 33 100
Width: 480
Flags: MW
LayerCount: 2
Fore
SplineSet
325 837 m 1,0,-1
 476 837 l 1,1,-1
 422 201 l 1,2,-1
 379 201 l 1,3,-1
 325 837 l 1,0,-1
476 55 m 1,4,-1
 400 -21 l 1,5,-1
 325 54 l 1,6,-1
 401 130 l 1,7,-1
 476 55 l 1,4,-1
EndSplineSet
Validated: 1
EndChar

StartChar: comma
Encoding: 44 44 101
Width: 293
Flags: MW
LayerCount: 2
Fore
SplineSet
234 15 m 2,0,1
 234 -22 234 -22 220 -52.5 c 128,-1,2
 206 -83 206 -83 178 -83 c 128,-1,3
 150 -83 150 -83 135 -71 c 1,4,5
 168 -24 168 -24 168 44 c 0,6,7
 168 61 168 61 160 75 c 1,8,-1
 116 119 l 1,9,-1
 197 200 l 1,10,-1
 283 113 l 1,11,-1
 234 64 l 1,12,-1
 234 15 l 2,0,1
EndSplineSet
Validated: 1
EndChar

StartChar: period
Encoding: 46 46 102
Width: 300
Flags: MW
LayerCount: 2
Fore
SplineSet
213 166 m 1,0,-1
 299 80 l 1,1,-1
 218 -1 l 1,2,-1
 132 85 l 1,3,-1
 213 166 l 1,0,-1
EndSplineSet
Validated: 1
EndChar

StartChar: colon
Encoding: 58 58 103
Width: 300
Flags: MW
LayerCount: 2
Fore
SplineSet
74 113 m 1,0,-1
 155 194 l 1,1,-1
 236 113 l 1,2,-1
 155 32 l 1,3,-1
 74 113 l 1,0,-1
70 461 m 1,4,-1
 152 543 l 1,5,-1
 233 462 l 1,6,-1
 151 380 l 1,7,-1
 70 461 l 1,4,-1
EndSplineSet
Validated: 1
EndChar

StartChar: semicolon
Encoding: 59 59 104
Width: 293
Flags: MW
LayerCount: 2
Fore
SplineSet
254 58 m 2,0,-1
 247 4 l 1,1,2
 247 -29 247 -29 217 -68 c 0,3,4
 188 -109 188 -109 168.5 -109 c 128,-1,5
 149 -109 149 -109 149 -94 c 0,6,7
 149 -84 149 -84 168 -50 c 128,-1,8
 187 -16 187 -16 187 28 c 0,9,10
 186 37 186 37 172 63 c 1,11,-1
 128 107 l 1,12,-1
 209 188 l 1,13,-1
 282 115 l 1,14,15
 281 102 281 102 268 82 c 0,16,17
 254 64 254 64 254 58 c 2,0,-1
193 546 m 1,18,-1
 279 459 l 1,19,-1
 198 379 l 1,20,-1
 112 465 l 1,21,-1
 193 546 l 1,18,-1
EndSplineSet
Validated: 1
EndChar

StartChar: question
Encoding: 63 63 105
Width: 500
Flags: MW
LayerCount: 2
Fore
SplineSet
341 37 m 1,0,-1
 265 -39 l 1,1,-1
 190 36 l 1,2,-1
 266 112 l 1,3,-1
 341 37 l 1,0,-1
283 863 m 0,4,5
 287 863 287 863 291 863 c 0,6,7
 375 863 375 863 436 796 c 128,-1,8
 497 729 497 729 497 640 c 128,-1,9
 497 551 497 551 434 487 c 0,10,11
 382 432 382 432 320 417 c 1,12,-1
 302 187 l 1,13,-1
 240 187 l 1,14,-1
 224 511 l 1,15,16
 398 542 398 542 398 653 c 0,17,18
 398 770 398 770 302 770 c 0,19,20
 264 770 264 770 244 735 c 128,-1,21
 224 700 224 700 187 700 c 0,22,23
 127 700 127 700 127 775 c 0,24,25
 129 812 129 812 182 838 c 0,26,27
 233 863 233 863 279 863 c 0,28,29
 281 863 281 863 283 863 c 0,4,5
EndSplineSet
Validated: 1
EndChar

StartChar: less
Encoding: 60 60 106
Width: 314
Flags: MW
LayerCount: 2
Fore
SplineSet
248 455 m 1,0,-1
 248 351 l 1,1,-1
 89 227 l 1,2,-1
 248 104 l 1,3,-1
 248 0 l 1,4,-1
 0 189 l 1,5,-1
 0 267 l 1,6,-1
 248 455 l 1,0,-1
EndSplineSet
Validated: 1
EndChar

StartChar: uni0A75_uni0A70_uni0A2A_uni0A42
Encoding: 65551 -1 107
Width: 736
UnlinkRmOvrlpSave: 1
Flags: MW
LayerCount: 2
Fore
SplineSet
-7 503 m 1,0,-1
 -7 599 l 1,1,-1
 213 599 l 1,2,-1
 213 503 l 1,3,-1
 -7 503 l 1,0,-1
EndSplineSet
Refer: 81 2672 N 1 0 0 1 0 0 2
Refer: 19 2626 N 1 0 0 1 736 0 2
Refer: 46 2602 N 1 0 0 1 170 0 2
Refer: 10 2677 N 1 0 0 1 0 0 2
LCarets2: 3 0 0 0
Ligature2: "'blws' Below Base Substitutions in Gurmukhi lookup 5 subtable" uni0A75 uni0A70 uni0A2A uni0A42
Ligature2: "'psts' Post Base Substitutions in Gurmukhi lookup 3 subtable" uni0A75 uni0A70 uni0A2A uni0A42
Ligature2: "Ligatures in Gurmukhi lookup 6 subtable" uni0A75 uni0A70 uni0A2A uni0A42
EndChar

StartChar: _uni0A75
Encoding: 65573 -1 128
Width: 10
Flags: MW
AnchorPoint: "yakash" -176 -30 mark 0
LayerCount: 2
Fore
SplineSet
-125 -30 m 1,0,1
 -127 -56 -127 -56 -127 -78 c 0,2,3
 -127 -111 -127 -111 -123 -137 c 0,4,5
 -115 -193 -115 -193 -59 -193 c 0,6,7
 -39 -193 -39 -193 -27 -185.5 c 128,-1,8
 -15 -178 -15 -178 4 -148 c 128,-1,9
 23 -118 23 -118 32 -118 c 0,10,11
 48 -118 48 -118 48 -161.5 c 128,-1,12
 48 -205 48 -205 25.5 -241 c 128,-1,13
 3 -277 3 -277 -44 -277 c 128,-1,14
 -91 -277 -91 -277 -133.5 -242.5 c 128,-1,15
 -176 -208 -176 -208 -184 -152 c 0,16,17
 -187 -134 -187 -134 -187 -116 c 0,18,19
 -187 -73 -187 -73 -172 -30 c 1,20,-1
 -125 -30 l 1,0,1
EndSplineSet
Validated: 1
LCarets2: 1 0
Ligature2: "Ligatures in Gurmukhi lookup 6 subtable" uni0A75 uni200D
EndChar

StartChar: _uni0A71
Encoding: 65579 -1 131
Width: 176
Flags: MW
LayerCount: 2
Fore
SplineSet
-2 599 m 5,0,-1
 217 599 l 1,1,-1
 217 503 l 1,2,-1
 -2 503 l 1,3,-1
 -2 599 l 5,0,-1
-81 828 m 0,4,5
 -71 828 -71 828 -66 813 c 2,6,-1
 -57 788 l 1,7,8
 -33 750 -33 750 -13 735 c 128,-1,9
 7 720 7 720 38 720 c 0,10,11
 110 720 110 720 138 822 c 0,12,13
 142 834 142 834 155 834 c 0,14,15
 175 834 175 834 175 792.5 c 128,-1,16
 175 751 175 751 143 708 c 0,17,18
 101 653 101 653 39 653 c 128,-1,19
 -23 653 -23 653 -64.5 698.5 c 128,-1,20
 -106 744 -106 744 -106 786 c 128,-1,21
 -106 828 -106 828 -81 828 c 0,4,5
EndSplineSet
Validated: 1
EndChar

StartChar: _uni0A2F
Encoding: 65582 -1 134
Width: 10
Flags: MW
LayerCount: 2
Fore
SplineSet
-101 -30 m 1,0,-1
 -101 -324 l 1,1,-1
 -177 -324 l 1,2,-1
 -177 -167 l 1,3,-1
 -248 -167 l 1,4,-1
 -248 -263 l 1,5,6
 -286 -292 -286 -292 -338 -292 c 0,7,8
 -460 -292 -460 -292 -542 -163 c 1,9,10
 -487 -138 -487 -138 -487 -78 c 0,11,12
 -487 -54 -487 -54 -497 -30 c 1,13,-1
 -422 -30 l 1,14,15
 -410 -50 -410 -50 -410 -84 c 128,-1,16
 -410 -118 -410 -118 -422 -144 c 128,-1,17
 -434 -170 -434 -170 -442 -175 c 1,18,19
 -396 -226 -396 -226 -355 -226 c 0,20,21
 -328 -226 -328 -226 -324 -214 c 1,22,-1
 -324 -108 l 1,23,-1
 -177 -108 l 1,24,-1
 -177 -30 l 1,25,-1
 -101 -30 l 1,0,-1
EndSplineSet
Validated: 1
EndChar

StartChar: uni0A32_uni0A42
Encoding: 65583 -1 135
Width: 670
Flags: MW
LayerCount: 2
Fore
SplineSet
292 361 m 0,0,1
 343 361 343 361 364 503 c 1,2,-1
 329 504 l 1,3,-1
 302 504 l 2,4,5
 255 504 255 504 224 503 c 1,6,7
 228 449 228 449 250 405 c 128,-1,8
 272 361 272 361 292 361 c 0,0,1
215 1 m 1,9,10
 117 1 117 1 59.5 59 c 128,-1,11
 2 117 2 117 2 215 c 0,12,13
 2 278 2 278 50 328 c 0,14,15
 101 379 101 379 147 380 c 1,16,17
 107 430 107 430 101 503 c 1,18,-1
 -4 503 l 1,19,-1
 -4 599 l 1,20,-1
 716 599 l 1,21,-1
 716 503 l 1,22,-1
 487 503 l 1,23,24
 471 418 471 418 441 380 c 1,25,26
 487 379 487 379 538 328 c 0,27,28
 586 278 586 278 586 215 c 0,29,30
 586 107 586 107 516 49 c 0,31,32
 458 1 458 1 375 1 c 1,33,-1
 375 94 l 1,34,35
 399 94 399 94 425 110 c 0,36,37
 470 136 470 136 470 193 c 0,38,39
 470 286 470 286 400 286 c 0,40,41
 366 286 366 286 347 259 c 0,42,43
 345 256 345 256 323 209 c 0,44,45
 312 182 312 182 294 182 c 128,-1,46
 276 182 276 182 264 209 c 0,47,48
 258 222 258 222 252.5 234.5 c 128,-1,49
 247 247 247 247 244 252.5 c 128,-1,50
 241 258 241 258 241 259 c 0,51,52
 222 286 222 286 188 286 c 0,53,54
 118 286 118 286 118 193 c 0,55,56
 118 136 118 136 165 110 c 0,57,58
 191 94 191 94 215 94 c 1,59,-1
 215 1 l 1,9,10
101 -153 m 1,60,61
 196 -183 196 -183 293 -183 c 128,-1,62
 390 -183 390 -183 488 -153 c 1,63,-1
 488 -233 l 1,64,65
 402 -264 402 -264 300 -264 c 128,-1,66
 198 -264 198 -264 101 -237 c 1,67,-1
 101 -153 l 1,60,61
101 -27 m 1,68,69
 196 -57 196 -57 293 -57 c 128,-1,70
 390 -57 390 -57 488 -27 c 1,71,-1
 488 -107 l 1,72,73
 402 -138 402 -138 300 -138 c 128,-1,74
 198 -138 198 -138 101 -111 c 1,75,-1
 101 -27 l 1,68,69
EndSplineSet
Validated: 1
Ligature2: "'blws' Below Base Substitutions in Gurmukhi lookup 5 subtable" uni0A32 uni0A42
EndChar

StartChar: uni0A32_uni0A70
Encoding: 65584 -1 136
Width: 670
Flags: MW
AnchorPoint: "yakash" 322 -30 basechar 0
LayerCount: 2
Fore
SplineSet
301 776 m 128,-1,1
 279 776 279 776 261 761 c 128,-1,2
 243 746 243 746 243 728 c 128,-1,3
 243 710 243 710 250 693 c 128,-1,4
 257 676 257 676 257 668 c 0,5,6
 257 653 257 653 236 653 c 2,7,-1
 235 653 l 2,8,9
 235 653 235 653 235 653 c 0,10,-1
 235 653 l 0,11,12
 235 653 235 653 235 653 c 0,13,14
 228 653 228 653 208 680 c 0,15,16
 188 708 188 708 188 749 c 128,-1,17
 188 790 188 790 218 826 c 128,-1,18
 248 862 248 862 298 862 c 2,19,-1
 300 862 l 2,20,21
 352 862 352 862 382 827 c 128,-1,22
 412 792 412 792 412 739 c 0,23,24
 412 713 412 713 392 684 c 0,25,26
 374 653 374 653 347 653 c 0,27,28
 337 652 337 652 337 658 c 0,29,30
 336 664 336 664 346 686 c 128,-1,31
 356 708 356 708 356 726 c 128,-1,32
 356 744 356 744 339.5 760 c 128,-1,0
 323 776 323 776 301 776 c 128,-1,1
292 361 m 0,33,34
 343 361 343 361 364 503 c 1,35,-1
 329 504 l 1,36,-1
 302 504 l 2,37,38
 255 504 255 504 224 503 c 1,39,40
 229 449 229 449 250.5 405 c 128,-1,41
 272 361 272 361 292 361 c 0,33,34
215 1 m 1,42,43
 117 1 117 1 59.5 59 c 128,-1,44
 2 117 2 117 2 215 c 0,45,46
 2 278 2 278 50 328 c 0,47,48
 101 379 101 379 147 380 c 1,49,50
 107 430 107 430 101 503 c 1,51,-1
 -4 503 l 1,52,-1
 -4 599 l 1,53,-1
 716 599 l 1,54,-1
 716 503 l 1,55,-1
 487 503 l 1,56,57
 471 418 471 418 441 380 c 1,58,59
 487 379 487 379 538 328 c 0,60,61
 586 278 586 278 586 215 c 0,62,63
 586 107 586 107 516 49 c 0,64,65
 458 1 458 1 375 1 c 1,66,-1
 375 94 l 1,67,68
 399 94 399 94 425 110 c 0,69,70
 470 136 470 136 470 193 c 0,71,72
 470 286 470 286 400 286 c 0,73,74
 366 286 366 286 347 259 c 0,75,76
 345 256 345 256 323 209 c 0,77,78
 312 182 312 182 294 182 c 128,-1,79
 276 182 276 182 264 209 c 0,80,81
 258 222 258 222 252.5 234.5 c 128,-1,82
 247 247 247 247 244 252.5 c 128,-1,83
 241 258 241 258 241 259 c 0,84,85
 222 286 222 286 188 286 c 0,86,87
 118 286 118 286 118 193 c 0,88,89
 118 136 118 136 165 110 c 0,90,91
 191 94 191 94 215 94 c 1,92,-1
 215 1 l 1,42,43
EndSplineSet
Validated: 1048581
LCarets2: 1 0
Ligature2: "'abvs' Above Base Substitutions in Gurmukhi lookup 4 subtable" uni0A32 uni0A70
EndChar

StartChar: uni0A32_uni0A41
Encoding: 65585 -1 137
Width: 670
Flags: MW
LayerCount: 2
Fore
SplineSet
292 361 m 0,0,1
 343 361 343 361 364 503 c 1,2,-1
 329 504 l 1,3,-1
 302 504 l 2,4,5
 255 504 255 504 224 503 c 1,6,7
 228 449 228 449 250 405 c 128,-1,8
 272 361 272 361 292 361 c 0,0,1
215 1 m 1,9,10
 117 1 117 1 59.5 59 c 128,-1,11
 2 117 2 117 2 215 c 0,12,13
 2 278 2 278 50 328 c 0,14,15
 101 379 101 379 147 380 c 1,16,17
 107 430 107 430 101 503 c 1,18,-1
 -4 503 l 1,19,-1
 -4 599 l 1,20,-1
 716 599 l 1,21,-1
 716 503 l 1,22,-1
 487 503 l 1,23,24
 471 418 471 418 441 380 c 1,25,26
 487 379 487 379 538 328 c 0,27,28
 586 278 586 278 586 215 c 0,29,30
 586 107 586 107 516 49 c 0,31,32
 458 1 458 1 375 1 c 1,33,-1
 375 94 l 1,34,35
 399 94 399 94 425 110 c 0,36,37
 470 136 470 136 470 193 c 0,38,39
 470 286 470 286 400 286 c 0,40,41
 366 286 366 286 347 259 c 0,42,43
 345 256 345 256 323 209 c 0,44,45
 312 182 312 182 294 182 c 128,-1,46
 276 182 276 182 264 209 c 0,47,48
 258 222 258 222 252.5 234.5 c 128,-1,49
 247 247 247 247 244 252.5 c 128,-1,50
 241 258 241 258 241 259 c 0,51,52
 222 286 222 286 188 286 c 0,53,54
 118 286 118 286 118 193 c 0,55,56
 118 136 118 136 165 110 c 0,57,58
 191 94 191 94 215 94 c 1,59,-1
 215 1 l 1,9,10
101 -47 m 1,60,61
 196 -77 196 -77 293 -77 c 128,-1,62
 390 -77 390 -77 488 -47 c 1,63,-1
 488 -127 l 1,64,65
 402 -158 402 -158 300 -158 c 128,-1,66
 198 -158 198 -158 101 -131 c 1,67,-1
 101 -47 l 1,60,61
EndSplineSet
Validated: 1
LCarets2: 1 0
Ligature2: "'blws' Below Base Substitutions in Gurmukhi lookup 5 subtable" uni0A32 uni0A41
EndChar

StartChar: uni0A1A_uni0A41
Encoding: 65586 -1 138
Width: 614
Flags: MW
LayerCount: 2
Fore
SplineSet
354 101 m 0,0,1
 356 101 356 101 358 101 c 0,2,3
 407 101 407 101 407 154 c 2,4,-1
 407 259 l 1,5,-1
 194 259 l 1,6,7
 194 216 194 216 240.5 158.5 c 128,-1,8
 287 101 287 101 354 101 c 0,0,1
152 -20 m 1,9,10
 246 -50 246 -50 344 -50 c 128,-1,11
 442 -50 442 -50 539 -20 c 1,12,-1
 539 -100 l 1,13,14
 452 -131 452 -131 350 -131 c 128,-1,15
 248 -131 248 -131 152 -104 c 1,16,-1
 152 -20 l 1,9,10
354 -1 m 0,17,18
 279 -1 279 -1 216.5 46.5 c 128,-1,19
 154 94 154 94 119 160 c 128,-1,20
 84 226 84 226 84 259 c 1,21,-1
 -1 259 l 1,22,-1
 -1 323 l 2,23,24
 -1 373 -1 373 34 406 c 0,25,26
 81 450 81 450 184 450 c 1,27,-1
 184 362 l 1,28,-1
 407 362 l 1,29,-1
 407 503 l 1,30,-1
 -1 503 l 1,31,-1
 -1 599 l 1,32,-1
 644 599 l 1,33,-1
 644 503 l 1,34,-1
 514 503 l 1,35,-1
 514 143 l 2,36,37
 514 -1 514 -1 354 -1 c 0,17,18
EndSplineSet
Validated: 1
Ligature2: "'blws' Below Base Substitutions in Gurmukhi lookup 5 subtable" uni0A1A uni0A41
EndChar

StartChar: _uni0A70
Encoding: 65587 -1 139
Width: 10
Flags: MW
LayerCount: 2
Fore
SplineSet
-352 776 m 128,-1,1
 -374 776 -374 776 -392 761 c 128,-1,2
 -410 746 -410 746 -410 728 c 128,-1,3
 -410 710 -410 710 -403 693 c 128,-1,4
 -396 676 -396 676 -396 668 c 0,5,6
 -396 653 -396 653 -417 653 c 0,7,8
 -424 654 -424 654 -444 680 c 128,-1,9
 -464 706 -464 706 -465 748 c 0,10,11
 -465 790 -465 790 -436 826 c 0,12,13
 -406 861 -406 861 -354 861 c 128,-1,14
 -302 861 -302 861 -271.5 827 c 128,-1,15
 -241 793 -241 793 -241 739 c 0,16,17
 -241 716 -241 716 -260 684 c 0,18,19
 -281 653 -281 653 -306 653 c 0,20,21
 -316 654 -316 654 -316 660 c 128,-1,22
 -316 666 -316 666 -306 687 c 0,23,24
 -297 706 -297 706 -297 724 c 0,25,26
 -297 726 -297 726 -297 727 c 0,27,28
 -297 746 -297 746 -313.5 761 c 128,-1,0
 -330 776 -330 776 -352 776 c 128,-1,1
EndSplineSet
Validated: 1
EndChar

StartChar: numbersign
Encoding: 35 35 143
Width: 684
Flags: MW
LayerCount: 2
Fore
SplineSet
300 613 m 1,0,-1
 276 493 l 1,1,-1
 439 493 l 1,2,-1
 462 613 l 1,3,-1
 545 613 l 1,4,-1
 522 493 l 1,5,-1
 628 493 l 1,6,-1
 628 411 l 1,7,-1
 508 411 l 1,8,-1
 478 234 l 1,9,-1
 584 234 l 1,10,-1
 584 152 l 1,11,-1
 466 152 l 1,12,-1
 440 9 l 1,13,-1
 360 9 l 1,14,-1
 385 152 l 1,15,-1
 214 152 l 1,16,-1
 186 9 l 1,17,-1
 107 9 l 1,18,-1
 132 152 l 1,19,-1
 28 152 l 1,20,-1
 28 234 l 1,21,-1
 152 234 l 1,22,-1
 182 411 l 1,23,-1
 52 411 l 1,24,-1
 52 493 l 1,25,-1
 195 493 l 1,26,-1
 219 613 l 1,27,-1
 300 613 l 1,0,-1
234 234 m 1,28,-1
 396 234 l 1,29,-1
 426 411 l 1,30,-1
 264 411 l 1,31,-1
 234 234 l 1,28,-1
EndSplineSet
Validated: 1
EndChar

StartChar: percent
Encoding: 37 37 144
Width: 524
Flags: MW
LayerCount: 2
Fore
SplineSet
483 510 m 1,0,-1
 126 0 l 1,1,-1
 66 0 l 1,2,-1
 423 510 l 1,3,-1
 483 510 l 1,0,-1
347 23 m 0,4,5
 316 55 316 55 316 121.5 c 128,-1,6
 316 188 316 188 341.5 229 c 128,-1,7
 367 270 367 270 417 270 c 0,8,9
 499 270 499 270 499 148 c 0,10,11
 499 70 499 70 462 30 c 0,12,13
 434 0 434 0 401 0 c 128,-1,14
 368 0 368 0 347 23 c 0,4,5
77 263 m 0,15,16
 46 295 46 295 46 361.5 c 128,-1,17
 46 428 46 428 71.5 469 c 128,-1,18
 97 510 97 510 147 510 c 0,19,20
 229 510 229 510 229 388 c 0,21,22
 229 310 229 310 192 270 c 0,23,24
 164 240 164 240 131 240 c 128,-1,25
 98 240 98 240 77 263 c 0,15,16
455 109 m 128,-1,27
 455 148 455 148 437.5 174 c 128,-1,28
 420 200 420 200 386 200 c 0,29,30
 360 200 360 200 360 160 c 0,31,32
 360 70 360 70 423 70 c 0,33,26
 455 70 455 70 455 109 c 128,-1,27
185 349 m 128,-1,35
 185 388 185 388 167.5 414 c 128,-1,36
 150 440 150 440 116 440 c 0,37,38
 90 440 90 440 90 400 c 0,39,40
 90 310 90 310 153 310 c 0,41,34
 185 310 185 310 185 349 c 128,-1,35
EndSplineSet
Validated: 1
EndChar

StartChar: at
Encoding: 64 64 145
Width: 700
Flags: MW
LayerCount: 2
Fore
SplineSet
404 309 m 1,0,-1
 405 321 l 1,1,2
 405 350 405 350 389 368.5 c 128,-1,3
 373 387 373 387 343.5 387 c 128,-1,4
 314 387 314 387 291 358 c 128,-1,5
 268 329 268 329 268 296 c 128,-1,6
 268 263 268 263 284 242 c 128,-1,7
 300 221 300 221 329 221 c 0,8,9
 394 221 394 221 404 309 c 1,0,-1
409 180 m 1,10,11
 368 133 368 133 310.5 133 c 128,-1,12
 253 133 253 133 212.5 176.5 c 128,-1,13
 172 220 172 220 172 290 c 128,-1,14
 172 360 172 360 218 417.5 c 128,-1,15
 264 475 264 475 331 475 c 128,-1,16
 398 475 398 475 433 425 c 1,17,-1
 441 468 l 1,18,-1
 517 468 l 1,19,-1
 477 260 l 2,20,21
 472 232 472 232 472 224 c 0,22,23
 472 205 472 205 487 207 c 0,24,25
 511 210 511 210 536.5 253.5 c 128,-1,26
 562 297 562 297 565 346 c 1,27,-1
 565 361 l 2,28,29
 565 450 565 450 505 503 c 128,-1,30
 445 556 445 556 348 556 c 128,-1,31
 251 556 251 556 187 486 c 128,-1,32
 123 416 123 416 123 311.5 c 128,-1,33
 123 207 123 207 191 139 c 128,-1,34
 259 71 259 71 357 71 c 128,-1,35
 455 71 455 71 508 103 c 1,36,-1
 573 50 l 1,37,38
 470 -4 470 -4 358 -4 c 0,39,40
 228 -4 228 -4 138 86 c 128,-1,41
 48 176 48 176 48 312.5 c 128,-1,42
 48 449 48 449 136 540 c 128,-1,43
 224 631 224 631 353 631 c 0,44,45
 464 631 464 631 541 561 c 0,46,47
 631 480 631 480 631 376 c 128,-1,48
 631 272 631 272 579 202.5 c 128,-1,49
 527 133 527 133 462 133 c 2,50,-1
 458 133 l 1,51,52
 419 135 419 135 409 180 c 1,10,11
EndSplineSet
Validated: 1
EndChar

StartChar: asterisk
Encoding: 42 42 146
Width: 385
Flags: MW
LayerCount: 2
Fore
SplineSet
155 368 m 1,0,-1
 176 516 l 1,1,-1
 78 407 l 1,2,-1
 7 504 l 1,3,-1
 149 558 l 1,4,-1
 3 596 l 1,5,-1
 64 702 l 1,6,-1
 174 600 l 1,7,-1
 145 749 l 1,8,-1
 250 749 l 1,9,-1
 226 596 l 1,10,-1
 332 703 l 1,11,-1
 387 612 l 1,12,-1
 245 558 l 1,13,-1
 386 505 l 1,14,-1
 330 414 l 1,15,-1
 222 518 l 1,16,-1
 253 368 l 1,17,-1
 155 368 l 1,0,-1
EndSplineSet
Validated: 1
EndChar

StartChar: plus
Encoding: 43 43 147
Width: 498
Flags: MW
LayerCount: 2
Fore
SplineSet
438 231 m 1,0,-1
 276 231 l 1,1,-1
 276 63 l 1,2,-1
 216 63 l 1,3,-1
 216 231 l 1,4,-1
 54 231 l 1,5,-1
 54 291 l 1,6,-1
 216 291 l 1,7,-1
 216 459 l 1,8,-1
 276 459 l 1,9,-1
 276 291 l 1,10,-1
 438 291 l 1,11,-1
 438 231 l 1,0,-1
EndSplineSet
Validated: 1
EndChar

StartChar: hyphen
Encoding: 45 45 148
Width: 356
Flags: MW
LayerCount: 2
Fore
SplineSet
316 333 m 1,0,-1
 316 253 l 1,1,-1
 49 253 l 1,2,-1
 49 333 l 1,3,-1
 316 333 l 1,0,-1
EndSplineSet
Validated: 1
EndChar

StartChar: slash
Encoding: 47 47 149
Width: 550
Flags: MW
LayerCount: 2
Fore
SplineSet
420 642 m 1,0,-1
 508 642 l 1,1,-1
 129 -98 l 1,2,-1
 41 -98 l 1,3,-1
 420 642 l 1,0,-1
EndSplineSet
Validated: 1
EndChar

StartChar: zero
Encoding: 48 48 150
Width: 600
Flags: MW
LayerCount: 2
Fore
SplineSet
464 506 m 0,0,1
 520 420 520 420 520 300.5 c 128,-1,2
 520 181 520 181 462 95 c 0,3,4
 398 -2 398 -2 296 -2 c 128,-1,5
 194 -2 194 -2 134 91 c 0,6,7
 80 174 80 174 78 290 c 1,8,-1
 78 298 l 2,9,10
 78 416 78 416 132 502 c 0,11,12
 195 602 195 602 298.5 602 c 128,-1,13
 402 602 402 602 464 506 c 0,0,1
298 554 m 0,14,15
 194 554 194 554 194 301 c 128,-1,16
 194 48 194 48 296 48 c 0,17,18
 408 48 408 48 408 292 c 0,19,20
 408 554 408 554 298 554 c 0,14,15
EndSplineSet
Validated: 1
EndChar

StartChar: one
Encoding: 49 49 151
Width: 502
Flags: MW
LayerCount: 2
Fore
SplineSet
95 455 m 1,0,-1
 95 531 l 1,1,2
 139 537 139 537 194 568 c 128,-1,3
 249 599 249 599 254 599 c 2,4,-1
 302 599 l 1,5,-1
 302 110 l 2,6,7
 302 58 302 58 402 49 c 1,8,-1
 402 0 l 1,9,-1
 95 0 l 1,10,-1
 95 49 l 1,11,12
 195 59 195 59 195 110 c 2,13,-1
 195 477 l 1,14,15
 185 469 185 469 155.5 462 c 128,-1,16
 126 455 126 455 103 455 c 2,17,-1
 95 455 l 1,0,-1
EndSplineSet
Validated: 1
EndChar

StartChar: two
Encoding: 50 50 152
Width: 600
Flags: MW
LayerCount: 2
Fore
SplineSet
423.5 556 m 128,-1,1
 480 506 480 506 480 431 c 128,-1,2
 480 356 480 356 405 256.5 c 128,-1,3
 330 157 330 157 249 90 c 1,4,-1
 449 90 l 1,5,-1
 490 165 l 1,6,-1
 541 120 l 1,7,-1
 484 -1 l 1,8,-1
 77 -1 l 1,9,-1
 65 23 l 1,10,11
 181 107 181 107 275.5 225.5 c 128,-1,12
 370 344 370 344 370 411 c 0,13,14
 370 516 370 516 274 516 c 0,15,16
 220 516 220 516 188 483 c 0,17,18
 177 472 177 472 150 423 c 0,19,20
 132 390 132 390 113 390 c 0,21,22
 75 390 75 390 75 426 c 0,23,24
 75 479 75 479 141.5 542.5 c 128,-1,25
 208 606 208 606 287.5 606 c 128,-1,0
 367 606 367 606 423.5 556 c 128,-1,1
EndSplineSet
Validated: 1
EndChar

StartChar: three
Encoding: 51 51 153
Width: 600
Flags: MW
LayerCount: 2
Fore
SplineSet
461 481 m 0,0,1
 461 440 461 440 439 406.5 c 128,-1,2
 417 373 417 373 384 358 c 1,3,4
 492 306 492 306 492 210 c 128,-1,5
 492 114 492 114 420 50 c 0,6,7
 348 -12 348 -12 250 -12 c 0,8,9
 183 -12 183 -12 82 68 c 1,10,-1
 154 132 l 1,11,12
 169 110 169 110 215 84 c 128,-1,13
 261 58 261 58 302 58 c 128,-1,14
 343 58 343 58 373.5 85 c 128,-1,15
 404 112 404 112 404 152 c 0,16,17
 404 223 404 223 351 252 c 0,18,19
 322 266 322 266 260 276 c 128,-1,20
 198 286 198 286 198 306 c 128,-1,21
 198 326 198 326 239 341 c 0,22,23
 298 362 298 362 316 372 c 0,24,25
 357 398 357 398 357 445 c 0,26,27
 357 528 357 528 281 528 c 0,28,29
 241 528 241 528 218 508 c 0,30,31
 212 502 212 502 189 469 c 0,32,33
 174 449 174 449 154 449 c 0,34,35
 127 449 127 449 127 479 c 0,36,37
 127 519 127 519 176 562 c 0,38,39
 226 606 226 606 298 606 c 128,-1,40
 370 606 370 606 415.5 572.5 c 128,-1,41
 461 539 461 539 461 481 c 0,0,1
EndSplineSet
Validated: 1
EndChar

StartChar: four
Encoding: 52 52 154
Width: 600
Flags: MW
LayerCount: 2
Fore
SplineSet
442 0 m 1,0,-1
 335 0 l 1,1,-1
 335 140 l 1,2,-1
 73 140 l 1,3,-1
 73 236 l 1,4,-1
 356 599 l 1,5,-1
 442 599 l 1,6,-1
 442 229 l 1,7,-1
 521 229 l 1,8,-1
 521 140 l 1,9,-1
 442 140 l 1,10,-1
 442 0 l 1,0,-1
335 229 m 1,11,-1
 335 476 l 1,12,-1
 148 229 l 1,13,-1
 335 229 l 1,11,-1
EndSplineSet
Validated: 1
EndChar

StartChar: five
Encoding: 53 53 155
Width: 600
Flags: MW
LayerCount: 2
Fore
SplineSet
294 63 m 0,0,1
 342 63 342 63 374 103 c 128,-1,2
 406 143 406 143 406 195 c 0,3,4
 406 347 406 347 121 347 c 1,5,-1
 234 599 l 1,6,-1
 500 599 l 1,7,-1
 457 503 l 1,8,-1
 259 503 l 1,9,-1
 230 447 l 1,10,-1
 288 447 l 2,11,12
 350 447 350 447 418 379 c 0,13,14
 492 302 492 302 492 214 c 128,-1,15
 492 126 492 126 412 58 c 128,-1,16
 332 -10 332 -10 244 -10 c 128,-1,17
 156 -10 156 -10 87 60 c 1,18,-1
 138 135 l 1,19,20
 196 63 196 63 294 63 c 0,0,1
EndSplineSet
Validated: 1
EndChar

StartChar: six
Encoding: 54 54 156
Width: 600
Flags: MW
LayerCount: 2
Fore
SplineSet
453 333 m 0,0,1
 506 272 506 272 506 184 c 128,-1,2
 506 96 506 96 450 40.5 c 128,-1,3
 394 -15 394 -15 300 -15 c 128,-1,4
 206 -15 206 -15 141.5 59.5 c 128,-1,5
 77 134 77 134 77 241 c 128,-1,6
 77 348 77 348 144 436 c 128,-1,7
 211 524 211 524 299 574.5 c 128,-1,8
 387 625 387 625 436 625 c 1,9,-1
 469 575 l 1,10,11
 307 517 307 517 211 365 c 1,12,13
 243 393 243 393 320.5 393 c 128,-1,14
 398 393 398 393 453 333 c 0,0,1
198 191 m 0,15,16
 198 133 198 133 225 93 c 128,-1,17
 252 53 252 53 300 53 c 0,18,19
 397 53 397 53 397 184.5 c 128,-1,20
 397 316 397 316 295 316 c 0,21,22
 198 316 198 316 198 191 c 0,15,16
EndSplineSet
Validated: 1
EndChar

StartChar: seven
Encoding: 55 55 157
Width: 600
Flags: MW
LayerCount: 2
Fore
SplineSet
424 503 m 1,0,-1
 215 503 l 2,1,2
 200 503 200 503 190 499.5 c 128,-1,3
 180 496 180 496 170.5 483.5 c 128,-1,4
 161 471 161 471 158.5 467 c 128,-1,5
 156 463 156 463 145 442 c 128,-1,6
 134 421 134 421 125 421 c 0,7,8
 103 421 103 421 103 459 c 128,-1,9
 103 497 103 497 137 548 c 128,-1,10
 171 599 171 599 217 599 c 2,11,-1
 524 599 l 1,12,-1
 334 2 l 1,13,-1
 211 2 l 1,14,-1
 424 503 l 1,0,-1
EndSplineSet
Validated: 1
EndChar

StartChar: eight
Encoding: 56 56 158
Width: 600
Flags: MW
LayerCount: 2
Fore
SplineSet
101 471 m 0,0,1
 101 536 101 536 161.5 574 c 128,-1,2
 222 612 222 612 298.5 612 c 128,-1,3
 375 612 375 612 430 573 c 128,-1,4
 485 534 485 534 485 471 c 0,5,6
 485 423 485 423 459 389 c 0,7,8
 436 362 436 362 382 328 c 1,9,10
 485 255 485 255 485 156 c 0,11,12
 485 85 485 85 430 38 c 128,-1,13
 375 -9 375 -9 296.5 -9 c 128,-1,14
 218 -9 218 -9 156 34.5 c 128,-1,15
 94 78 94 78 94 147 c 0,16,17
 94 233 94 233 216 310 c 1,18,19
 154 364 154 364 144 376 c 0,20,21
 101 423 101 423 101 471 c 0,0,1
372.5 538 m 128,-1,23
 347 562 347 562 310 562 c 128,-1,24
 273 562 273 562 242 539 c 128,-1,25
 211 516 211 516 211 485 c 0,26,27
 211 429 211 429 313 374 c 1,28,29
 398 423 398 423 398 475 c 0,30,22
 398 514 398 514 372.5 538 c 128,-1,23
227.5 84 m 128,-1,32
 257 56 257 56 295 56 c 128,-1,33
 333 56 333 56 361.5 80.5 c 128,-1,34
 390 105 390 105 390 139 c 128,-1,35
 390 173 390 173 343 214 c 1,36,-1
 274 268 l 1,37,38
 232 240 232 240 215 214.5 c 128,-1,39
 198 189 198 189 198 150.5 c 128,-1,31
 198 112 198 112 227.5 84 c 128,-1,32
EndSplineSet
Validated: 1
EndChar

StartChar: nine
Encoding: 57 57 159
Width: 473
Flags: MW
LayerCount: 2
Fore
SplineSet
230 506 m 0,0,1
 189 506 189 506 166.5 478 c 128,-1,2
 144 450 144 450 144 404 c 0,3,4
 144 293 144 293 234 293 c 0,5,6
 274 293 274 293 297.5 322 c 128,-1,7
 321 351 321 351 321 394 c 0,8,9
 321 506 321 506 230 506 c 0,0,1
25 387 m 0,10,11
 25 488 25 488 78.5 545.5 c 128,-1,12
 132 603 132 603 231 603 c 0,13,14
 444 603 444 603 444 293 c 0,15,16
 444 130 444 130 375 51 c 0,17,18
 318 -16 318 -16 232 -16 c 128,-1,19
 146 -16 146 -16 95.5 26 c 128,-1,20
 45 68 45 68 37 139 c 1,21,-1
 156 139 l 1,22,23
 165 79 165 79 225 79 c 0,24,25
 226 79 226 79 227 79 c 128,-1,26
 228 79 228 79 229 79 c 0,27,28
 269 79 269 79 296 118 c 0,29,30
 324 158 324 158 325 247 c 1,31,-1
 323 249 l 1,32,33
 288 198 288 198 208 198 c 128,-1,34
 128 198 128 198 76.5 252 c 128,-1,35
 25 306 25 306 25 387 c 0,10,11
EndSplineSet
Validated: 1
EndChar

StartChar: equal
Encoding: 61 61 160
Width: 426
Flags: MW
LayerCount: 2
Fore
SplineSet
382 345 m 1,0,-1
 382 295 l 1,1,-1
 64 295 l 1,2,-1
 64 345 l 1,3,-1
 382 345 l 1,0,-1
382 227 m 1,4,-1
 382 177 l 1,5,-1
 64 177 l 1,6,-1
 64 227 l 1,7,-1
 382 227 l 1,4,-1
EndSplineSet
Validated: 1
EndChar

StartChar: greater
Encoding: 62 62 161
Width: 314
Flags: MW
LayerCount: 2
Fore
SplineSet
314 267 m 1,0,-1
 314 189 l 1,1,-1
 66 0 l 1,2,-1
 66 104 l 1,3,-1
 225 227 l 1,4,-1
 66 351 l 1,5,-1
 66 455 l 1,6,-1
 314 267 l 1,0,-1
EndSplineSet
Validated: 1
EndChar

StartChar: bracketleft
Encoding: 91 91 162
Width: 500
Flags: MW
LayerCount: 2
Fore
SplineSet
73 626 m 1,0,-1
 312 626 l 1,1,-1
 344 576 l 1,2,-1
 165 576 l 1,3,-1
 165 -46 l 1,4,-1
 312 -46 l 1,5,-1
 344 -96 l 1,6,-1
 73 -96 l 1,7,-1
 73 626 l 1,0,-1
EndSplineSet
Validated: 1
EndChar

StartChar: backslash
Encoding: 92 92 163
Width: 550
Flags: MW
LayerCount: 2
Fore
SplineSet
507 -98 m 1,0,-1
 419 -98 l 1,1,-1
 40 642 l 1,2,-1
 128 642 l 1,3,-1
 507 -98 l 1,0,-1
EndSplineSet
Validated: 1
EndChar

StartChar: bracketright
Encoding: 93 93 164
Width: 500
Flags: MW
LayerCount: 2
Fore
SplineSet
427 -96 m 1,0,-1
 156 -96 l 1,1,-1
 188 -46 l 1,2,-1
 335 -46 l 1,3,-1
 335 576 l 1,4,-1
 156 576 l 1,5,-1
 188 626 l 1,6,-1
 427 626 l 1,7,-1
 427 -96 l 1,0,-1
EndSplineSet
Validated: 1
EndChar

StartChar: dollar
Encoding: 36 36 165
Width: 508
Flags: MW
LayerCount: 2
Fore
SplineSet
313 595 m 1,0,1
 327 595 327 595 372.5 577 c 128,-1,2
 418 559 418 559 433 550 c 1,3,-1
 433 440 l 1,4,-1
 408 440 l 2,5,6
 392 440 392 440 367 476 c 128,-1,7
 342 512 342 512 313 524 c 1,8,-1
 313 337 l 1,9,10
 457 256 457 256 457 142 c 0,11,12
 457 38 457 38 313 -16 c 1,13,-1
 313 -60 l 1,14,-1
 269 -60 l 1,15,-1
 269 -25 l 1,16,17
 266 -26 266 -26 249 -26 c 2,18,-1
 231 -26 l 1,19,-1
 231 -60 l 1,20,-1
 187 -60 l 1,21,-1
 187 -24 l 1,22,-1
 181 -24 l 2,23,24
 152 -24 152 -24 109.5 -9 c 128,-1,25
 67 6 67 6 49 20 c 1,26,-1
 49 132 l 1,27,-1
 87 132 l 1,28,-1
 95 114 l 1,29,30
 122 63 122 63 187 49 c 1,31,-1
 187 273 l 1,32,33
 57 348 57 348 57 446 c 0,34,35
 57 575 57 575 187 600 c 1,36,-1
 187 686 l 1,37,-1
 231 686 l 1,38,-1
 231 606 l 1,39,-1
 269 605 l 1,40,-1
 269 684 l 1,41,-1
 313 684 l 1,42,-1
 313 595 l 1,0,1
231 535 m 1,43,-1
 231 385 l 1,44,-1
 269 364 l 1,45,-1
 269 535 l 1,46,47
 264 536 264 536 252 536 c 128,-1,48
 240 536 240 536 231 535 c 1,43,-1
187 524 m 1,49,50
 174 520 174 520 160.5 505.5 c 128,-1,51
 147 491 147 491 147 478 c 0,52,53
 147 448 147 448 187 414 c 1,54,-1
 187 524 l 1,49,50
231 44 m 1,55,-1
 241 44 l 2,56,57
 258 44 258 44 269 47 c 1,58,-1
 269 222 l 1,59,-1
 231 245 l 1,60,-1
 231 44 l 1,55,-1
313 192 m 1,61,-1
 313 65 l 1,62,63
 359 96 359 96 359 126 c 128,-1,64
 359 156 359 156 313 192 c 1,61,-1
EndSplineSet
Validated: 1
EndChar

StartChar: copyright
Encoding: 169 169 166
Width: 736
Flags: MW
LayerCount: 2
Fore
SplineSet
594 92 m 128,-1,1
 502 0 502 0 368.5 0 c 128,-1,2
 235 0 235 0 143.5 93 c 128,-1,3
 52 186 52 186 52 318 c 128,-1,4
 52 450 52 450 144.5 542.5 c 128,-1,5
 237 635 237 635 369 635 c 128,-1,6
 501 635 501 635 593.5 542.5 c 128,-1,7
 686 450 686 450 686 317 c 128,-1,0
 686 184 686 184 594 92 c 128,-1,1
196 492 m 128,-1,9
 128 424 128 424 128 318.5 c 128,-1,10
 128 213 128 213 196.5 144 c 128,-1,11
 265 75 265 75 369 75 c 128,-1,12
 473 75 473 75 542 144 c 128,-1,13
 611 213 611 213 611 318 c 128,-1,14
 611 423 611 423 542.5 491.5 c 128,-1,15
 474 560 474 560 369 560 c 128,-1,8
 264 560 264 560 196 492 c 128,-1,9
256.5 189 m 128,-1,17
 207 241 207 241 207 321 c 128,-1,18
 207 401 207 401 254.5 452 c 128,-1,19
 302 503 302 503 381 503 c 0,20,21
 440 503 440 503 480.5 469.5 c 128,-1,22
 521 436 521 436 531 383 c 1,23,-1
 459 383 l 1,24,25
 449 441 449 441 380 441 c 0,26,27
 335 441 335 441 308.5 406 c 128,-1,28
 282 371 282 371 282 322 c 128,-1,29
 282 273 282 273 311 236 c 128,-1,30
 340 199 340 199 376.5 199 c 128,-1,31
 413 199 413 199 435 216.5 c 128,-1,32
 457 234 457 234 459 261 c 1,33,-1
 531 261 l 1,34,35
 524 207 524 207 483 172 c 128,-1,36
 442 137 442 137 383 137 c 0,37,16
 306 137 306 137 256.5 189 c 128,-1,17
EndSplineSet
Validated: 1
EndChar

StartChar: registered
Encoding: 174 174 167
Width: 734
Flags: MW
LayerCount: 2
Fore
SplineSet
367 630 m 128,-1,1
 499 630 499 630 591.5 537.5 c 128,-1,2
 684 445 684 445 684 312.5 c 128,-1,3
 684 180 684 180 591.5 87.5 c 128,-1,4
 499 -5 499 -5 366.5 -5 c 128,-1,5
 234 -5 234 -5 142 88.5 c 128,-1,6
 50 182 50 182 50 313.5 c 128,-1,7
 50 445 50 445 142.5 537.5 c 128,-1,0
 235 630 235 630 367 630 c 128,-1,1
193.5 486 m 128,-1,9
 125 417 125 417 125 312.5 c 128,-1,10
 125 208 125 208 194 139 c 128,-1,11
 263 70 263 70 367 70 c 128,-1,12
 471 70 471 70 539.5 138.5 c 128,-1,13
 608 207 608 207 608 312 c 128,-1,14
 608 417 608 417 539 486 c 128,-1,15
 470 555 470 555 366 555 c 128,-1,8
 262 555 262 555 193.5 486 c 128,-1,9
400 480 m 2,16,17
 469 480 469 480 498.5 459 c 128,-1,18
 528 438 528 438 528 380 c 0,19,20
 528 296 528 296 439 290 c 1,21,-1
 519 151 l 1,22,-1
 439 151 l 1,23,-1
 365 290 l 1,24,-1
 314 290 l 1,25,-1
 314 151 l 1,26,-1
 240 151 l 1,27,-1
 240 480 l 1,28,-1
 400 480 l 2,16,17
402 340 m 2,29,30
 433 340 433 340 446.5 350.5 c 128,-1,31
 460 361 460 361 460 389 c 0,32,33
 460 423 460 423 385 423 c 2,34,-1
 314 423 l 1,35,-1
 314 340 l 1,36,-1
 402 340 l 2,29,30
EndSplineSet
Validated: 1
EndChar

StartChar: quoteleft
Encoding: 8216 8216 168
Width: 300
Flags: MW
LayerCount: 2
Fore
SplineSet
74 596 m 1,0,1
 104 598 104 598 123 598 c 128,-1,2
 142 598 142 598 162 576.5 c 128,-1,3
 182 555 182 555 182 526.5 c 128,-1,4
 182 498 182 498 159 475 c 128,-1,5
 136 452 136 452 99 452 c 128,-1,6
 62 452 62 452 30.5 485 c 128,-1,7
 -1 518 -1 518 -1 562.5 c 128,-1,8
 -1 607 -1 607 34.5 656.5 c 128,-1,9
 70 706 70 706 113 741 c 128,-1,10
 156 776 156 776 167 776 c 0,11,12
 191 776 191 776 191 746 c 0,13,14
 191 742 191 742 132 686 c 0,15,16
 74 631 74 631 74 597 c 0,17,18
 74 597 74 597 74 596 c 1,0,1
EndSplineSet
Validated: 1
EndChar

StartChar: quoteright
Encoding: 8217 8217 169
Width: 300
Flags: MW
LayerCount: 2
Fore
SplineSet
225 622 m 1,0,1
 195 620 195 620 176 620 c 128,-1,2
 157 620 157 620 137 641.5 c 128,-1,3
 117 663 117 663 117 691.5 c 128,-1,4
 117 720 117 720 140.5 743 c 128,-1,5
 164 766 164 766 200.5 766 c 128,-1,6
 237 766 237 766 268.5 733 c 128,-1,7
 300 700 300 700 300 656.5 c 128,-1,8
 300 613 300 613 260 558 c 0,9,10
 228 511 228 511 184 476 c 0,11,12
 144 442 144 442 132 442 c 0,13,14
 108 442 108 442 108 472 c 0,15,16
 108 476 108 476 167 530 c 0,17,18
 225 583 225 583 225 619 c 2,19,-1
 225 622 l 1,0,1
EndSplineSet
Validated: 1
EndChar

StartChar: quotedblleft
Encoding: 8220 8220 170
Width: 550
Flags: MW
LayerCount: 2
Fore
SplineSet
75 596 m 1,0,1
 105 598 105 598 124 598 c 128,-1,2
 143 598 143 598 163 576.5 c 128,-1,3
 183 555 183 555 183 526.5 c 128,-1,4
 183 498 183 498 159.5 475 c 128,-1,5
 136 452 136 452 99.5 452 c 128,-1,6
 63 452 63 452 31.5 485 c 128,-1,7
 0 518 0 518 0 561.5 c 128,-1,8
 0 605 0 605 40 660 c 0,9,10
 72 707 72 707 116 742 c 0,11,12
 156 776 156 776 168 776 c 0,13,14
 192 776 192 776 192 746 c 0,15,16
 192 742 192 742 132 687 c 0,17,18
 75 635 75 635 75 599 c 0,19,20
 75 599 75 599 75 598 c 128,-1,21
 75 597 75 597 75 596 c 1,0,1
300 596 m 1,22,23
 330 598 330 598 349 598 c 128,-1,24
 368 598 368 598 388 576.5 c 128,-1,25
 408 555 408 555 408 526.5 c 128,-1,26
 408 498 408 498 385 475 c 128,-1,27
 362 452 362 452 325 452 c 128,-1,28
 288 452 288 452 256.5 485 c 128,-1,29
 225 518 225 518 225 561.5 c 128,-1,30
 225 605 225 605 265 660 c 0,31,32
 297 707 297 707 341 742 c 0,33,34
 381 776 381 776 393 776 c 0,35,36
 417 776 417 776 417 746 c 0,37,38
 417 746 417 746 417 746 c 0,39,40
 417 740 417 740 358 686 c 0,41,42
 300 633 300 633 300 598 c 0,43,44
 300 597 300 597 300 596 c 1,22,23
EndSplineSet
Validated: 5
EndChar

StartChar: quotedblright
Encoding: 8221 8221 171
Width: 550
Flags: MW
LayerCount: 2
Fore
SplineSet
472 622 m 1,0,1
 442 620 442 620 423 620 c 128,-1,2
 404 620 404 620 384 641.5 c 128,-1,3
 364 663 364 663 364 691.5 c 128,-1,4
 364 720 364 720 387 743 c 128,-1,5
 410 766 410 766 447 766 c 128,-1,6
 484 766 484 766 515.5 733 c 128,-1,7
 547 700 547 700 547 656.5 c 128,-1,8
 547 613 547 613 507 558 c 0,9,10
 475 511 475 511 431 476 c 0,11,12
 391 442 391 442 379 442 c 0,13,14
 355 442 355 442 355 472 c 0,15,16
 355 477 355 477 414 531 c 0,17,18
 472 584 472 584 472 618 c 0,19,20
 472 618 472 618 472 619 c 0,21,-1
 472 620 l 0,22,23
 472 621 472 621 472 622 c 1,0,1
247 622 m 1,24,25
 217 620 217 620 198 620 c 128,-1,26
 179 620 179 620 159 641.5 c 128,-1,27
 139 663 139 663 139 691.5 c 128,-1,28
 139 720 139 720 162.5 743 c 128,-1,29
 186 766 186 766 222.5 766 c 128,-1,30
 259 766 259 766 290.5 733 c 128,-1,31
 322 700 322 700 322 656.5 c 128,-1,32
 322 613 322 613 282 558 c 0,33,34
 250 511 250 511 206 476 c 0,35,36
 166 442 166 442 154 442 c 0,37,38
 130 442 130 442 130 472 c 0,39,40
 130 476 130 476 189 530 c 0,41,42
 247 583 247 583 247 618 c 0,43,44
 247 618 247 618 247 619 c 0,45,-1
 247 620 l 0,46,47
 247 621 247 621 247 622 c 1,24,25
EndSplineSet
Validated: 1
EndChar

StartChar: trademark
Encoding: 8482 8482 172
Width: 658
Flags: MW
LayerCount: 2
Fore
SplineSet
136 495 m 1,0,-1
 136 742 l 1,1,-1
 50 742 l 1,2,-1
 50 800 l 1,3,-1
 280 800 l 1,4,-1
 280 742 l 1,5,-1
 194 742 l 1,6,-1
 194 495 l 1,7,-1
 136 495 l 1,0,-1
382 643 m 1,8,-1
 382 496 l 1,9,-1
 324 496 l 1,10,-1
 324 800 l 1,11,-1
 375 800 l 1,12,-1
 466 576 l 1,13,-1
 556 800 l 1,14,-1
 607 800 l 1,15,-1
 607 496 l 1,16,-1
 549 496 l 1,17,-1
 549 643 l 1,18,-1
 486 496 l 1,19,-1
 445 496 l 1,20,-1
 382 643 l 1,8,-1
EndSplineSet
Validated: 1
EndChar

StartChar: sterling
Encoding: 163 163 173
Width: 550
Flags: MW
LayerCount: 2
Fore
SplineSet
131 474 m 0,0,1
 131 548 131 548 184 601 c 128,-1,2
 237 654 237 654 311 654 c 2,3,-1
 316 654 l 1,4,5
 388 653 388 653 439.5 602 c 128,-1,6
 491 551 491 551 491 479 c 1,7,-1
 396 444 l 1,8,9
 396 594 396 594 306 594 c 0,10,11
 275 594 275 594 257 566 c 128,-1,12
 239 538 239 538 239 503.5 c 128,-1,13
 239 469 239 469 254.5 416.5 c 128,-1,14
 270 364 270 364 273 347 c 1,15,-1
 402 347 l 1,16,-1
 402 299 l 1,17,-1
 279 299 l 1,18,-1
 279 281 l 2,19,20
 279 199 279 199 262 114 c 1,21,22
 320 79 320 79 376 79 c 128,-1,23
 432 79 432 79 453 137 c 0,24,25
 467 175 467 175 488 175 c 128,-1,26
 509 175 509 175 509 136.5 c 128,-1,27
 509 98 509 98 478 55 c 0,28,29
 436 -1 436 -1 368 -1 c 128,-1,30
 300 -1 300 -1 238 56 c 1,31,32
 205 -1 205 -1 136 -1 c 0,33,34
 102 -1 102 -1 76 22.5 c 128,-1,35
 50 46 50 46 50 81 c 128,-1,36
 50 116 50 116 78 142.5 c 128,-1,37
 106 169 106 169 136 169 c 128,-1,38
 166 169 166 169 203 152 c 1,39,40
 203 210 203 210 178 294 c 1,41,-1
 87 294 l 1,42,-1
 87 344 l 1,43,-1
 163 344 l 1,44,45
 162 348 162 348 155 366 c 0,46,47
 131 430 131 430 131 474 c 0,0,1
108 76 m 0,48,49
 108 65 108 65 119 57 c 128,-1,50
 130 49 130 49 142 49 c 0,51,52
 182 49 182 49 196 91 c 1,53,54
 181 108 181 108 144.5 108 c 128,-1,55
 108 108 108 108 108 76 c 0,48,49
EndSplineSet
Validated: 1
EndChar

StartChar: divide
Encoding: 247 247 174
Width: 686
Flags: MW
LayerCount: 2
Fore
SplineSet
599 334 m 1,0,-1
 599 222 l 1,1,-1
 87 222 l 1,2,-1
 87 334 l 1,3,-1
 599 334 l 1,0,-1
343 167 m 128,-1,5
 373 167 373 167 394 146 c 128,-1,6
 415 125 415 125 415 95 c 128,-1,7
 415 65 415 65 394 44 c 128,-1,8
 373 23 373 23 343 23 c 128,-1,9
 313 23 313 23 292 44 c 128,-1,10
 271 65 271 65 271 95 c 128,-1,11
 271 125 271 125 292 146 c 128,-1,4
 313 167 313 167 343 167 c 128,-1,5
343 551 m 128,-1,13
 373 551 373 551 394 530 c 128,-1,14
 415 509 415 509 415 479 c 128,-1,15
 415 449 415 449 394 428 c 128,-1,16
 373 407 373 407 343 407 c 128,-1,17
 313 407 313 407 292 428 c 128,-1,18
 271 449 271 449 271 479 c 128,-1,19
 271 509 271 509 292 530 c 128,-1,12
 313 551 313 551 343 551 c 128,-1,13
EndSplineSet
Validated: 1
EndChar

StartChar: uni2721
Encoding: 10017 10017 175
Width: 692
Flags: MW
LayerCount: 2
Fore
SplineSet
583 509 m 1,0,-1
 463 509 l 1,1,-1
 522 398 l 1,2,-1
 583 509 l 1,0,-1
348 655 m 1,3,-1
 287 544 l 1,4,-1
 407 544 l 1,5,-1
 348 655 l 1,3,-1
281 180 m 1,6,-1
 340 69 l 1,7,-1
 401 180 l 1,8,-1
 281 180 l 1,6,-1
639 180 m 1,9,-1
 439 180 l 1,10,-1
 340 0 l 1,11,-1
 244 180 l 1,12,-1
 49 180 l 1,13,-1
 148 359 l 1,14,-1
 49 544 l 1,15,-1
 249 544 l 1,16,-1
 348 724 l 1,17,-1
 444 544 l 1,18,-1
 639 544 l 1,19,-1
 540 365 l 1,20,-1
 639 180 l 1,9,-1
166 325 m 1,21,-1
 105 215 l 1,22,-1
 225 215 l 1,23,-1
 166 325 l 1,21,-1
230 509 m 1,24,-1
 105 509 l 1,25,-1
 167 394 l 1,26,-1
 230 509 l 1,24,-1
185 360 m 1,27,-1
 262 215 l 1,28,-1
 421 215 l 1,29,-1
 503 364 l 1,30,-1
 426 509 l 1,31,-1
 267 509 l 1,32,-1
 185 360 l 1,27,-1
458 215 m 1,33,-1
 583 215 l 1,34,-1
 521 330 l 1,35,-1
 458 215 l 1,33,-1
EndSplineSet
Validated: 1
EndChar

StartChar: uni2605
Encoding: 9733 9733 176
Width: 604
Flags: MW
LayerCount: 2
Fore
SplineSet
52 447 m 1,0,-1
 249 401 l 1,1,-1
 303 593 l 1,2,-1
 359 399 l 1,3,-1
 547 464 l 1,4,-1
 425 310 l 1,5,-1
 556 138 l 1,6,-1
 367 193 l 1,7,-1
 301 3 l 1,8,-1
 245 189 l 1,9,-1
 51 140 l 1,10,-1
 181 310 l 1,11,-1
 52 447 l 1,0,-1
EndSplineSet
Validated: 1
EndChar

StartChar: uni2713
Encoding: 10003 10003 177
Width: 762
Flags: MW
LayerCount: 2
Fore
SplineSet
293 0 m 1,0,-1
 213 0 l 1,1,2
 174 4 174 4 112 76 c 128,-1,3
 50 148 50 148 50 201 c 1,4,5
 68 248 68 248 124 248 c 1,6,7
 215 107 215 107 259 91 c 1,8,9
 311 145 311 145 436 341 c 1,10,-1
 574 563 l 1,11,12
 596 596 596 596 658 596 c 0,13,14
 686 596 686 596 711 590 c 1,15,-1
 293 0 l 1,0,-1
EndSplineSet
Validated: 1
EndChar

StartChar: uni26AB
Encoding: 9899 9899 178
Width: 600
Flags: MW
LayerCount: 2
Fore
SplineSet
110 444 m 128,-1,1
 171 505 171 505 257 505 c 128,-1,2
 343 505 343 505 404 444 c 128,-1,3
 465 383 465 383 465 298 c 128,-1,4
 465 213 465 213 404.5 151 c 128,-1,5
 344 89 344 89 258.5 89 c 128,-1,6
 173 89 173 89 111 149.5 c 128,-1,7
 49 210 49 210 49 296.5 c 128,-1,0
 49 383 49 383 110 444 c 128,-1,1
EndSplineSet
Validated: 1
EndChar

StartChar: uni2606
Encoding: 9734 9734 179
Width: 729
Flags: MW
LayerCount: 2
Fore
SplineSet
52 554 m 1,0,-1
 299 497 l 1,1,-1
 367 738 l 1,2,-1
 438 495 l 1,3,-1
 673 576 l 1,4,-1
 520 382 l 1,5,-1
 685 167 l 1,6,-1
 446 234 l 1,7,-1
 365 -3 l 1,8,-1
 296 231 l 1,9,-1
 50 169 l 1,10,-1
 214 382 l 1,11,-1
 52 554 l 1,0,-1
259 378 m 1,12,-1
 136 227 l 1,13,-1
 314 275 l 1,14,-1
 365 92 l 1,15,-1
 429 273 l 1,16,-1
 603 222 l 1,17,-1
 477 378 l 1,18,-1
 589 517 l 1,19,-1
 416 449 l 1,20,-1
 367 634 l 1,21,-1
 320 453 l 1,22,-1
 152 499 l 1,23,-1
 259 378 l 1,12,-1
EndSplineSet
Validated: 1
EndChar

StartChar: uni27A3
Encoding: 10147 10147 180
Width: 900
Flags: MW
LayerCount: 2
Fore
SplineSet
275 344 m 1,0,-1
 57 601 l 1,1,-1
 850 344 l 1,2,-1
 56 96 l 1,3,-1
 275 344 l 1,0,-1
296 344 m 1,4,-1
 102 124 l 1,5,-1
 801 344 l 1,6,-1
 296 344 l 1,4,-1
EndSplineSet
Validated: 1
EndChar

StartChar: uni272A
Encoding: 10026 10026 181
Width: 846
Flags: MW
LayerCount: 2
Fore
SplineSet
50 368 m 128,-1,1
 50 522 50 522 158 630 c 128,-1,2
 266 738 266 738 423 738 c 128,-1,3
 580 738 580 738 688 630 c 128,-1,4
 796 522 796 522 796 368 c 128,-1,5
 796 214 796 214 688 106 c 128,-1,6
 580 -2 580 -2 423 -2 c 128,-1,7
 266 -2 266 -2 158 106 c 128,-1,0
 50 214 50 214 50 368 c 128,-1,1
246 366 m 1,8,-1
 155 203 l 1,9,-1
 331 203 l 1,10,-1
 417 41 l 1,11,-1
 506 203 l 1,12,-1
 687 203 l 1,13,-1
 599 370 l 1,14,-1
 687 530 l 1,15,-1
 512 530 l 1,16,-1
 425 693 l 1,17,-1
 331 530 l 1,18,-1
 155 530 l 1,19,-1
 246 366 l 1,8,-1
EndSplineSet
Validated: 1
EndChar

StartChar: uni2B8F
Encoding: 11151 11151 182
Width: 918
Flags: MW
LayerCount: 2
Fore
SplineSet
654 481 m 2,0,1
 654 567 654 567 543 573 c 1,2,-1
 538 573 l 1,3,4
 496 572 496 572 464 540 c 128,-1,5
 432 508 432 508 431 480 c 1,6,-1
 431 204 l 1,7,-1
 626 205 l 1,8,-1
 334 -133 l 1,9,-1
 52 204 l 1,10,-1
 242 204 l 1,11,-1
 242 542 l 2,12,13
 242 605 242 605 313 676 c 0,14,15
 404 767 404 767 559 767 c 128,-1,16
 714 767 714 767 801 680 c 0,17,18
 867 614 867 614 867 541 c 2,19,-1
 867 0 l 1,20,-1
 654 0 l 1,21,-1
 654 481 l 2,0,1
EndSplineSet
Validated: 1
EndChar

StartChar: uni2BAA
Encoding: 11178 11178 183
Width: 957
Flags: MW
LayerCount: 2
Fore
SplineSet
703 260 m 1,0,1
 701 270 701 270 691 280 c 128,-1,2
 681 290 681 290 676.5 292.5 c 128,-1,3
 672 295 672 295 654 295 c 2,4,-1
 392 295 l 1,5,-1
 392 100 l 1,6,-1
 55 391 l 1,7,-1
 392 674 l 1,8,-1
 392 484 l 1,9,-1
 732 484 l 2,10,11
 837 484 837 484 865 444 c 0,12,13
 907 386 907 386 907 319 c 2,14,-1
 907 0 l 1,15,-1
 703 0 l 1,16,-1
 703 260 l 1,0,1
EndSplineSet
Validated: 1
EndChar

StartChar: spade
Encoding: 9824 9824 184
Width: 592
Flags: MW
LayerCount: 2
Fore
SplineSet
340 166 m 1,0,1
 330 142 330 142 330 107 c 128,-1,2
 330 72 330 72 365.5 50.5 c 128,-1,3
 401 29 401 29 443 27 c 1,4,-1
 443 -1 l 1,5,-1
 151 0 l 1,6,-1
 151 29 l 1,7,8
 155 28 155 28 164 28 c 0,9,10
 197 28 197 28 230.5 52 c 128,-1,11
 264 76 264 76 264 107 c 128,-1,12
 264 138 264 138 253 166 c 1,13,14
 216 126 216 126 180 126 c 0,15,16
 52 126 52 126 52 248 c 0,17,18
 52 314 52 314 297 598 c 1,19,20
 542 311 542 311 542 246.5 c 128,-1,21
 542 182 542 182 510 154 c 128,-1,22
 478 126 478 126 407 126 c 0,23,24
 381 126 381 126 340 166 c 1,0,1
EndSplineSet
Validated: 1
EndChar

StartChar: club
Encoding: 9827 9827 185
Width: 678
Flags: MW
LayerCount: 2
Fore
SplineSet
604.5 383.5 m 128,-1,1
 628 345 628 345 628 285 c 128,-1,2
 628 225 628 225 598.5 186 c 128,-1,3
 569 147 569 147 517 147 c 0,4,5
 443 147 443 147 388 216 c 1,6,7
 371 177 371 177 371 120 c 0,8,9
 371 90 371 90 412 58.5 c 128,-1,10
 453 27 453 27 478 27 c 1,11,-1
 478 0 l 1,12,-1
 186 0 l 1,13,-1
 186 29 l 1,14,15
 215 29 215 29 258.5 56.5 c 128,-1,16
 302 84 302 84 302 122 c 0,17,18
 302 179 302 179 289 215 c 1,19,20
 258 139 258 139 160 137 c 1,21,-1
 158 137 l 2,22,23
 113 137 113 137 81 180 c 128,-1,24
 49 223 49 223 49 275 c 0,25,26
 49 411 49 411 156 411 c 0,27,28
 194 411 194 411 255 366 c 1,29,30
 195 420 195 420 195 491 c 0,31,32
 195 544 195 544 234.5 573.5 c 128,-1,33
 274 603 274 603 334 603 c 128,-1,34
 394 603 394 603 432.5 573 c 128,-1,35
 471 543 471 543 471 490 c 128,-1,36
 471 437 471 437 422 382 c 1,37,38
 441 397 441 397 482.5 410 c 128,-1,39
 524 423 524 423 534 423 c 1,40,-1
 533 422 l 1,41,0
 581 422 581 422 604.5 383.5 c 128,-1,1
EndSplineSet
Validated: 1
EndChar

StartChar: heart
Encoding: 9829 9829 186
Width: 694
Flags: MW
LayerCount: 2
Fore
SplineSet
49 438 m 0,0,1
 49 500 49 500 87.5 543 c 128,-1,2
 126 586 126 586 186 586 c 0,3,4
 287 586 287 586 341 454 c 1,5,6
 400 586 400 586 513 586 c 0,7,8
 643 586 643 586 643 448 c 0,9,10
 643 326 643 326 495 159 c 0,11,12
 432 86 432 86 346 14 c 1,13,14
 49 282 49 282 49 438 c 0,0,1
EndSplineSet
Validated: 1
EndChar

StartChar: diamond
Encoding: 9830 9830 187
Width: 538
Flags: MW
LayerCount: 2
Fore
SplineSet
269 598 m 1,0,1
 284 575 284 575 341 494 c 0,2,3
 431 371 431 371 490 312 c 1,4,5
 389 201 389 201 269 0 c 1,6,7
 246 48 246 48 169 156 c 128,-1,8
 92 264 92 264 48 312 c 1,9,10
 90 354 90 354 158 441 c 128,-1,11
 226 528 226 528 269 598 c 1,0,1
EndSplineSet
Validated: 1
EndChar

StartChar: uni0A4D_uni0A30_uni0A2D_uni0A42
Encoding: 65591 -1 188
Width: 706
UnlinkRmOvrlpSave: 1
Flags: MW
LayerCount: 2
Fore
SplineSet
-7 503 m 1,0,-1
 -7 599 l 1,1,-1
 213 599 l 1,2,-1
 213 503 l 1,3,-1
 -7 503 l 1,0,-1
EndSplineSet
Refer: 49 2605 N 1 0 0 1 170 0 2
Refer: 19 2626 N 1 0 0 1 699 0 2
Refer: 85 -1 N 1 0 0 1 0 0 2
LCarets2: 3 0 0 0
Ligature2: "'psts' Post Base Substitutions in Gurmukhi lookup 3 subtable" uni0A4D uni0A30 uni0A2D uni0A42
Ligature2: "'psts' Post Base Substitutions in Gurmukhi lookup 3 subtable" uni0A4D_uni0A30 uni0A2D uni0A42
Ligature2: "'blws' Below Base Substitutions in Gurmukhi lookup 5 subtable" uni0A4D uni0A30 uni0A2D uni0A42
Ligature2: "'blws' Below Base Substitutions in Gurmukhi lookup 5 subtable" uni0A4D_uni0A30 uni0A2D uni0A42
Ligature2: "Ligatures in Gurmukhi lookup 6 subtable" uni0A4D_uni0A30 uni0A2D uni0A42
Ligature2: "Ligatures in Gurmukhi lookup 6 subtable" uni0A4D uni0A30 uni0A2D uni0A42
EndChar

StartChar: uni0A75_uni0A30_uni0A41
Encoding: 65592 -1 189
Width: 704
UnlinkRmOvrlpSave: 1
Flags: MW
LayerCount: 2
Fore
SplineSet
-7 503 m 1,0,-1
 -7 599 l 1,1,-1
 213 599 l 1,2,-1
 213 503 l 1,3,-1
 -7 503 l 1,0,-1
EndSplineSet
Refer: 17 2625 N 1 0 0 1 734 0 2
Refer: 10 2677 N 1 0 0 1 0 0 2
Refer: 52 2608 N 1 0 0 1 170 0 2
LCarets2: 2 0 0
Ligature2: "'psts' Post Base Substitutions in Gurmukhi lookup 3 subtable" uni0A75 uni0A30 uni0A41
Ligature2: "'blws' Below Base Substitutions in Gurmukhi lookup 5 subtable" uni0A75 uni0A30 uni0A41
Ligature2: "Ligatures in Gurmukhi lookup 6 subtable" uni0A75 uni0A30 uni0A41
EndChar

StartChar: uni2010
Encoding: 8208 8208 190
Width: 356
Flags: MW
LayerCount: 2
Fore
SplineSet
316 333 m 1,0,-1
 316 253 l 1,1,-1
 49 253 l 1,2,-1
 49 333 l 1,3,-1
 316 333 l 1,0,-1
EndSplineSet
Validated: 1
EndChar

StartChar: endash
Encoding: 8211 8211 191
Width: 356
Flags: MW
LayerCount: 2
Fore
SplineSet
316 333 m 1,0,-1
 316 253 l 1,1,-1
 49 253 l 1,2,-1
 49 333 l 1,3,-1
 316 333 l 1,0,-1
EndSplineSet
Validated: 1
EndChar

StartChar: emdash
Encoding: 8212 8212 192
Width: 1000
Flags: MW
LayerCount: 2
Fore
SplineSet
56 240 m 1,0,-1
 56 336 l 1,1,-1
 944 336 l 1,2,-1
 944 240 l 1,3,-1
 56 240 l 1,0,-1
EndSplineSet
Validated: 1
EndChar

StartChar: uni200C
Encoding: 8204 8204 193
Width: 0
VWidth: 1104
Flags: MW
LayerCount: 2
Fore
SplineSet
-12 599 m 1,0,-1
 11 599 l 1,1,-1
 11 2 l 1,2,-1
 -12 2 l 1,3,-1
 -12 599 l 1,0,-1
EndSplineSet
Validated: 1
EndChar

StartChar: uni200D
Encoding: 8205 8205 194
Width: 0
VWidth: 1168
Flags: MW
LayerCount: 2
Fore
SplineSet
11 562 m 1,0,-1
 11 6 l 1,1,-1
 -12 6 l 1,2,-1
 -12 562 l 1,3,-1
 -55 518 l 1,4,-1
 -70 534 l 1,5,-1
 -15 588 l 1,6,-1
 -70 642 l 1,7,-1
 -55 658 l 1,8,-1
 0 603 l 1,9,-1
 55 658 l 1,10,-1
 70 642 l 1,11,-1
 15 588 l 1,12,-1
 70 534 l 1,13,-1
 55 518 l 1,14,-1
 11 562 l 1,0,-1
EndSplineSet
Validated: 1
EndChar

StartChar: uni0A3E_uni0A02
Encoding: 65595 -1 197
Width: 250
Flags: MW
LayerCount: 2
Fore
SplineSet
51.5 772 m 128,-1,1
 72 792 72 792 100.5 792 c 128,-1,2
 129 792 129 792 149 772 c 128,-1,3
 169 752 169 752 169 723.5 c 128,-1,4
 169 695 169 695 149 674.5 c 128,-1,5
 129 654 129 654 100.5 654 c 128,-1,6
 72 654 72 654 51.5 674.5 c 128,-1,7
 31 695 31 695 31 723.5 c 128,-1,0
 31 752 31 752 51.5 772 c 128,-1,1
0 503 m 1,8,-1
 0 599 l 1,9,-1
 299 599 l 1,10,-1
 299 503 l 1,11,-1
 163 503 l 1,12,-1
 163 231 l 1,13,-1
 49 231 l 1,14,-1
 49 503 l 1,15,-1
 0 503 l 1,8,-1
EndSplineSet
Validated: 1
LCarets2: 1 0
Ligature2: "'abvs' Above Base Substitutions in Gurmukhi lookup 4 subtable" uni0A3E uni0A02
EndChar

StartChar: uni0A0A_uni0A02
Encoding: 65596 -1 198
Width: 824
Flags: MW
LayerCount: 2
Fore
SplineSet
41 599 m 1
 58 722 58 722 132 799 c 0
 206 876 206 876 329 876 c 0
 567 876 567 876 604 599 c 1
 905 599 l 1
 905 503 l 1
 610 503 l 1
 607 327 607 327 489 269 c 1
 542 204 542 204 542 151 c 0
 542 80 542 80 492 39 c 0
 442 -2 442 -2 363 -2 c 0
 224 -2 224 -2 132 126 c 0
 34 266 34 266 34 503 c 1
 -6 503 l 1
 -6 599 l 1
 41 599 l 1
143 503 m 1
 142 491 142 491 142 479 c 0
 142 467 142 467 143 457 c 2
 144 423 l 1
 144 387 144 387 157 334 c 1
 372 334 l 2
 507 334 507 334 507 503 c 1
 143 503 l 1
433 157 m 0
 433 188 433 188 395 212 c 0
 357 236 357 236 318 236 c 2
 188 236 l 1
 194 201 194 201 237 155 c 0
 294 94 294 94 364 94 c 0
 433 94 433 94 433 153 c 0
 433 154 433 154 433 155 c 0
 433 156 433 156 433 157 c 0
153 599 m 1
 502 599 l 1
 483 780 483 780 327 780 c 0
 186 780 186 780 153 599 c 1
662 674 m 0
 642 694 642 694 641 723 c 0
 642 752 642 752 662 772 c 0
 682 792 682 792 710 792 c 0
 738 792 738 792 758 772 c 0
 778 752 778 752 779 724 c 0
 779 696 779 696 759 674 c 0
 738 654 738 654 710 654 c 0
 682 654 682 654 662 674 c 0
EndSplineSet
Refer: 19 2626 N 1 0 0 1 676 0 2
Validated: 1
LCarets2: 2 0 0
Ligature2: "'abvs' Above Base Substitutions in Gurmukhi lookup 4 subtable" uni0A0A uni0A02
Ligature2: "'abvs' Above Base Substitutions in Gurmukhi lookup 4 subtable" uni0A73 uni0A42 uni0A02
EndChar

StartChar: uni0A4D_uni0A30_uni0A27_uni0A42
Encoding: 65597 -1 199
Width: 730
UnlinkRmOvrlpSave: 1
Flags: MW
LayerCount: 2
Fore
SplineSet
-7 503 m 1,0,-1
 -7 599 l 1,1,-1
 213 599 l 1,2,-1
 213 503 l 1,3,-1
 -7 503 l 1,0,-1
EndSplineSet
Refer: 19 2626 S 1 0 0 1 733 0 2
Refer: 85 -1 N 1 0 0 1 0 0 2
Refer: 44 2599 N 1 0 0 1 170 0 2
LCarets2: 3 0 0 0
Ligature2: "'blws' Below Base Substitutions in Gurmukhi lookup 5 subtable" uni0A4D_uni0A30 uni0A27 uni0A42
Ligature2: "'blws' Below Base Substitutions in Gurmukhi lookup 5 subtable" uni0A4D uni0A30 uni0A27 uni0A42
Ligature2: "'psts' Post Base Substitutions in Gurmukhi lookup 3 subtable" uni0A4D uni0A30 uni0A27 uni0A42
Ligature2: "'psts' Post Base Substitutions in Gurmukhi lookup 3 subtable" uni0A4D_uni0A30 uni0A27 uni0A42
Ligature2: "Ligatures in Gurmukhi lookup 6 subtable" uni0A4D_uni0A30 uni0A27 uni0A42
Ligature2: "Ligatures in Gurmukhi lookup 6 subtable" uni0A4D uni0A30 uni0A27 uni0A42
EndChar

StartChar: uni0A4D_uni0A30_uni0A2C_uni0A42
Encoding: 65598 -1 200
Width: 702
UnlinkRmOvrlpSave: 1
Flags: MW
LayerCount: 2
Fore
SplineSet
-7 503 m 1,0,-1
 -7 599 l 1,1,-1
 213 599 l 1,2,-1
 213 503 l 1,3,-1
 -7 503 l 1,0,-1
EndSplineSet
Refer: 19 2626 N 1 0 0 1 733 0 2
Refer: 85 -1 N 1 0 0 1 0 0 2
Refer: 48 2604 N 1 0 0 1 170 0 2
LCarets2: 3 0 0 0
Ligature2: "'psts' Post Base Substitutions in Gurmukhi lookup 3 subtable" uni0A4D uni0A30 uni0A2C uni0A42
Ligature2: "'blws' Below Base Substitutions in Gurmukhi lookup 5 subtable" uni0A4D uni0A30 uni0A2C uni0A42
Ligature2: "'psts' Post Base Substitutions in Gurmukhi lookup 3 subtable" uni0A4D_uni0A30 uni0A2C uni0A42
Ligature2: "'blws' Below Base Substitutions in Gurmukhi lookup 5 subtable" uni0A4D_uni0A30 uni0A2C uni0A42
Ligature2: "Ligatures in Gurmukhi lookup 6 subtable" uni0A4D uni0A30 uni0A2C uni0A42
Ligature2: "Ligatures in Gurmukhi lookup 6 subtable" uni0A4D_uni0A30 uni0A2C uni0A42
EndChar

StartChar: uni0A40_uni0A02
Encoding: 65599 -1 201
Width: 350
UnlinkRmOvrlpSave: 1
Flags: MW
LayerCount: 2
Fore
SplineSet
225 771 m 0,0,1
 246 791 246 791 274 791 c 0,2,3
 275 791 275 791 277 791 c 0,4,5
 303 791 303 791 322 772 c 0,6,7
 343 751 343 751 343 725 c 0,8,9
 343 724 343 724 343 723 c 0,10,11
 342 694 342 694 322 674 c 0,12,13
 301 653 301 653 275 653 c 0,14,15
 274 653 274 653 273 653 c 0,16,17
 245 653 245 653 224 674 c 0,18,19
 205 693 205 693 205 717 c 0,20,21
 205 718 205 718 205 719 c 0,22,-1
 205 722 l 0,23,24
 205 750 205 750 225 771 c 0,0,1
203 503 m 1,25,-1
 203 599 l 1,26,-1
 398 599 l 1,27,-1
 398 503 l 1,28,-1
 203 503 l 1,25,-1
EndSplineSet
Refer: 15 2624 N 1 0 0 1 0 0 2
LCarets2: 1 0
Ligature2: "'abvs' Above Base Substitutions in Gurmukhi lookup 4 subtable" uni0A40 uni0A02
EndChar

StartChar: uni0A4C_uni0A02
Encoding: 65603 -1 205
Width: 100
Flags: MW
LayerCount: 2
Fore
SplineSet
-18 771 m 0
 2 791 2 791 30.5 791 c 0
 59 791 59 791 79.5 771 c 0
 100 751 100 751 100 722.5 c 0
 100 694 100 694 79.5 673.5 c 0
 59 653 59 653 30.5 653 c 0
 2 653 2 653 -18 673.5 c 0
 -38 694 -38 694 -38 722.5 c 0
 -38 751 -38 751 -18 771 c 0
-47 503 m 1
 -47 599 l 1
 148 599 l 1
 148 503 l 1
 -47 503 l 1
EndSplineSet
Refer: 26 2636 N 1 0 0 1 0 0 2
Validated: 1
LCarets2: 1 0
Ligature2: "'abvs' Above Base Substitutions in Gurmukhi lookup 4 subtable" uni0A4C uni0A02
EndChar

